<?xml version="1.0" encoding="UTF-8"?><svg id="Layer_2" xmlns="http://www.w3.org/2000/svg" width="118.29" height="82.22" viewBox="0 0 118.29 82.22"><defs><style>.cls-1{fill:none;stroke:#221f20;stroke-miterlimit:10;stroke-width:.5px;}</style></defs><g id="Layer_1-2"><path class="cls-1" d="m26.01,12.57c-1.07-1.81-2.14-3.62-3.2-5.44-1.82-2-3.68-2.83-4.69-3.2-2.17-.77-3.94-.61-7.26-.32-.71.06-4.39.4-4.42,1.04,0,.1.09.27.77.54,2.08.82,3.55.18,5.45.32,1.83.13,1.81.83,4.1,1.44,1.37.36,3.38.65,6.05.18"/><path class="cls-1" d="m26.03,12.15c-.15-.72-1-5.05,1.65-8.16,1.74-2.04,4.15-2.58,7.48-3.31.21-.05,3.48-.75,3.65-.25.12.34-1.27,1.1-1.86,1.43-2.78,1.52-4.2,1.36-5.8,2.24-1.64.91-2.38,2.49-3.39,4.3-.73,1.3-1.17,2.47-1.44,3.31"/><path class="cls-1" d="m26.35,12.23c4.64-5.32,6.42-6.15,7.15-5.77.19.1.76.42,1.71.98.32.19.73.39,1.32.57,1.12.35,2.49.55,3.79,1.6.19.16.39.33.35.49-.1.41-1.69.29-3.81.25-3.28-.07-5.2-.1-7.17.49-.98.29-2.09.78-3.26,1.58"/><path class="cls-1" d="m25.77,12.54c-.73-.83-1.92-1.94-3.75-2.64,0,0-.15-.06-.31-.11-1-.34-3.42-.9-8.03.08-5.35,1.13-10.64,3.64-10.41,4.43.03.09.14.22.95.3,3.58.32,5.26-1.9,9.39-2.63,1.61-.28,1.19.08,4.14-.23,2.47-.26,3.95-.44,5.58-.09.48.11,1.23.31,2.12.75"/><path class="cls-1" d="m25.34,12.97c-2.18.51-5.07,1.52-7.8,3.69-4.09,3.25-5.34,7.15-5.68,6.98-.43-.21.44-6.79,5.65-9.79,3.41-1.96,6.93-1.38,8.01-1.15"/><path class="cls-1" d="m25.47,13.13c-1.3.59-4.33,2.18-6.17,5.59-2.55,4.71-1.28,9.99-.8,10.03.38.03.67-3,2.13-3.24.38-.06.49.12.77.03,1.07-.35.66-3.44,1.05-5.87.26-1.63,1.03-3.92,3.41-6.5"/><path class="cls-1" d="m26.32,13.03c7.65,7.26,9.68,8.86,9.87,8.68.13-.13-.79-1.09-2.17-3.54-1.22-2.16-1.24-2.71-1.93-3.5-.82-.94-2.37-1.96-5.61-2.06"/><path class="cls-1" d="m29.34,44.18c.7-4.21,1.2-10.1.31-17.03-.72-5.58-2.15-10.22-3.51-13.71"/><path class="cls-1" d="m44.25,22.28c-1.28-.53-3.12-1.45-5-3.01-1.45-1.21-4.1-3.79-3.6-4.56.44-.68,3.37.03,5.41,1.67,2.28,1.83,2.95,4.43,3.17,5.59"/><path class="cls-1" d="m44.52,21.72c-.26-.13.48-1.41.85-4.03.26-1.81.08-2.43.66-2.97.35-.32.75-.41,3.19-.41,3.35,0,3.46.16,3.48.24.1.41-1.77.75-3.77,2.19-3.02,2.17-4.03,5.16-4.41,4.97Z"/><path class="cls-1" d="m43.83,22.58c-.64-.13-1.64-.27-2.86-.18-1.39.1-1.84.39-5.29,1.63-2.28.82-3.08,1-3.1,1.46-.02.47.82,1.05,1.63,1.09.85.04,1.3-.53,3.25-2.04,1.3-1.01,1.97-1.52,2.54-1.73.81-.29,2.06-.46,3.9.22"/><path class="cls-1" d="m44.05,22.89c-1.52.37-3.91,1.22-5.72,3.37-1.88,2.22-3.14,5.83-2.15,6.67.3.25.71.19.79.18,1.46-.21,1.75-2.99,3.11-5.51.7-1.29,1.91-2.95,4.19-4.52"/><path class="cls-1" d="m44.66,22.37c.6-.59,1.59-1.38,3.04-1.68.04,0,.16-.04.31-.06.69-.08,1.86.09,5.46,1.49,1.91.74,3.09,1.21,3.04,1.41-.07.24-1.81-.09-3.97-.35-1.78-.22-4.39-.47-7.66-.49"/><path class="cls-1" d="m44.81,23.02c1.12,2.54,1.69,4.63,2,6.12.24,1.12.44,2.46,1.52,3.66.81.91,1.99,1.59,2.28,1.34.24-.21-.28-.97-.87-2.42-.94-2.31-.75-3.06-1.33-4.55-.45-1.17-1.36-2.72-3.39-4.27"/><path class="cls-1" d="m44.46,23.09c.22,7.71.44,15.43.65,23.14"/><path class="cls-1" d="m62.49,10.01c0-1.06-.17-2.79-1.22-4.4-2.51-3.83-8.43-4.43-8.53-4.16-.05.14,1.48.48,3.46,1.81,3.11,2.08,4.85,4.93,5.85,7.09"/><path class="cls-1" d="m62.68,10.12c.74-3.36,2.48-4.54,3.07-4.89.46-.27,1.31-.68,6.32-.59,3,.06,5.23.1,5.26.44.03.38-2.72.68-6.17,1.73-3.44,1.05-6.16,2.41-8.06,3.5"/><path class="cls-1" d="m61.28,10.34c-.79-.93-2.13-2.24-4.13-3.01-.65-.25-1.56-.52-6.17-.65-1.69-.05-5.69-.16-5.71.13-.01.19,1.81.07,4.2,1.1,2.12.91,2.39,1.74,4.1,2,1.21.19,1.52-.16,3.16-.13,1.63.03,2.95.4,3.81.71"/><path class="cls-1" d="m61.63,11.46c-1.05.61-2.54,1.61-4.04,3.13-2.58,2.62-3.46,5.04-3.84,4.87-.38-.16.11-2.78,1.45-5.04.66-1.11,1.55-2.55,3.36-3.29,1.25-.51,2.4-.47,3.07-.39"/><path class="cls-1" d="m62.7,10.85c1.47.33,3.42,1.04,5.19,2.57,1.31,1.14,2.02,2.29,3.01,3.88.82,1.34,2.01,3.27,1.64,3.6-.5.45-3.54-2.05-5.54-4.05-2.15-2.15-3.63-4.24-4.58-5.78"/><path class="cls-1" d="m62.49,12.04c1.33,2.63,2.3,4.8,2.96,6.36.38.9.62,1.49.81,2.32.54,2.39.37,5.43-.55,5.68-.74.2-1.94-1.4-2.52-2.81-.76-1.85-.43-3.29-.36-5.26.06-1.65-.05-3.97-.84-6.81"/><path class="cls-1" d="m61.63,11.46c-.38,10.67-.76,21.33-1.15,32"/><path class="cls-1" d="m81.99,14.7c.33-2.09.45-3.79.5-5,.08-1.81.01-2.83.74-3.89.33-.48.35-.28,1.99-1.66,1.75-1.47,2.41-2.28,3.19-2.08.08.02.43.11.59.4.54.95-1.54,2.95-2.86,4.58-1.25,1.55-2.75,3.92-3.76,7.5"/><path class="cls-1" d="m83.05,14.39c1.82-3.19,4.03-4,4.83-4.23.97-.28,2.08-.23,4.25-.08.25.02,5.64.39,5.64.92,0,.31-1.89.17-4.58,1.23-1.74.68-2.12,1.2-3.4,1.77-1.35.61-3.46,1.17-6.61.71"/><path class="cls-1" d="m81.41,14.3c-2.19-3.31-4.49-3.99-5.38-4.18-.57-.12-1.89-.1-4.53-.06-3.09.04-3.29.17-3.32.3-.15.58,2.83,2.2,6.01,2.78,1.28.24,1.69.14,3.3.47,1.76.36,3.17.87,4.11,1.26"/><path class="cls-1" d="m81.89,15.19c-.71-.08-1.78-.11-2.93.32-2.59.96-3.7,3.49-4.39,5.08-1.33,3.05-1.64,6.58-1.03,6.78.49.16,1.3-1.93,3.53-5.32,1.86-2.83,3.65-4.97,4.92-6.37"/><path class="cls-1" d="m82.68,15.14c1.93.45,5.26,1.56,7.54,4.55,1.58,2.08,2.39,4.72,2,4.95-.35.21-1.57-1.58-3.98-4.05-2.25-2.3-4.34-3.96-5.86-5.06"/><path class="cls-1" d="m82.38,16.14c1.69,1.9,2.37,3.63,2.67,4.89.37,1.54.19,2.43.95,3.66,1.01,1.64,2.93,2.67,3.38,2.28.54-.46-.88-2.93-1.64-4.27-.95-1.66-2.49-3.98-4.96-6.46"/><path class="cls-1" d="m81.99,16.41c.15.82.35,1.99.54,3.41.43,3.21,1.09,8.36.37,14.64-.31,2.68-.96,6.34-2.43,10.56"/><path class="cls-1" d="m99.54,26.24c-.4-.94-1.09-2.2-2.3-3.31-1.79-1.64-3.58-1.9-3.5-2.3.1-.47,2.67-.91,4.48.34,2.23,1.54,2.02,4.75,1.99,5.03"/><path class="cls-1" d="m100.61,26c.08-.69.35-1.91,1.32-2.73.4-.33,1.19-.83,4.88-.67,2.78.12,4.45.19,4.54.71.13.75-3.08,2.01-5.37,2.61-2.2.58-4.11.68-5.4.67"/><path class="cls-1" d="m100.23,26.79c.79.27,2.07.71,3.67,1.23,2.12.69,2.67.83,3.44,1.35,1.71,1.16,2.66,2.99,2.42,3.22-.23.23-1.35-1.3-3.96-2.3-1.51-.58-2.2-.47-3.62-1.23-1.06-.56-1.81-1.22-2.27-1.69"/><path class="cls-1" d="m99.9,27.93c1.06.79,2.87,2.38,3.65,4.94.7,2.3.4,4.78-.02,4.85-.34.05-.71-1.47-2.02-5.07-.87-2.39-1.65-4.31-2.19-5.58"/><path class="cls-1" d="m98.95,26.24c-.65-.39-1.78-.93-3.23-.9-1.56.03-2.65.71-3.69,1.36-1.43.89-2.68,2.11-2.54,2.33.17.25,2.26-.73,3.67-1.38,1.17-.54,1.69-.86,2.52-.78.6.05.9.26,1.64.28.75.01,1.36-.19,1.75-.35"/><path class="cls-1" d="m98.58,27.47c-.9.02-2.32.17-3.88.85-1.24.54-2.61,1.14-3.3,2.54-.95,1.91-.23,4.49.51,4.59.66.1.99-1.84,2.82-4.18,1.42-1.82,3.03-2.97,4.22-3.67"/><path class="cls-1" d="m100.47,29.89c.06,2.24.05,4.66-.09,7.22-.19,3.48-.57,6.68-1.05,9.56"/><path class="cls-1" d="m.01,51.95c14.45-.59,26.1-1.13,33.68-1.49,28.96-1.39,40.99-2.25,58.77-.81,10.98.89,25.63,2.77,25.58,4.19-.06,1.53-17.03,2.12-22.5,2.31-16.04.56-27.57-.29-44.74,2.4-.43.07-9.37,1.49-9.29,2.56.1,1.42,15.75-1.24,30.33,4.96,9.92,4.22,16.33,11.26,19.93,16"/></g></svg>