<?xml version="1.0" encoding="UTF-8"?><svg id="Layer_2" xmlns="http://www.w3.org/2000/svg" width="66.36" height="95.51" viewBox="0 0 66.36 95.51"><defs><style>.cls-1{fill:none;stroke:#221f20;stroke-miterlimit:10;stroke-width:.5px;}</style></defs><g id="Layer_1-2"><path class="cls-1" d="m13.61,27.14c2.11-1.9,3.08-4.62,2.45-7.07-.89-3.49-4.96-6.17-7.74-4.96-2.31,1.01-3.21,4.48-2.45,7.07.87,2.97,4.03,5.11,7.74,4.96Z"/><path class="cls-1" d="m17.16,30.14c-.1-.27-1.91-5.52,1.12-8.72,1.15-1.22,3.42-2.59,4.99-1.79,1.82.93,1.98,4.43.88,6.7-1.15,2.38-3.88,3.83-6.99,3.81Z"/><path class="cls-1" d="m8.32,15.11l5.29,12.03c3.6,5.3,7.62,12.24,11.03,20.78,4.08,10.21,5.98,19.46,6.9,26.6l.48,20.99"/><polyline class="cls-1" points="10.96 14.96 10.02 18.98 6.23 17.31"/><polyline class="cls-1" points="12.13 15.39 10.61 20.32 5.71 18.98"/><polyline class="cls-1" points="13.47 16.23 11.4 22.13 5.61 20.61"/><polyline class="cls-1" points="14.87 17.66 12.28 24.13 6.05 22.72"/><polyline class="cls-1" points="15.84 19.39 12.97 25.7 7.61 24.99"/><polyline class="cls-1" points="21.37 19.51 21.41 22.82 24.74 21.99"/><polyline class="cls-1" points="19.94 20.11 20.21 24.88 24.82 23.71"/><polyline class="cls-1" points="18.28 21.42 19.4 26.29 24.55 25.26"/><polyline class="cls-1" points="17.08 23.31 18.5 27.83 23.79 26.98"/><polyline class="cls-1" points="16.59 25.31 17.64 29.31 21.84 28.87"/><path class="cls-1" d="m23.79,38.91c-1.66-2.83-1.7-6.1-.09-8.4,1.31-1.88,4.14-3.72,6.27-2.71,2.23,1.06,2.63,4.76,1.57,7.19-1.16,2.64-4.28,4.28-7.74,3.92Z"/><path class="cls-1" d="m13.94,32.38c-.33-.31-5.54-5.03-10.04-3.17-.13.05-2.92,1.25-2.98,3.17-.06,1.94,2.69,3.57,4.79,3.95,4.47.81,8.02-3.68,8.23-3.95Z"/><polyline class="cls-1" points="28.29 27.53 28.79 31.03 31.87 30.38"/><polyline class="cls-1" points="26.27 28.2 27.79 32.6 32.09 32.05"/><polyline class="cls-1" points="24.55 29.5 26.78 34.19 32.01 33.23"/><polyline class="cls-1" points="23.45 30.89 25.62 36.01 31.53 34.99"/><polyline class="cls-1" points="22.65 33.01 24.65 37.54 29.84 37.2"/><path class="cls-1" d="m19.62,44.6c-.19-.26-4.16-5.35-9.32-4.42-2.39.43-5.23,2.18-5.17,3.95.07,2.16,4.47,4.2,8.24,3.81,3.35-.34,5.54-2.54,6.26-3.33Z"/><path class="cls-1" d="m.92,32.38h13.02c.31.33.8.78,1.51,1.15,1.04.54,2.01.62,2.53.62"/><polyline class="cls-1" points="2.45 34.9 4.28 32.38 1.93 30.47"/><polyline class="cls-1" points="3.94 35.77 6.67 32.38 3.9 29.21"/><polyline class="cls-1" points="5.29 36.24 8.09 32.38 5.29 28.78"/><polyline class="cls-1" points="6.82 36.43 9.46 32.38 6.82 28.81"/><polyline class="cls-1" points="9.46 35.87 11.17 32.38 9.04 29.34"/><path class="cls-1" d="m5.13,44.12l14.5.48c.5-.06,1.26-.09,2.14.11.8.18,1.42.47,1.84.71"/><polyline class="cls-1" points="6.4 46.11 8.14 44.22 6.28 42.06"/><polyline class="cls-1" points="7.96 40.96 10.11 44.29 8.14 47.11"/><polyline class="cls-1" points="9.04 40.51 12.37 44.36 10.11 47.73"/><polyline class="cls-1" points="10.93 40.09 14.72 44.44 11.76 47.98"/><polyline class="cls-1" points="13.94 40.45 16.95 44.51 13.94 47.98"/><polyline class="cls-1" points="16.95 42.04 18.07 44.55 17.16 46.63"/><path class="cls-1" d="m26.61,49.96c-.07-.79-.32-4.66,2.42-7.3,1.02-.98,3.34-2.66,4.89-1.85,1.7.89,1.89,4.5.46,6.74-1.42,2.23-4.55,3.24-7.76,2.42Z"/><polyline class="cls-1" points="32.09 40.74 33.02 42.81 35.2 42.81"/><polyline class="cls-1" points="31.25 41.07 31.66 44.33 35.33 43.84"/><polyline class="cls-1" points="29.84 41.96 30.36 45.78 35.11 45.78"/><polyline class="cls-1" points="28.64 43.06 29.35 46.9 34.45 47.25"/><polyline class="cls-1" points="27.32 45.16 28.08 48.32 33.12 48.89"/><polyline class="cls-1" points="26.69 47.45 27.18 49.32 30.22 50.12"/><path class="cls-1" d="m24.5,54.63c-.46-.43-5.58-5.03-10.17-3.26-.28.11-2.84,1.13-3,2.92-.18,1.97,2.65,3.91,5.02,4.33,2.9.51,6.01-1.09,8.15-3.99Z"/><line class="cls-1" x1="24.2" y1="55.01" x2="11.33" y2="54.29"/><polyline class="cls-1" points="12.82 52.17 14.25 54.45 12.55 56.75"/><polyline class="cls-1" points="13.94 51.54 16.05 54.55 13.94 57.74"/><polyline class="cls-1" points="14.99 51.16 17.16 54.62 14.72 58.12"/><polyline class="cls-1" points="15.94 58.53 18.88 54.71 16.3 50.98"/><polyline class="cls-1" points="18.88 51.33 20.81 54.82 17.76 58.72"/><polyline class="cls-1" points="21.72 52.6 22.51 54.92 20.6 57.96"/><polyline class="cls-1" points="17.16 32.74 17.16 30.14 23.27 19.63"/><path class="cls-1" d="m22.51,42.81c-.02-.49,0-1.29.32-2.21.27-.77.66-1.34.95-1.7,2.26-3.57,4.53-7.14,6.79-10.7"/><polyline class="cls-1" points="26.17 51.99 26.61 49.96 34.45 41.23"/><path class="cls-1" d="m24.5,54.63c.48.26,1.04.61,1.6,1.08.94.78,1.57,1.6,1.99,2.24"/><path class="cls-1" d="m25.58,4.5c-.39-.25-.92-.65-1.45-1.25-.7-.8-1.44-2.03-1.2-2.27.14-.13.65-.04,2.65,1.45.03-.28.27-2.14.75-2.17.37-.02.88,1.03.8,2-.11,1.35-1.35,2.12-1.55,2.25Z"/><path class="cls-1" d="m25.58,2.42v2.07c.66,2.55,1.27,5.31,1.76,8.26.91,5.4,1.27,10.37,1.33,14.76"/><path class="cls-1" d="m26.27,7.33c1.02-2.41,1.55-2.94,1.84-2.88.42.09.61,1.44.26,2.5-.4,1.23-1.43,1.84-1.75,2.01-.21-.02-1.42-.14-2.06-1.12-.41-.63-.57-1.57-.26-1.77.45-.29,1.76,1.05,1.97,1.26Z"/><path class="cls-1" d="m27.75,15.39c-.39-.11-2.11-.64-2.77-2.23-.34-.83-.43-2.02,0-2.24.64-.33,2.19,1.62,2.36,1.84.12-.46.68-2.6,1.29-2.57.44.03.82,1.21.78,2.19-.07,1.63-1.3,2.72-1.67,3.01Z"/><path class="cls-1" d="m28.4,21.42c-.21-.06-2.36-.74-2.63-2.33-.06-.38-.07-1.09.31-1.31.43-.25,1.29.19,2.1,1.19.29-1.03.7-2.2,1.11-2.18.32.02.54.77.6,1.18.25,1.64-1.08,3.04-1.49,3.45Z"/><path class="cls-1" d="m28.64,25.83c-1.28.09-2.33-.49-2.63-1.35-.2-.57-.12-1.4.31-1.62.49-.25,1.44.28,2.27,1.46,1.48-2.42,2.09-2.92,2.36-2.81.32.13.22,1.22-.04,1.97-.52,1.48-1.85,2.16-2.26,2.35Z"/><line class="cls-1" x1="30.31" y1="36.77" x2="30.58" y2="41.45"/><polyline class="cls-1" points="31.07 49.92 31.54 74.51 30.54 94.64"/><path class="cls-1" d="m5.65,55.71c-2.14.41-4.07-.06-4.9-1.33-.57-.88-.69-2.24-.2-2.55.49-.31,1.54.52,2.55,1.33,1.21.96,2.05,1.92,2.55,2.55Z"/><path class="cls-1" d="m2.13,53.81c.22.32.62.82,1.27,1.24.92.58,1.83.66,2.24.66.41.54,1.11,1.33,2.18,1.97,1.24.74,2.19.8,3.71,1.24.99.29,2.43.8,4.11,1.75-.78.17-1.76.47-2.82.97-.91.44-1.66.92-2.23,1.36"/><path class="cls-1" d="m9.04,57.1c-1.66-1.61-2.31-3.13-2.6-4.05-.18-.57-.36-1.15-.13-1.32.4-.3,2.07.72,2.73,2.25.59,1.37.16,2.69,0,3.13Z"/><path class="cls-1" d="m7.71,53.68c.26.32.55.76.81,1.31.38.84.49,1.6.53,2.11"/><path class="cls-1" d="m8.42,58.12c-.49-.26-1.25-.6-2.22-.72-1.37-.18-3.24.04-3.34.62-.1.56,1.4,1.61,2.92,1.55,1.5-.07,2.45-1.21,2.64-1.45Z"/><path class="cls-1" d="m4.73,57.84c.48.17,1.18.36,2.02.4.66.03,1.23-.04,1.67-.12"/><path class="cls-1" d="m15.57,60.71c-1.01-.14-2.58-.23-4.35.28-1.16.34-3.28,1.18-3.19,1.83.1.66,2.52,1.23,4.53.51,1.72-.62,2.65-2,3.01-2.62Z"/><path class="cls-1" d="m24.5,64.65c-.49-.47-1.36-1.44-1.66-2.9-.21-1.02-.23-2.64.36-2.85.61-.22,1.94,1.1,2.21,2.6.29,1.6-.71,2.89-.91,3.14Z"/><path class="cls-1" d="m22.17,63.66c-1.12-.09-2.83-.08-4.71.59-1.69.6-3.86,1.85-3.67,2.5.17.6,2.36.69,4.1.18,2.29-.68,3.66-2.37,4.28-3.27Z"/><path class="cls-1" d="m16.81,66.16c.5-.1,1.49-.39,2.39-1.21.49-.45.8-.93,1-1.29"/><path class="cls-1" d="m31.04,71.05c-1.54-1.91-4-4.52-7.61-6.82-2.93-1.86-5.68-2.93-7.78-3.56"/><ellipse class="cls-1" cx="39.2" cy="12.24" rx="1.98" ry="1.16"/><path class="cls-1" d="m37.21,12.24c-.49-.13-2.34-.66-3-2.23-.13-.3-.5-1.18-.07-1.75.32-.44.97-.5,1.32-.46,1.11.12,2.08,1.56,2.49,3.55"/><path class="cls-1" d="m37.21,9.26c-.42-1.31.03-2.54.86-2.93.49-.23,1.22-.22,1.67.18.44.39.44.99.44,1.97,0,.62-.07,1.55-.39,2.67"/><line class="cls-1" x1="35.57" y1="9.58" x2="37.06" y2="11.13"/><line class="cls-1" x1="38.62" y1="7.93" x2="38.62" y2="11.08"/><path class="cls-1" d="m40.18,8.47c.45-1.04,1.49-1.53,2.3-1.27.6.19,1.11.81,1.12,1.44,0,.25-.07.57-.67,1.3-.39.48-1.02,1.14-1.95,1.8"/><line class="cls-1" x1="42.4" y1="8.32" x2="41.18" y2="10.01"/><path class="cls-1" d="m42.15,10.78c.39.01.96.05,1.64.22.79.19,1.19.3,1.47.67.32.43.38,1.06.16,1.54-.41.92-1.74,1.12-2.62.94-1.12-.23-1.72-1.12-1.87-1.35"/><line class="cls-1" x1="41.89" y1="12.79" x2="43.99" y2="12.79"/><path class="cls-1" d="m35.57,11.54c-.12-.04-2.08-.59-3.18.57-.4.42-.84,1.23-.54,1.76.33.58,1.38.52,2.06.48.79-.05,2.18-.28,3.76-1.38"/><line class="cls-1" x1="33.44" y1="13.4" x2="36.31" y2="12.79"/><path class="cls-1" d="m36.31,13.74c-1.23.78-1.8,2.03-1.49,3.01.01.04.32.97,1.05,1.12,1.2.25,2.38-1.83,2.56-2.15.52-.92.69-1.78.76-2.33"/><line class="cls-1" x1="36.5" y1="15.65" x2="37.67" y2="14.2"/><path class="cls-1" d="m39.73,13.4c.31,2.22,1.28,3.66,2.19,3.67.48,0,.97-.39,1.22-.8.37-.6.34-1.41-.08-2.09"/><line class="cls-1" x1="41.05" y1="13.99" x2="41.97" y2="15.24"/><path class="cls-1" d="m38.87,14.81c.11,6.35-.05,13.27-.64,20.68-.43,5.39-1.05,10.48-1.79,15.24-1.09,3.1-2.14,6.63-3,10.55-1.07,4.87-1.63,9.34-1.89,13.24.53,6.93,1.07,13.85,1.6,20.78"/><path class="cls-1" d="m40.38,15.65c.02.21.06.87-.34,1.55-.38.64-.94.92-1.14,1.01"/><ellipse class="cls-1" cx="49.31" cy="19.87" rx="1.25" ry="1.09"/><path class="cls-1" d="m48.05,19.87c-1.89-1.41-2.82-3.05-2.37-4.06.24-.55.94-1.04,1.49-.91.53.12.78.8,1.15,1.82.32.88.47,1.64.54,2.15"/><line class="cls-1" x1="47.02" y1="16.38" x2="47.65" y2="18.55"/><path class="cls-1" d="m48.2,16.38c.13-1.6,1.14-2.58,1.93-2.51.62.06,1.16.77,1.3,1.42.12.55-.06,1-.43,1.89-.32.77-.68,1.37-.96,1.81"/><line class="cls-1" x1="49.66" y1="15.98" x2="49.66" y2="18.83"/><path class="cls-1" d="m51.43,15.98c.55-.62,1.32-.84,1.89-.6.54.23.83.83.83,1.29,0,1.04-1.51,2.11-3.79,2.62"/><path class="cls-1" d="m51.8,17.59c.44-.37.89-.75,1.33-1.12"/><path class="cls-1" d="m53.13,18.17c1.41.1,2.36.85,2.39,1.56.02.57-.54,1.02-.65,1.11-.73.59-1.67.45-2.16.38-1.09-.16-1.84-.75-2.2-1.08"/><path class="cls-1" d="m48.52,20.72c-.33.19-2.33,1.3-4.01.46-.3-.15-1.17-.59-1.26-1.39-.07-.6.34-1.06.44-1.16.58-.62,1.67-.74,2.73-.31h0"/><line class="cls-1" x1="45.82" y1="20.47" x2="47.65" y2="20.47"/><path class="cls-1" d="m47.65,21.13c-1.23,1.75-1.27,3.47-.52,4.1.46.39,1.22.37,1.73.11,1.05-.54,1.52-2.33.8-4.38"/><line class="cls-1" x1="48.32" y1="24.17" x2="48.32" y2="21.91"/><path class="cls-1" d="m49.94,23.61c.46,1.02,1.43,1.53,2.22,1.32.84-.23,1.12-1.22,1.15-1.34.22-.83-.1-1.76-.84-2.41"/><path class="cls-1" d="m50.37,21.69c.17.09.49.3.76.69.26.39.32.77.34.96"/><line class="cls-1" x1="52" y1="19.87" x2="53.3" y2="20.04"/><path class="cls-1" d="m38.41,33.01c.84-2.26,2.49-5.62,5.72-8.56.98-.89,1.96-1.61,2.89-2.19"/><path class="cls-1" d="m41.29,29.79c.63-.71,1.68-1.71,3.24-2.38,1.94-.83,4.52-1.09,4.82-.4.23.53-.95,1.54-1.58,1.98-2.35,1.64-5.3,1.09-6.48.8Z"/><path class="cls-1" d="m39.32,30.89c.3-.21.64-.43,1.03-.64.33-.18.65-.33.95-.46,1.07-.19,2.29-.47,3.61-.92,1.03-.35,1.94-.73,2.75-1.12"/><path class="cls-1" d="m38.54,30.89c-.2-1.63-.71-4.11-2.17-6.77-.59-1.07-1.92-3.5-2.74-3.28-.87.24-1.22,3.45-.06,5.94,1.31,2.8,4.14,3.84,4.96,4.11Z"/><path class="cls-1" d="m34.38,23.25c.12.96.42,2.49,1.32,4.16.93,1.73,2.09,2.85,2.84,3.48"/><path class="cls-1" d="m41.29,40.74c1.39-3.04,3.11-5.07,4.53-6.41,1.07-1.01,2.71-2.56,3.46-2.13.85.49.49,3.47-.93,5.46-2.16,3.01-6.28,3.08-7.06,3.08Z"/><path class="cls-1" d="m36.44,50.72c.29-1.75.95-4.26,2.53-6.88.76-1.26,1.58-2.29,2.33-3.11"/><path class="cls-1" d="m42.71,40.64c.67-1,1.48-2.08,2.44-3.19.85-.99,1.7-1.85,2.5-2.6"/><path class="cls-1" d="m54.17,40.22c-2.36.59-4.45-.28-4.95-1.6-.51-1.34.67-3.02,1.04-3.55.43-.61.75-1.07,1.25-1.21,1.17-.33,2.88,1.14,4.21,3.65"/><path class="cls-1" d="m54.59,35.73c-.55-1.96-.28-3.84.76-4.55.74-.51,2.05-.55,2.84-.58.52-.02.78-.03.97.05,1.52.61.95,5.22.88,5.78"/><path class="cls-1" d="m52.02,37.31c.26.25.76.64,1.48.88.53.17,1,.2,1.32.2"/><path class="cls-1" d="m52.02,38.71c.19.18.56.49,1.12.68.63.21,1.17.16,1.44.12"/><path class="cls-1" d="m58.56,38.07c3.33-3.89,4.53-3.99,5.03-3.75.32.15.27.42,1.07,1.62.99,1.49,1.45,1.66,1.46,2.3.02.85-.78,1.51-1.25,1.9-1.33,1.1-2.93,1.18-3.64,1.16"/><line class="cls-1" x1="56.64" y1="34.04" x2="56.64" y2="37.31"/><line class="cls-1" x1="57.25" y1="34.86" x2="57.25" y2="37.11"/><path class="cls-1" d="m59.71,38.39c.22.06.55.12.96.08.45-.04.79-.18,1-.28"/><path class="cls-1" d="m59.91,39.82c.15.05.57.18,1.08.04.61-.17.92-.62,1-.74"/><circle class="cls-1" cx="57.09" cy="39.5" r=".91"/><path class="cls-1" d="m59.52,40.41c.39.21,1.02.53,1.81.89,1.49.68,1.98.79,2.23,1.31.24.5.07,1-.24,1.94-.47,1.4-.79,2.35-1.58,2.66-1.24.48-2.87-.98-3.6-1.96-1.16-1.56-1.1-3.32-1.06-3.91"/><path class="cls-1" d="m58.21,42.55c.17.4.48.97,1.02,1.52.3.3.59.51.85.67"/><path class="cls-1" d="m59.26,42.55c.13.24.39.66.88,1.02.41.3.8.43,1.05.5"/><path class="cls-1" d="m57.25,43.31c-.4.92-1.2,2.3-2.67,3.08-.37.19-1.23.65-1.74.31-.41-.28-.26-.87-.73-1.16-.45-.26-.84.1-1.2-.12-.6-.38-.27-1.86-.25-1.96.4-1.73,1.99-2.73,2.63-3.08"/><path class="cls-1" d="m53.29,44.08c.09-.37.26-.92.62-1.5.38-.61.82-1.02,1.13-1.27"/><path class="cls-1" d="m54.81,44.08c0-.14.04-.48.27-.83.23-.34.52-.5.65-.56"/><path class="cls-1" d="m52.11,45.54c-3,3.07-6.09,6.45-9.21,10.18-4.43,5.31-8.21,10.48-11.43,15.33"/><path class="cls-1" d="m42.53,54.13c-.52-.83-1.5-2.67-1.23-4.96.23-1.89,1.3-3.95,1.99-3.85.73.11,1.08,2.63.85,4.58-.23,1.92-1.03,3.37-1.62,4.23Z"/><path class="cls-1" d="m43.09,48.08c-.18.56-.35,1.2-.47,1.91-.28,1.62-.23,3.05-.09,4.14-.1.8-.2,1.61-.3,2.41"/><path class="cls-1" d="m45.18,54.88c1.4-1.26,3.7-2.95,6.89-3.78,2.31-.6,5.67-.9,5.96-.06.29.85-2.55,2.88-5.37,3.77-3.07.97-5.85.5-7.49.07Z"/><path class="cls-1" d="m42.9,55.73l2.28-.84c1.5-.61,3.18-1.22,5.04-1.75,1.63-.47,3.16-.82,4.58-1.09"/><path class="cls-1" d="m39.8,61.68c.99-.84,2.61-2,4.85-2.64,2.79-.81,6.4-.78,6.7.21.27.93-2.42,2.59-4.43,3.32-.95.34-2.44.85-4.29.46-1.34-.29-2.29-.92-2.82-1.34Z"/><path class="cls-1" d="m49.26,60c-1.33.39-2.81.76-4.43,1.06-1.82.33-3.51.52-5.02.62-.66.15-1.32.29-1.98.44"/><path class="cls-1" d="m24.63,80.63c.32-.05.81-.16,1.34-.43,1.29-.66,1.83-1.74,2.49-2.68.57-.82,1.51-1.92,3.09-3,3.38-5.05,4.76-6.24,5.28-5.99.49.24.49,1.95-.29,3.08-.31.44-.67.71-1.33,1.1-.85.51-2.08,1.18-3.66,1.81"/><path class="cls-1" d="m40,78.91c-.47.03-1.18.03-2-.17-.89-.22-1.61-.59-3.33-1.82-.84-.6-8.36-7.93-9.15-7.41-.44.29-.11,1.49.07,1.97.71,1.91,2.94,3.17,5.69,3.21"/><line class="cls-1" x1="31.54" y1="74.88" x2="29.89" y2="93.82"/><line class="cls-1" x1="31.54" y1="74.51" x2="34.09" y2="94.64"/></g></svg>