<?xml version="1.0" encoding="UTF-8"?><svg id="Layer_2" xmlns="http://www.w3.org/2000/svg" width="54.98" height="52.3" viewBox="0 0 54.98 52.3"><defs><style>.cls-1{fill:none;stroke:#dbe8bd;stroke-miterlimit:10;stroke-width:.5px;}</style></defs><g id="Layer_1-2"><path class="cls-1" d="m.25,52.3v-2.73h1.41v-9.5h5.01v5.54h2.46v-1.85h1.41l.44-26.11,1.41-.53v-1.14c.38-.06.91-.18,1.48-.47.49-.24.86-.53,1.12-.76.06-4.92.12-9.83.18-14.75-.06,4.92-.12,9.83-.18,14.75.35.26.86.56,1.51.8.52.19.99.28,1.36.32v1.23l1.54.47v27.73l.95-.04v-12.63h2.49v6.96h1.33l.21,3.69,2.07.17.29,3.77h.58v-1.2l1.04-.08v-7.66h4.85v6.3l1.24.12v1.53l.79-.08v-12.8l4.47,2.78v6.3l1.12.04-.17-14.91,8.41.12v21.62l2.07-.04v-4.31l2.28-.04v2.44h1.57"/></g></svg>