<svg width="60" height="63" viewBox="0 0 60 63" fill="none" xmlns="http://www.w3.org/2000/svg">
<path d="M51.1509 0H8.84467C3.9801 0 0 4.1791 0 9.2869V53.7131C0 58.8209 3.9801 63 8.84467 63H51.1553C56.0199 63 60 58.8209 60 53.7131V9.2869C59.9956 4.1791 56.0199 0 51.1509 0ZM50.5826 33.6255H43.4627V60.6736H32.8093V33.6255H27.4804V24.3015H32.8093V18.7061C32.8093 11.1002 35.8165 6.57512 44.3737 6.57512H51.487V15.8968H47.0381C43.7125 15.8968 43.4914 17.204 43.4914 19.6348L43.4627 24.3015H51.5224L50.5826 33.6255Z" fill="#2B3E1E"/>
</svg>
