<?xml version="1.0" encoding="UTF-8"?><svg id="Layer_2" xmlns="http://www.w3.org/2000/svg" width="125.68" height="56.59" viewBox="0 0 125.68 56.59"><defs><style>.cls-1{fill:none;stroke:#221f20;stroke-miterlimit:10;stroke-width:.5px;}</style></defs><g id="Layer_1-2"><path class="cls-1" d="m.15,36.68c2.26-1.4,5.44-3.05,9.48-4.19,5.6-1.58,10.45-1.5,13.58-1.2"/><path class="cls-1" d="m9.55,37.03c.49-.11.77.53,1.29.4.95-.24.97-2.7,1.51-2.71.31,0,.41.81.77.82.55.03.59-1.86,1.86-2.49.44-.22,1.16-.35,1.55-.02.81.69-.29,2.97.16,3.19.39.19,1.45-1.41,1.84-1.19.26.15-.04.97.31,1.17.28.16.66-.25.94-.07.27.17.09.65.27.74.29.14.83-1.08,2.11-1.75.24-.12,1.11-.58,1.46-.29.29.24.28,1.06-1.01,3.59.31-.61,1.08-1.9,2.63-2.64.61-.29,2.05-.84,2.43-.36.62.79-2.05,3.89-1.71,4.18.19.15.96-.75,1.57-.52.4.15.57.73.64,1.25-6.02.92-8.16,1.05-8.23.76-.04-.19.81-.46.76-.67-.1-.41-3.61-.71-6.14.36-.34.15-1.12.51-1.73.18-.51-.27-.43-.75-.84-.98-.93-.53-2.34,1.33-3.07.93-.84-.45-.37-3.64.62-3.87Z"/><path class="cls-1" d="m22.18,35.12c-.18-1.2-.26-2.26,0-2.34.27-.08.72.9.98.81.32-.11-.31-1.62.24-3.26.28-.83.87-1.74,1.35-1.68.54.07.65,1.36,1.04,1.35.32-.01.3-.87.94-1.72.51-.67,1.43-1.34,1.92-1.11.73.35.04,2.52.54,2.72.89.36,4.2-6.12,5.18-5.72.46.19.09,1.78.84,2.12.53.24,1.11-.38,1.38-.17.52.42-1.23,3.13-.84,3.43.4.31,2.43-2.51,3.67-2.02.67.27,1,1.45.87,2.32-.11.74-.55,1.23-.49,1.28.15.12,2.49-3.56,3.55-3.16.64.24.76,1.92.71,2.82-.06,1.05-.39,1.67-.13,1.85.42.29,1.6-1.25,2.19-.94.59.31.22,2.27.07,3.06-.33,1.73-.79,2.24-.44,2.79.42.65,1.31.29,1.98,1.11.38.45.65,1.22.37,1.68-.33.55-1.18.18-3.09.37-2.34.23-3.14.97-4.1.37-.42-.26-.65-.64-1.21-.67-.68-.04-1.13.47-1.28.34-.25-.23,1-1.88.81-2.05-.15-.13-.92.88-2.29,1.21-.08.02-1.47.35-1.78-.17-.35-.57.86-1.77.67-1.95-.16-.15-1.15.65-1.48.91-1.01.81-1.56,1.45-1.72,1.35-.16-.11.29-.87.1-1.01-.2-.15-.74.71-1.68.81-.59.06-.76-.24-1.38-.2-.65.04-1.15.4-1.46.69"/><path class="cls-1" d="m30.49,39.79c-.48-2.78-.35-3.7-.03-3.81.44-.16,1.19,1.15,1.55.98.33-.16-.22-1.31-.1-2.89.1-1.3.65-2.97,1.35-3.03.78-.06,1.55,1.91,1.75,2.42.64,1.63.65,3.1.81,3.09.11,0,.02-.79.44-1.75.07-.17.59-1.36,1.08-1.31.74.07.74,2.92,1.48,2.99.56.06,1.14-1.53,1.35-1.45.24.1-.6,2.25-.07,2.59.4.25,1.27-.69,1.55-.47.34.28-.79,1.91-.47,2.19.39.34,2.6-1.65,2.79-1.45.17.18-1.5,1.82-1.21,2.22.33.44,2.82-1.06,3.09-.67.13.19-.31.72-.84,1.28"/><path class="cls-1" d="m46.16,34.76c2.64.51,6.66,1.33,11.52,2.49.95.23,1.88.46,2.78.68,15.84,3.97,24.36,7.75,38.38,11.92,6.27,1.86,15.4,4.32,26.8,6.49"/><path class="cls-1" d="m.15,4.18C6.02,3.08,14.58,1.75,24.99,1.13c16.97-1.02,29.46.38,37.89,1.24,14.41,1.47,35.19,3.18,62.75,4.2"/><path class="cls-1" d="m.15,19.28l12.36-9.38c.19-.5.54-1.23,1.22-1.86,1.1-1.02,2.28-1.05,3.64-1.47,1.05-.32,2.17-1.11,4.42-2.68C25.11,1.56,26.64-.16,27.47.34c.24.14.42.47.41.76-.02.54-.73.88-1.23,1.19-1.2.75-1.49,1.52-2.31,2.42-2.47,2.71-10.59,7.51-17.61,13.78-.68.6-1.58,1.43-2.62,2.46-1.18,1.44-2.37,2.89-3.55,4.33"/><path class="cls-1" d="m.36,8.14c1.86-.69,3.93-1.59,6.12-2.79,1.52-.83,2.87-1.69,4.08-2.52l-2.06-.02C5.71,4.06,2.93,5.31.15,6.57"/><path class="cls-1" d="m.41,11.41c2.9-2,4.97-3.32,6.37-4.17,1.21-.74,2.27-1.75,3.58-2.29.61-.25,1.57-.58,2.16-1.51.29-.46.41-.91.45-1.24"/><path class="cls-1" d="m.41,12.52c2.23-1.51,10.13-6.85,12.66-8.37,1.14-.68,1.42-.73,2.31-1.38.99-.72,1.52-1.31,2.56-1.53.48-.1,1.28-.17,1.41.12.06.14,0,.42-1.14,1.41-1.05.92-1.93,1.51-2.95,2.2-2.11,1.43-2.28,1.58-2.48,1.77-.99.97-.94,1.37-1.81,2.12-.91.79-1.47.79-2.63,1.38-1.79.9-1.99,1.68-3.89,3.18-.88.7-2.21,1.61-4.05,2.44"/><path class="cls-1" d="m.41,32.83c1.82-2.33,4.66-5.73,8.53-9.46,4.85-4.66,7.66-6.32,12.36-10.51,2.96-2.63,7.02-6.58,11.39-12.06h1.69c-.71,1.04-1.92,2.77-3.53,4.82-6.63,8.44-10.04,9.6-13.33,15.44-1.06,1.89-1.64,3.42-3.42,5.35-.88.95-1.98,1.91-3.17,3.73-.62.95-1.04,1.78-1.3,2.34"/><path class="cls-1" d="m11.03,32.13c1.87-1.51,3.21-3.1,4.19-4.61,1.07-1.65,1-2.1,2.11-3.63,1.49-2.06,2.48-2.46,4.35-4.43,1.75-1.85,1.67-2.34,3.45-4.6,4.57-5.8,6.81-4.77,8.99-8.89,1.12-2.12,1.88-2.9,3.39-4.45.74-.76,1.42-1.35,1.77-1.17.4.21.15,1.37.12,1.52-.32,1.51-1.36,2.1-2.65,3.72-.89,1.11-.49.94-1.68,2.61-1.16,1.62-2.07,2.9-3.61,4.11-1.02.79-1.44.87-2.18,1.72-.84.97-.63,1.24-1.46,2.34-1.19,1.58-1.93,1.41-2.71,2.81-.53.96-.23,1.13-.82,2.13-.65,1.11-1.23,1.28-2.01,2.22-.89,1.07-.91,1.78-1.54,3.22-.48,1.11-1.31,2.63-2.84,4.29"/><path class="cls-1" d="m19.38,31.03c1.19-1.31,2.17-2.45,2.91-3.33,1.49-1.79,2.24-2.7,2.71-3.57.65-1.22.64-1.67,1.39-2.61.8-1.01,1.23-1,2.08-1.95,1.07-1.19.88-1.73,1.78-3.1,1.09-1.67,1.72-1.41,3.47-3.3,1.46-1.59,1.1-1.86,2.74-3.9,1.42-1.76,2.02-1.98,3.67-3.73.94-1,2.24-2.53,3.58-4.65.37.01.75.03,1.12.04-.17,1.79-.76,2.9-1.27,3.58-.83,1.11-1.73,1.49-2.05,2.81-.15.64-.04.97-.36,1.59-.38.73-.93.98-1.45,1.42-.98.82-.76,1.35-1.75,2.87-1.23,1.91-1.91,1.59-3.3,3.7-.53.8-.44.85-1.29,2.21-.84,1.34-1.51,2.22-1.82,2.64-.79,1.08-1.84,2.78-2.9,5.41"/><path class="cls-1" d="m81.82,44.08l.24-3.45c-1.85-5.76-1.68-7.45-1.14-7.88.15-.12.57-.34.66-.79.12-.65-.58-1.13-.42-1.52.15-.38.81-.02,1.31-.4.94-.71-.01-2.95,1.02-3.84.37-.32.62-.15,1.02-.6.36-.4.33-.73.72-1.46.3-.57.58-1.1.78-1.06.33.06.36,1.67.44,6.01.04,2.05.07,3.48.37,3.54.26.04.43-1.36.95-1.4.42-.04.92.8,1.11,1.61.53,2.28-1.39,4.57-1,4.91.23.2.91-.63,1.19-.41.38.3-.69,2.05-.82,4.41-.06,1.13.11,2.07.28,2.72.09.17.22.49.23.91.01.58-.23,1-.34,1.16"/><path class="cls-1" d="m83.02,41.73c-.11-.02-.28-.06-.45-.18-.41-.29-.5-.8-.51-.91"/><path class="cls-1" d="m88.72,32.38c.36-2.39,1.07-3.96,1.8-3.97.17,0,.56.07,1.06,1.01-.11-.28-.54-1.44-.09-2.72.03-.08.53-1.48,1.04-1.41.8.11,1.82,3.96.85,7.16-.21.7-.7,1.97-.41,2.19.22.16.63-.46.99-.31.69.3-.03,3,.88,3.55.32.2.48-.09.9.05.47.17,1.69,2.35,1.18,5.07-.34,1.79-1.27,2.91-1.48,3.16-.94,1.1-2.01,1.62-2.57,1.84"/><path class="cls-1" d="m60.46,37.94c3.07-1.16,6.56-2.3,10.46-3.26,3.6-.89,6.96-1.5,10-1.91"/><path class="cls-1" d="m93.69,30.88c5.4-.72,11.29-1.28,17.61-1.54,5.06-.21,9.85-.22,14.34-.07"/><path class="cls-1" d="m73.18,10.13c.4-.58.22-1.27-.18-1.48-.27-.14-.65-.07-.96.16-.28-.24-.88-.67-1.69-.71-1.29-.07-2.49.84-2.4,1.19.07.26.83.13,2.46.32,1.18.13,2.14.36,2.76.52Z"/><path class="cls-1" d="m91.29,17.92c.03-.24-.29-.44-.37-.5-.49-.32-1.22-.23-1.87.25-.35-.61-.66-.98-.9-.92-.26.06-.18.59-.55,1.05-.61.75-1.9.61-1.89.67,0,.06,1.2-.06,2.67.1.42.05.43.07.67.07,1.01.03,2.2-.28,2.24-.72Z"/><path class="cls-1" d="m100.83,14.09c-.07-.45.97-1.21,1.74-1.03.61.15.63.78,1.28.9.66.13,1.04-.47,1.53-.28.23.09.49.35.62,1.12-.59.08-1.47.15-2.52.06-.83-.07-2.56-.23-2.65-.77Z"/></g></svg>