<?xml version="1.0" encoding="UTF-8"?><svg id="Layer_2" xmlns="http://www.w3.org/2000/svg" width="117.94" height="61.04" viewBox="0 0 117.94 61.04"><defs><style>.cls-1{fill:none;stroke:#dbe8bd;stroke-miterlimit:10;stroke-width:.5px;}</style></defs><g id="Layer_1-2"><polyline class="cls-1" points="30.42 8.45 30.42 59.89 36.38 59.89"/><line class="cls-1" y1="59.89" x2="30.42" y2="59.89"/><line class="cls-1" x1="43.09" y1="59.89" x2="117.94" y2="60.79"/><path class="cls-1" d="m58.75,60.79c.16-20.26.31-40.52.47-60.78"/><line class="cls-1" x1="87.67" y1="8.45" x2="88.27" y2="60.43"/><path class="cls-1" d="m24.45,16.05c.79-.25,1.85-.68,2.97-1.44,1.51-1.03,2.46-2.23,3-3.03.17.57.61,1.71,1.67,2.75,1.32,1.28,2.82,1.63,3.4,1.73"/><path class="cls-1" d="m38.26,26.39c-.98-.18-2.95-.67-4.88-2.23-1.66-1.34-2.54-2.86-2.96-3.73-.57.97-1.75,2.69-3.86,4.09-1.81,1.2-3.54,1.67-4.6,1.87"/><path class="cls-1" d="m23.83,29.69c.23-.06,1.82-.52,2.58-2.15.67-1.43.24-2.75.14-3.02"/><path class="cls-1" d="m33.38,24.16c-.07.39-.27,1.83.57,3.3.9,1.58,2.37,2.11,2.73,2.23"/><path class="cls-1" d="m19.01,35.1c1.35-.09,3.91-.43,6.64-2.02,2.5-1.45,4.01-3.29,4.77-4.37.45.95,1.55,2.92,3.8,4.45,2.91,1.98,5.88,1.98,6.89,1.93"/><path class="cls-1" d="m21.44,38.71c.71-.43,1.87-1.26,2.86-2.69.78-1.13,1.15-2.21,1.34-2.94"/><path class="cls-1" d="m34.99,33.65c.17.66.58,1.86,1.58,3.05.95,1.13,1.99,1.72,2.6,2.02"/><path class="cls-1" d="m17.91,43.38c1.47-.01,4.11-.23,7.03-1.61,2.75-1.3,4.53-3.05,5.48-4.14.78.97,1.94,2.17,3.56,3.23,3.36,2.2,6.74,2.5,8.38,2.53"/><path class="cls-1" d="m19.96,48.16c.43-.09,2.64-.58,4.01-2.69,1.01-1.56,1-3.14.96-3.71"/><path class="cls-1" d="m35.25,41.6c.18.83.62,2.26,1.72,3.72,1.23,1.62,2.67,2.46,3.45,2.84"/><path class="cls-1" d="m18.19,52.37c1.73-.23,4.3-.78,7.11-2.23,2.31-1.2,3.99-2.6,5.12-3.71.63,1.01,1.82,2.61,3.81,3.91,3.26,2.13,6.59,2.1,7.82,2.03"/><path class="cls-1" d="m18.64,56.48c.91-.27,2.8-.97,4.47-2.74,1.27-1.35,1.89-2.75,2.18-3.6"/><path class="cls-1" d="m35.84,51.23c.05.53.27,2.05,1.48,3.38,1.69,1.84,3.98,1.88,4.37,1.88"/><path class="cls-1" d="m53.53,8.45c.82-.45,1.79-1.07,2.79-1.93,1.32-1.14,2.24-2.31,2.86-3.24.39.75,1.01,1.73,1.95,2.71,1.24,1.29,2.54,2.04,3.42,2.46"/><path class="cls-1" d="m50.6,18.06c.95-.09,2.68-.37,4.46-1.49,2.62-1.63,3.71-4.01,4.06-4.9.21.74.89,2.82,2.93,4.46,2.21,1.78,4.6,1.91,5.34,1.92"/><path class="cls-1" d="m52.7,21.65c.37-.14,2.01-.84,2.84-2.67.6-1.32.45-2.52.37-3"/><path class="cls-1" d="m62.06,16.14c.01.6.11,1.63.66,2.76.78,1.59,2,2.43,2.54,2.76"/><path class="cls-1" d="m47.63,26.9c1.39-.05,3.99-.32,6.78-1.84,2.33-1.26,3.82-2.86,4.65-3.89.75,1,2.05,2.46,4.06,3.67,2.92,1.76,5.75,2.02,7.13,2.06"/><path class="cls-1" d="m49.9,30.97c.69-.36,1.99-1.13,3.06-2.62.93-1.29,1.29-2.54,1.44-3.28"/><path class="cls-1" d="m68.14,30.7c-.65-.27-2.11-.98-3.24-2.58-.85-1.21-1.14-2.39-1.25-3.06"/><path class="cls-1" d="m46.44,35.34c1.27.05,3.98-.02,6.91-1.53,3.23-1.66,4.92-4.12,5.58-5.2.62,1.07,2.15,3.38,5.1,5.03,3.21,1.8,6.26,1.78,7.48,1.71"/><path class="cls-1" d="m48.72,40.2c.55-.18,2.41-.88,3.63-2.84.91-1.47,1-2.9,1.01-3.54"/><path class="cls-1" d="m69.27,39.98c-.8-.36-2.16-1.09-3.41-2.49-1.4-1.57-1.97-3.19-2.21-4.07"/><path class="cls-1" d="m47.19,44.44c1.34-.02,4.63-.24,7.83-2.49,2.06-1.44,3.26-3.15,3.91-4.24.61,1.09,1.86,2.95,4.1,4.46,3.25,2.21,6.57,2.3,7.83,2.27"/><path class="cls-1" d="m47.45,48.71c.92-.29,2.8-1.02,4.42-2.83,1.04-1.16,1.6-2.35,1.89-3.15"/><path class="cls-1" d="m70.54,48.71c-.97-.32-2.74-1.05-4.37-2.69-1.19-1.2-1.86-2.44-2.24-3.29"/><path class="cls-1" d="m50.61,50.74c1.25-.28,3.14-.86,5.11-2.19,1.43-.96,2.45-2,3.15-2.83.63.81,1.58,1.85,2.93,2.79,2.12,1.48,4.2,2.01,5.44,2.23"/><path class="cls-1" d="m53.35,53.97c.3-.15,1.72-.88,2.32-2.58.46-1.31.17-2.45.04-2.84"/><path class="cls-1" d="m64.77,53.71c-.47-.26-1.33-.81-2.01-1.84-.94-1.41-.98-2.83-.96-3.37"/><path class="cls-1" d="m82.28,16.14c.8-.33,2.04-.97,3.25-2.13,1.13-1.09,1.8-2.21,2.17-2.97.4.76,1.1,1.9,2.29,2.97,1.36,1.23,2.74,1.83,3.59,2.13"/><path class="cls-1" d="m79.35,26.11c.87,0,2.69-.14,4.53-1.29,3.03-1.89,3.78-5.07,3.92-5.72.16.68.96,3.8,3.98,5.69,1.87,1.17,3.71,1.31,4.59,1.32"/><path class="cls-1" d="m81.24,29.58c.32-.1,1.96-.66,2.81-2.38.59-1.21.48-2.34.41-2.77"/><path class="cls-1" d="m90.89,24.15c.04.58.21,1.85,1.08,3.15.94,1.4,2.18,2.04,2.71,2.28"/><path class="cls-1" d="m76.64,35c1.28-.05,3.59-.31,6.12-1.62,2.74-1.42,4.35-3.37,5.11-4.43.75,1.04,2.1,2.63,4.25,3.93,2.95,1.79,5.78,2.07,7.17,2.12"/><path class="cls-1" d="m78.56,38.8c.59-.24,1.9-.88,2.94-2.31.91-1.24,1.17-2.48,1.26-3.11"/><path class="cls-1" d="m92.79,33.27c.2.76.62,1.97,1.53,3.21.94,1.29,2,2.06,2.68,2.48"/><path class="cls-1" d="m75.32,43.43c1.79-.22,4.38-.74,7.24-2.12,2.42-1.17,4.23-2.56,5.45-3.67.9,1.05,2.36,2.51,4.5,3.7,3.21,1.79,6.25,2.06,7.83,2.08"/><path class="cls-1" d="m77.53,47.96c.61-.22,2.43-.98,3.67-2.94.93-1.47,1.07-2.9,1.1-3.58"/><path class="cls-1" d="m93.43,41.82c.06.65.27,2.15,1.36,3.62,1.22,1.66,2.8,2.3,3.4,2.51"/><path class="cls-1" d="m75.91,52.19c1.71-.21,4.41-.75,7.3-2.35,2.23-1.23,3.83-2.66,4.89-3.77.79,1.09,2.56,3.21,5.59,4.66,2.79,1.34,5.32,1.47,6.64,1.45"/><path class="cls-1" d="m76.08,56.12c.39,0,2.86,0,4.66-1.98,1.39-1.53,1.54-3.3,1.56-3.82"/><path class="cls-1" d="m93.04,50.31c.18.72.7,2.44,2.25,3.96,1.64,1.61,3.47,2.07,4.2,2.21"/></g></svg>