<?xml version="1.0" encoding="UTF-8"?><svg id="Layer_2" xmlns="http://www.w3.org/2000/svg" width="124.36" height="290.86" viewBox="0 0 124.36 290.86"><defs><style>.cls-1{fill:none;stroke:#231f20;stroke-miterlimit:10;}</style></defs><g id="Layer_1-2"><path class="cls-1" d="m24.58,106.06c1.8,1.1,4.64,2.54,8.31,3.15,4.37.73,6.88-.23,9.29-.15,3.72.12,8.97,2.78,15.27,14.59-1.93,1.19-5.81,3.2-10.97,3.31-7.04.15-14.36-3.28-18.5-9.59-2.91-4.44-3.35-8.94-3.4-11.3Z"/><path class="cls-1" d="m24.58,106.06c3.87,4.91,7.75,7.68,10.63,9.32,2.34,1.33,3.94,1.87,8.35,3.75,5.19,2.21,9.33,4.18,12.07,5.52"/><path class="cls-1" d="m26.82,115.36c1.15.65,2.8,1.42,4.9,1.87,3.11.66,5.72.32,7.26-.01"/><path class="cls-1" d="m37.57,122.03c1.33.15,2.96.22,4.8.07,2.19-.18,4.04-.63,5.47-1.09.03-1.51-.05-3.36-.4-5.42-.38-2.21-.96-4.08-1.53-5.55"/><path class="cls-1" d="m51.58,116.83c.46.69,1.05,1.73,1.45,3.09.44,1.51.47,2.81.42,3.68"/><path class="cls-1" d="m45.86,124.07c.54.09,1.53.19,2.7-.13,1.3-.35,2.16-1.04,2.58-1.42"/><path class="cls-1" d="m60.95,120.22c-.62-2.84-1.33-8.31,1.67-12.76,3.39-5.03,9.68-6.02,18.66-7.44,4.63-.73,10.52-1.21,17.4-.71-2.22,1.6-5.57,4.11-9.49,7.42-6.66,5.62-8.18,7.82-11.88,9.97-3.26,1.9-8.42,3.87-16.36,3.52Z"/><path class="cls-1" d="m64.81,105.03c-1.54-1.02-3.79-2.23-6.69-2.97-5.63-1.43-10.38-.22-12.57.5,2.37,2.17,3.94,4.2,4.94,5.68,1.85,2.72,2.25,4.25,4.07,5.8,1.96,1.66,4.24,2.23,5.87,2.44"/><path class="cls-1" d="m91.08,101.89c-4,.76-9.81,2.34-16.09,5.88-6.84,3.86-11.45,8.47-14.2,11.69"/><path class="cls-1" d="m74.63,103.13c-.55.4-1.81,1.43-2.53,3.25-.58,1.48-.54,2.78-.47,3.45.91.42,2.76,1.11,5.16.98,2.76-.15,4.73-1.3,5.57-1.87"/><path class="cls-1" d="m66.75,107.51c-.41.73-.85,1.67-1.19,2.78-.58,1.92-.63,3.61-.57,4.79.87.34,2.47.82,4.49.68,1.65-.12,2.93-.61,3.71-.98"/><path class="cls-1" d="m82.57,101.39c-.37.29-.93.8-1.39,1.58-.51.85-.69,1.65-.76,2.14.07.18.56,1.41,1.9,1.89,1.68.59,3.09-.57,3.15-.62"/><path class="cls-1" d="m45.55,102.56c2.44.6,5.83,1.73,9.42,3.99,2.54,1.6,4.49,3.33,5.92,4.8"/><path class="cls-1" d="m53.22,101.4c.2.11,1.26.73,1.62,2.06.4,1.43-.31,2.57-.42,2.75-.51.31-1.44.78-2.71.92-1.03.11-1.88-.04-2.41-.18"/><path class="cls-1" d="m59.29,102.4c.28.95.56,2.23.61,3.78.05,1.57-.15,2.89-.37,3.86-.89.5-2.23,1.13-3.96,1.44-1.16.21-2.18.23-2.99.18"/><path class="cls-1" d="m62.62,93.46c-1.11-.56-2.55-1.54-3.35-3.2-.66-1.37-.27-1.95-.75-3.52-1.05-3.45-4.15-4.7-3.75-5.48.29-.57,2.21-.41,3.87.35,2.24,1.02,2.88,2.65,4.9,5.42,3.52,4.81,4.84,4.35,6.06,7.27.61,1.46,1.26,3.93.52,7.61"/><path class="cls-1" d="m62.84,103.87c-1.87-4.77-1.45-7.68-.66-9.48.5-1.14,1.34-2.55,1.39-4.7.04-1.68-.43-3.08-.84-4"/><path class="cls-1" d="m77.9,120.26c6.21-6.6,12.12-8.6,15.35-9.33,3.53-.79,6.91-.75,13.6-.66,4.5.06,8.22.32,10.82.55-2.51.78-6.34,2.1-10.82,4.2-6.64,3.13-8.45,5.05-12.43,6.29-3.48,1.08-8.84,1.7-16.52-1.06Z"/><path class="cls-1" d="m79.16,118.99c3.92.27,6.99-.16,9.05-.59,7.2-1.52,10.6-4.91,17.98-5.11,1.75-.05,3.19.1,4.1.22"/><line class="cls-1" x1="89.89" y1="115.03" x2="85.46" y2="119.07"/><line class="cls-1" x1="97.35" y1="112.69" x2="93.72" y2="116.72"/><line class="cls-1" x1="104.59" y1="111.67" x2="102.34" y2="113.71"/><line class="cls-1" x1="60.95" y1="120.22" x2="57.44" y2="123.65"/><path class="cls-1" d="m53.36,126.48c-.46.17-1.12.49-1.62,1.12-.57.72-.68,1.5-.8,3.73-.06,1.12-.11,2.36-.15,3.73"/><path class="cls-1" d="m55.39,127.22c-.55.26-1.15.67-1.55,1.33-.77,1.29-.34,2.62-.24,4.88.04.96.04,2.35-.23,4.07"/><path class="cls-1" d="m51.13,136.04l21.07.34,6.11,11.57c-.25-1.68-.29-3.94.92-5.92,1.69-2.75,4.22-2.28,6.69-5.08,2.01-2.27,3.62-6.27,2.31-9.01-.76-1.57-1.96-1.64-6.85-5.1-1.52-1.08-2.73-2-3.48-2.59-1.13-.13-2.3-.23-3.52-.3-2.39-.14-4.63-.13-6.7-.04"/><path class="cls-1" d="m59.99,121.16c4.65.62,7.76.79,9.79.83,1.47.03,2.94.2,4.42.18.91,0,1.61.03,2.2.09.05,0,.94.1,1.79.28,2.03.42,3.88,1.31,4.69,1.73-.87-.09-2.21-.19-3.85-.2-4.29-.03-5.28.59-5.68.89-1.04.78-1.52,1.88-1.75,2.6-3.62.65-8.36,1.1-13.84.61-3.19-.29-6.03-.84-8.46-1.47"/><path class="cls-1" d="m61.25,128.37c.5-1.04,1.25-2.34,2.33-3.68,1-1.23,2.01-2.17,2.87-2.86"/><path class="cls-1" d="m64.81,128.32c.36-.84.87-1.82,1.59-2.84,1.14-1.62,2.4-2.75,3.38-3.5"/><path class="cls-1" d="m80.42,124.15c1.06.06,2.11.13,3.17.19"/><path class="cls-1" d="m78.41,139.08c-1.77-2.66-1.74-4.63-1.59-5.62.17-1.12.59-1.8,2.49-5.03,1.12-1.92,2-3.42,2.44-4.19"/><path class="cls-1" d="m74.33,130.47c.35-.59,1-1.5,2.09-2.29,1.56-1.13,3.14-1.36,3.87-1.43.64.07,1.81.32,2.76,1.23,1.55,1.48,1.88,4.13.75,6.58"/><path class="cls-1" d="m74.73,135.25c-.06-.28-.22-1.23.3-2.19.78-1.45,2.41-1.64,2.57-1.66.62-.17,1.68-.35,2.37.21.54.44.65,1.17.6,3.99-.02,1.45-.08,2.75-.14,3.89"/><path class="cls-1" d="m77.9,100.56c-5.12-32.8-10.24-65.59-15.36-98.39-1.51,4.73-3.64,11.81-5.8,20.5-4.05,16.3-5.77,27.96-6.95,36.41-1.69,12.09-4.84,29.2-11.29,50.28.73.84,1.68,2.12,2.42,3.86.91,2.15,1.11,4.07,1.14,5.29"/><path class="cls-1" d="m59.07,128.27c-.03-11.18.03-22.47.19-33.87.43-31.61,1.56-62.37,3.29-92.23"/><path class="cls-1" d="m84.85,125.16c5.47.18,10.1.42,13.67.65,4.42.28,5.49.41,6.83,1.19,4.52,2.62,5.55,8.76,6.09,11.95.6,3.54.39,6.65,0,9.01-.86-.99-2.3-2.67-4.08-4.78-3.33-3.93-3.7-4.43-4.75-5.05-2.57-1.51-3.97-.63-7.65-1.71-1.7-.5-4.08-1.47-6.71-3.57"/><path class="cls-1" d="m91.08,126.75c1.86.08,6.9.55,11.67,4.25,5.87,4.56,7.24,10.85,7.55,12.47"/><path class="cls-1" d="m96.89,133.52c-.67-.56-1.73-1.59-2.52-3.19-.66-1.33-.89-2.55-.98-3.35"/><path class="cls-1" d="m101.64,135.11c-.63-.64-1.46-1.63-2.15-3-.75-1.47-1.06-2.81-1.2-3.73"/><line class="cls-1" x1="95.53" y1="127.44" x2="97.79" y2="126.75"/><path class="cls-1" d="m101.71,128.7c.74.08,2.23.35,3.71,1.41,1.07.77,1.72,1.65,2.08,2.23"/><path class="cls-1" d="m38.51,134.21c1.42-.92,3.73-2.09,6.48-1.88,3.41.26,5.56,2.49,9.43,6.19,2.41,2.3,6.14,5.8,11.05,10.13-3.41-.12-6.23-.34-8.21-.53-7.43-.71-11.25-1.69-14.69-3.24-3.06-1.38-3.98-2.38-4.5-3.38-1.55-2.94,0-6.39.44-7.28Z"/><path class="cls-1" d="m43.3,126.75c-1,.56-2.47,1.55-3.84,3.16-1.16,1.36-1.85,2.69-2.26,3.67-.85-.44-1.99-1.19-2.95-2.44-2.72-3.53-1.62-7.95-1.45-8.63"/><path class="cls-1" d="m45.28,126.95c-.97.69-2.26,1.77-3.44,3.36-.81,1.09-1.37,2.15-1.74,3.01"/><path class="cls-1" d="m65.47,148.64c-3.62-.33-6.17-1.34-7.83-2.21-2.27-1.19-3.12-2.22-5.46-3.21-2.65-1.12-5.1-1.29-6.74-1.26"/><path class="cls-1" d="m42.49,137.85c.1-.23.9-1.91,2.84-2.42,2.17-.57,3.83.82,3.97.94"/><path class="cls-1" d="m44.52,140.47c.25-.31,1.46-1.73,3.55-1.98,2.55-.31,4.28,1.36,4.5,1.58"/><path class="cls-1" d="m38.07,141.49c-1.27,2.37-3.45,5.56-7.15,7.79-2.84,1.71-5.2,2.01-9.21,2.91-3.44.77-8.31,2.03-14.18,4.12,1.87-2.83,4.35-6.5,7.37-10.73,4.88-6.84,6.2-8.17,8.19-9.37.89-.54,7.54-4.42,12.93-1.66.83.43,1.45.91,1.85,1.28,1.29.21,3.07.7,4.62,2.03,1.28,1.1,1.71,2.17,2.95,4.11.82,1.28,2.07,3.05,3.86,5.03"/><line class="cls-1" x1="37.2" y1="133.58" x2="36.72" y2="134.95"/><path class="cls-1" d="m33.88,137.85c-2.22,1.33-4.47,2.73-6.73,4.2-7.21,4.67-13.74,9.48-19.62,14.26"/><path class="cls-1" d="m23.82,139.06l7.78.18c-.06.78-.24,1.93-.79,3.22-.62,1.44-1.46,2.44-2.03,3.03"/><path class="cls-1" d="m18.32,145.3c2.7-.93,5.41-1.85,8.11-2.78.05.5.08,1.55-.43,2.72-.55,1.27-1.44,1.99-1.84,2.28"/><path class="cls-1" d="m17.4,150.71c.51-.33,1.19-.84,1.84-1.62.85-1.03,1.26-2.05,1.47-2.71"/><path class="cls-1" d="m25.64,151.32c-2.88,6.56-4.84,12.09-6.12,15.98-2.23,6.8-4.86,16.23-4.24,16.45.15.05.46-.45.7-.87,1.85-5.47,3.89-11.11,6.14-16.92,2.06-5.3,4.17-10.38,6.29-15.24"/><path class="cls-1" d="m22.8,158.17c-1.88.33-6.3,1.38-10.05,5.14-6.47,6.48-5.37,15.4-5.22,16.53.86-.13,2.8-.32,4.99.57,1.77.72,2.9,1.83,3.46,2.46"/><path class="cls-1" d="m24.9,159.01c3.51-.17,11.62-.03,17.69,5.45,3.48,3.15,5.28,7.14,7.23,11.48,1.93,4.29,2.97,8.09,3.56,10.79-1.41-1.16-3.74-2.94-6.89-4.71-5.56-3.11-8.48-3.25-12.85-5.97-2.05-1.27-4.97-3.45-7.92-7.23-.27-3.27-.54-6.54-.82-9.81Z"/><path class="cls-1" d="m17.83,177.51c1.19-.88,2.52-2,3.87-3.42,1.79-1.88,3.09-3.73,4.02-5.28"/><path class="cls-1" d="m21.77,169.97c.21-.21.71-.76.88-1.62.24-1.25-.4-2.2-.53-2.39"/><path class="cls-1" d="m11.29,178.57c1-2.48,2.31-5.27,4.04-8.21,2.04-3.47,4.18-6.35,6.14-8.65"/><path class="cls-1" d="m13.38,167.96c.62-.77,1.71-1.94,3.41-2.83,1.01-.53,1.96-.81,2.7-.97"/><path class="cls-1" d="m13.73,176.34c.32-.4.77-1.05,1.04-1.95.44-1.42.21-2.63.07-3.19-.55-.05-1.52-.05-2.58.41-2.05.88-2.83,2.78-2.99,3.2"/><path class="cls-1" d="m24.9,159.01c.75.66,1.86,1.63,3.23,2.78,6.02,5.05,10.47,8.13,12.18,9.4,3.62,2.69,8.38,7.27,13.06,15.53"/><path class="cls-1" d="m38.29,175.72c-.91-.75-2.56-2.32-3.62-4.87-.76-1.83-.92-3.47-.94-4.53,1.12.02,2.74.18,4.56.85,1.36.49,2.42,1.12,3.2,1.66"/><path class="cls-1" d="m44.14,178.08c-.64-.64-1.4-1.52-2.09-2.64-.99-1.62-1.48-3.15-1.74-4.25.79.03,2.25.2,3.76,1.11.78.47,1.35,1.01,1.74,1.46"/><path class="cls-1" d="m30.64,172.1c-.61-1.25-1.25-2.83-1.74-4.73-.55-2.15-.73-4.06-.77-5.57,1.14,0,2.73.14,4.52.7,1.56.48,2.79,1.12,3.69,1.67"/><path class="cls-1" d="m7.53,179.84c-1.34.61-3.22,1.7-4.7,3.68-1.94,2.58-2.26,5.42-2.32,10.29-.05,4.02.08,9.26.76,15.45,2.35-4.59,4.79-7.84,6.56-9.94,2.21-2.63,3.6-3.72,5-6.23,1.96-3.51,2.39-6.99,2.45-9.33"/><path class="cls-1" d="m14.61,181.61c-2.03,1.74-4.57,4.3-6.86,7.84-3.45,5.34-4.75,10.48-5.29,13.69"/><path class="cls-1" d="m3.91,189.38c.39-.43,1.12-1.11,2.25-1.59,1.33-.57,2.52-.55,3.11-.5"/><path class="cls-1" d="m11.73,184.37c.29,1.34.53,3.04.51,5.01-.02,2.31-.37,4.25-.75,5.72"/><path class="cls-1" d="m.5,197.5c.46-.76,1.25-1.88,2.55-2.9.99-.78,1.94-1.25,2.66-1.53.29.14,1.72.88,2.33,2.62.64,1.81-.08,3.35-.22,3.62"/><line class="cls-1" x1="4.71" y1="199.02" x2="4.71" y2="201.7"/><path class="cls-1" d="m16.74,180.63c7.88,5,11.21,10.34,12.79,14.13,1.13,2.72,1.35,4.58,3.12,13.12,1.27,6.08,2.38,11.01,3.12,14.21-4.87-4.49-9.07-7.84-12.03-10.07-4.12-3.12-5.86-4.11-7.5-6.48-3.26-4.71-3.08-10.46-2.45-14.49"/><path class="cls-1" d="m16.38,181.7c.57,3.47,1.48,7.39,2.92,11.58,3.15,9.17,7.66,16.14,11.4,20.93"/><line class="cls-1" x1="17.83" y1="202.1" x2="18" y2="189.08"/><path class="cls-1" d="m17.39,186.72c1.04.4,2.43,1.06,3.86,2.18,1.87,1.46,3.01,3.08,3.65,4.16"/><line class="cls-1" x1="22.7" y1="207.57" x2="22.81" y2="201.7"/><path class="cls-1" d="m20.14,195.59c.97.1,2.75.43,4.63,1.59,2.04,1.27,3.15,2.9,3.65,3.75"/><path class="cls-1" d="m24.28,204.49c.32-.11,1.9-.63,3.53.19,2.28,1.14,2.49,3.79,2.5,3.9"/><line class="cls-1" x1="27.81" y1="213.27" x2="27.81" y2="210.25"/><path class="cls-1" d="m37.4,142.66c.25,4.24.96,9.37,2.67,14.98.76,2.49,1.62,4.77,2.51,6.81"/><path class="cls-1" d="m37.61,178.09c-.19,2.69-.21,5.85.14,9.37.25,2.54.66,4.85,1.12,6.89,1.09-2.32,2.73-5.16,5.2-8.01,1.17-1.35,2.34-2.49,3.44-3.45"/><path class="cls-1" d="m44.05,180.75c-.43.75-.91,1.77-1.24,3.04-.48,1.85-.43,3.45-.31,4.49"/><path class="cls-1" d="m52.3,147.52c1.2,8.21,2.21,16.99,2.91,26.31.62,8.2.94,16.02,1.03,23.43.24-.43.69-1.08,1.47-1.6.28-.18.54-.32.79-.42.53-6.6.31-11.88.04-15.35-.67-8.66-2.26-13.61-3.14-25.48-.21-2.83-.31-5.13-.37-6.53"/><path class="cls-1" d="m44.05,165.94c.03-.17.69-3.88,4.15-5.24,2.94-1.15,5.52.31,5.84.5"/><path class="cls-1" d="m55.04,171.64c-.67.54-1.55,1.4-2.34,2.63-1.06,1.68-1.43,3.28-1.57,4.25.37.19.98.45,1.77.51,1.22.1,2.15-.3,2.56-.51"/><path class="cls-1" d="m48.39,172.85c.03-1.12.25-4.08,2.38-6.81,1.2-1.53,2.56-2.44,3.47-2.94"/><path class="cls-1" d="m55.66,157.54c.45.55,1.17,1.33,2.19,2.06,2.58,1.85,5.1,2,6.34,2.28,3.95.91,6.07,5.92,8.4,11.42,1.79,4.23,4.16,11.34,4.42,20.92-3.69-2.75-8.68-7.14-13.19-13.63-3.46-4.99-5.61-9.74-6.96-13.47"/><path class="cls-1" d="m56.17,162.24c1.38.2,3.17.6,5.14,1.41,1.73.71,3.11,1.55,4.17,2.29"/><path class="cls-1" d="m74.5,189.88c-3.34-4.24-7.08-9.95-10.09-17.17-1.34-3.21-2.34-6.26-3.09-9.06"/><path class="cls-1" d="m62.56,174.26c-.22-.93-.42-2.02-.52-3.24-.14-1.72-.04-3.22.12-4.44"/><path class="cls-1" d="m63.49,170.42c.38-.08,1.95-.34,3.56.6,1.64.96,2.17,2.51,2.28,2.87"/><path class="cls-1" d="m67.9,183.55c-.36-.49-1.06-1.56-1.22-3.09-.11-1.01.06-1.85.21-2.37"/><path class="cls-1" d="m67.9,175.89c.8.4,1.99,1.12,3.13,2.36,1.04,1.12,1.64,2.24,1.99,3.02"/><line class="cls-1" x1="71.77" y1="188.29" x2="71.6" y2="185.94"/><path class="cls-1" d="m58.49,179.33c1.5.02,3.01.04,4.51.06-1.5-.02-3.01-.04-4.51-.06Z"/><path class="cls-1" d="m56.24,197.25c-.09,2.17-.18,5.14-.22,8.67-.05,5.78.12,6.92.63,8.16,1.16,2.87,3.03,3.71,6.32,6.73,2.01,1.85,4.77,4.71,7.57,8.87.32-6.19.12-11.39-.17-15.27-.7-9.23-1.97-11.68-3.11-13.25-2.61-3.6-6.38-5.19-8.77-5.93"/><path class="cls-1" d="m66.42,219.72c-.96-4.31-2.08-7.91-3.08-10.69-1.73-4.84-3.04-7.14-5.11-9.12-.78-.75-1.51-1.29-2.02-1.65"/><path class="cls-1" d="m60.32,200.08c.9.23,2.02.62,3.2,1.28,2.23,1.25,3.62,2.87,4.38,3.93"/><path class="cls-1" d="m64.11,205.92c.68.33,1.71.94,2.7,2.01,1.14,1.25,1.67,2.54,1.92,3.29"/><path class="cls-1" d="m58.82,211.76c-.19-1.59-.29-3.57-.08-5.82.16-1.75.47-3.29.82-4.57"/><path class="cls-1" d="m63.49,215.97c-.49-1.05-1.07-2.57-1.34-4.48-.32-2.19-.11-4.03.12-5.25"/><path class="cls-1" d="m64.98,219.72c-.15-.53-.3-1.25-.31-2.12,0-1.21.27-2.18.51-2.79"/><path class="cls-1" d="m56.19,198.75c-1.23.04-3.06.26-5.01,1.16-4.36,2.03-6.25,6.05-7.14,8.01-.83,1.85-1.47,4-1.89,13.26-.2,4.41-.24,8.06-.24,10.59,5.06-5.6,10.12-11.2,15.18-16.8"/><path class="cls-1" d="m56.2,200.55c-1.73,1.63-3.66,3.77-5.42,6.51-4.36,6.79-5.32,13.56-5.54,17.39"/><path class="cls-1" d="m42.42,216.39c.77-.94,1.75-2,2.97-3.07,1.15-1,2.27-1.79,3.25-2.41"/><path class="cls-1" d="m46.02,208.22c.43-.58,1.31-1.61,2.77-2.38,1.45-.77,2.79-.92,3.51-.95"/><path class="cls-1" d="m47.52,222.31c.28-1.17.52-2.59.59-4.23.09-2.03-.1-3.78-.35-5.15"/><path class="cls-1" d="m50.39,218.62c.26-1.43.48-3.04.58-4.81.15-2.55.03-4.82-.19-6.75"/><path class="cls-1" d="m54.04,208.99c.25-.71.55-1.84.53-3.24-.02-1.27-.29-2.3-.53-2.97"/><path class="cls-1" d="m59.59,237.04c-5.68,10.86-4.63,17.71-3.47,21.21.95,2.87,2.97,6.5,4.84,9.87,2.07,3.72,3.78,6.27,5.94,10.97.88,1.91,1.52,3.51,1.92,4.54.74-2.61,1.78-6.37,2.92-10.94,1.42-5.66,2.12-8.5,2.19-10.05.39-8.49-4.12-15.1-5.58-17.18-1.49-2.12-4.23-5.48-8.77-8.41Z"/><path class="cls-1" d="m59.95,255.23c-.27-1.47-.48-3.37-.37-5.58.14-2.7.71-4.93,1.26-6.53,1.14.55,2.67,1.45,4.23,2.88,1.42,1.31,2.38,2.63,3.02,3.66"/><path class="cls-1" d="m63.36,265.38c-.35-1.84-.62-4.32-.39-7.22.18-2.38.65-4.41,1.13-5.99,1.12.71,2.51,1.72,3.9,3.15,1.19,1.23,2.07,2.43,2.71,3.45"/><path class="cls-1" d="m66.8,271.5l.47-6.12c.54.31,1.87,1.19,2.74,2.92.86,1.73.77,3.31.7,3.93"/><path class="cls-1" d="m58.29,216.68l.54,21.86c2.35,5.02,4.74,11.16,6.6,18.34,2.69,10.38,3.39,19.61,3.39,26.75"/><path class="cls-1" d="m57.08,242.67c-4.51,2.93-7.16,6.14-8.73,8.47-4.37,6.53-4.96,13.35-5.76,24.1-.4,5.35-.38,9.87-.27,13.16.71-1.82,1.97-4.53,4.2-7.31,2.8-3.49,4.95-4.4,8.04-7.95,1.39-1.6,3.27-4.07,4.98-7.6"/><path class="cls-1" d="m53.83,255.78c-.51,4.95-1.72,8.66-2.74,11.15-.94,2.29-1.63,3.31-2.74,5.94-1.73,4.08-2.62,7.6-3.1,9.95"/><line class="cls-1" x1="50.39" y1="254.13" x2="53.83" y2="252.17"/><polyline class="cls-1" points="48.14 262.18 53.41 258.77 56.02 264.28"/><path class="cls-1" d="m42.82,272.23c.24-.62,1.43-3.48,4.52-4.75,1.53-.63,2.93-.62,3.75-.55"/><path class="cls-1" d="m51.89,264.77c.44.76,1.14,2.21,1.29,4.17.15,1.84-.26,3.3-.55,4.11"/><path class="cls-1" d="m86.79,135.83c2.85,4.04,6.41,10.05,8.91,17.93,3.13,9.85,3.29,18.44,2.96,23.93.45,1.04.89,2.08,1.34,3.12l2.82-2.73c-.64-3.79-1.54-9.07-2.67-15.38-1.71-9.47-2.17-11.46-2.96-13.73-1.33-3.86-3.87-9.42-9.17-15.45"/><path class="cls-1" d="m93.16,147.05c-1.92.33-6.35,1.37-9.63,5.16-2.97,3.43-3.43,7.28-3.94,11.61-.35,2.96-.54,7.72.91,13.52.8-1.35,2.13-3.28,4.16-5.22,3.17-3.02,5.31-3.41,7.67-5.7,1.61-1.57,3.52-4.22,4.46-8.88"/><path class="cls-1" d="m93.94,148.9c-1.85,1.94-3.96,4.5-5.91,7.74-2.88,4.78-4.35,9.28-5.15,12.6"/><path class="cls-1" d="m83.45,158.33c.77-.98,1.91-2.22,3.52-3.38,1.28-.92,2.51-1.54,3.5-1.95.61,1.06,1.45,2.84,1.78,5.19.4,2.86-.16,5.17-.56,6.41"/><path class="cls-1" d="m81.76,167.27c.1-.72.4-2.12,1.42-3.52.78-1.08,1.67-1.73,2.25-2.08"/><path class="cls-1" d="m87.39,167.27c.37-1.12.73-2.49.92-4.08.32-2.67.05-4.94-.28-6.55"/><line class="cls-1" x1="88.71" y1="138.71" x2="88.71" y2="148.4"/><path class="cls-1" d="m74.38,178.22c.6.08,1.78.17,3.16-.3,1.38-.47,2.26-1.26,2.69-1.69"/><path class="cls-1" d="m96.46,147.05c3.14-.12,8.65.18,14.11,3.39,13.62,8,13.31,26.11,13.28,26.9-1.4-1.37-3.64-3.36-6.73-5.21-6.76-4.04-10.01-2.9-12.78-6.55-1.76-2.32-.87-3.34-3.74-9.54-1.1-2.38-2.18-4.27-2.93-5.51"/><path class="cls-1" d="m97.18,148.97c3.13,1.11,7.4,3.06,11.71,6.52,7.33,5.88,10.78,12.91,12.28,16.65"/><path class="cls-1" d="m105.84,160.56c-.44-.82-.92-1.92-1.25-3.26-.5-2.05-.44-3.82-.3-4.99.99-.15,2.34-.25,3.91-.06,1.81.22,3.26.74,4.24,1.18"/><path class="cls-1" d="m113.01,164.91c-.69-.57-1.72-1.58-2.49-3.12-1.25-2.47-1.1-4.8-.97-5.76.72-.15,2.61-.43,4.71.47,1.61.68,2.59,1.74,3.06,2.31"/><path class="cls-1" d="m116.25,167.84c-.28-.61-.67-1.65-.69-2.99-.01-.88.14-1.62.29-2.15"/><path class="cls-1" d="m98.66,177.69c-2.51.78-6.3,2.37-9.52,5.77-5.96,6.3-6.18,14.8-6.38,22.31-.09,3.67.11,8.97,1.61,15.3.96-2.79,2.83-7.05,6.55-11.18,2.18-2.42,4.4-4.15,6.25-5.36-.06-1.22-.14-3.02-.19-5.21-.21-9.69.48-12.45,1.01-14.07.61-1.88,1.37-3.38,1.99-4.44"/><path class="cls-1" d="m98.64,183.55c-2.09,3.03-4.27,6.65-6.23,10.88-4.05,8.72-5.73,16.78-6.44,22.84"/><path class="cls-1" d="m86.5,195.24c.63-1.14,2.08-3.35,4.82-4.93,1.52-.87,2.95-1.28,3.99-1.48"/><line class="cls-1" x1="93.94" y1="199.38" x2="93.75" y2="191.68"/><path class="cls-1" d="m85.33,208.99c-.01-.23-.09-2.98,1.87-4.22.5-.32,1.02-.47,1.47-.53"/><path class="cls-1" d="m91.86,206.61c.25-1.31.46-3,.39-4.96-.08-2.21-.47-4.06-.88-5.44-.73.31-1.69.84-2.62,1.71-2.06,1.94-2.62,4.32-2.79,5.29"/><path class="cls-1" d="m102.81,178.08c1.53,1.93,3.68,4.76,6.08,8.34,3.39,5.07,5.09,7.61,5.83,10.18.87,3.02.63,5.28-1.48,15.94-.9,4.55-1.92,9.52-3.08,14.85-1.32-3.76-3.22-8.23-6.02-12.98-2.31-3.93-4.74-7.21-6.97-9.87"/><path class="cls-1" d="m101.43,179.42c1.28,4.27,2.5,8.73,3.65,13.37,2.21,8.92,3.86,17.43,5.09,25.42"/><path class="cls-1" d="m100.72,198.82c-.27-1.04-.82-3.79.39-6.88.78-1.98,1.96-3.29,2.72-4.01,1.34.71,3.3,1.97,5.13,4.08,1.33,1.53,2.18,3.03,2.72,4.2"/><path class="cls-1" d="m102.81,208.99c.34-1.9.82-4,1.49-6.24.58-1.95,1.23-3.72,1.88-5.31.71,0,1.8.13,2.94.72,2.82,1.47,3.48,4.57,3.58,5.05"/><path class="cls-1" d="m106.71,216.82c-.21-1.5-.32-3.64.16-6.14.31-1.63.8-3,1.27-4.06.21-.08,1.43-.53,2.69.1,1.7.83,1.86,2.79,1.87,2.88"/><path class="cls-1" d="m66.4,125.49c.38.15.93.41,1.49.91.64.57,1,1.17,1.19,1.56"/><path class="cls-1" d="m67.92,123.65c.55.38,1.18.88,1.82,1.52.84.85,1.44,1.7,1.86,2.4-.08,1.05-.11,2.21-.07,3.46.07,2.03.34,3.83.67,5.35"/></g></svg>