<svg width="65" height="65" viewBox="0 0 65 65" fill="none" xmlns="http://www.w3.org/2000/svg">
<path d="M32.5 24.44C30.9059 24.44 29.3476 24.9127 28.0221 25.7984C26.6966 26.684 25.6636 27.9428 25.0535 29.4156C24.4435 30.8883 24.2839 32.5089 24.5949 34.0724C24.9059 35.6359 25.6735 37.0721 26.8007 38.1993C27.9279 39.3265 29.3641 40.0941 30.9276 40.4051C32.4911 40.7161 34.1117 40.5565 35.5844 39.9465C37.0572 39.3364 38.316 38.3034 39.2016 36.9779C40.0873 35.6524 40.56 34.0941 40.56 32.5C40.56 31.4415 40.3515 30.3935 39.9465 29.4156C39.5414 28.4377 38.9477 27.5492 38.1993 26.8007C37.4508 26.0523 36.5623 25.4586 35.5844 25.0535C34.6065 24.6485 33.5585 24.44 32.5 24.44ZM64.7725 16.4775C64.7554 13.9677 64.2932 11.4809 63.4075 9.1325C62.7552 7.41409 61.7459 5.85355 60.4461 4.55385C59.1464 3.25415 57.5859 2.24483 55.8675 1.5925C53.5191 0.706757 51.0323 0.244598 48.5225 0.2275C44.33 -2.13656e-07 43.095 0 32.5 0C21.905 0 20.67 -2.13656e-07 16.4775 0.2275C13.9677 0.244598 11.4809 0.706757 9.1325 1.5925C7.41409 2.24483 5.85355 3.25415 4.55385 4.55385C3.25415 5.85355 2.24483 7.41409 1.5925 9.1325C0.706757 11.4809 0.244598 13.9677 0.2275 16.4775C-2.13656e-07 20.67 0 21.905 0 32.5C0 43.095 -2.13656e-07 44.33 0.2275 48.5225C0.262483 51.0411 0.724017 53.5356 1.5925 55.9C2.24194 57.6105 3.25042 59.162 4.55 60.45C5.84413 61.7575 7.40802 62.7668 9.1325 63.4075C11.4809 64.2932 13.9677 64.7554 16.4775 64.7725C20.67 65 21.905 65 32.5 65C43.095 65 44.33 65 48.5225 64.7725C51.0323 64.7554 53.5191 64.2932 55.8675 63.4075C57.592 62.7668 59.1559 61.7575 60.45 60.45C61.7496 59.162 62.7581 57.6105 63.4075 55.9C64.2924 53.5401 64.7545 51.0428 64.7725 48.5225C65 44.33 65 43.095 65 32.5C65 21.905 65 20.67 64.7725 16.4775ZM56.5175 42.4775C56.4132 44.4831 55.9852 46.4586 55.25 48.3275C54.6191 49.8865 53.6811 51.3027 52.4919 52.4919C51.3027 53.6811 49.8865 54.6191 48.3275 55.25C46.4409 55.9442 44.4544 56.3283 42.445 56.3875H22.555C20.5456 56.3283 18.5591 55.9442 16.6725 55.25C15.0608 54.6511 13.6054 53.6956 12.415 52.455C11.2374 51.2891 10.328 49.8806 9.75 48.3275C9.05306 46.4429 8.67947 44.4541 8.645 42.445V22.555C8.67947 20.5459 9.05306 18.5571 9.75 16.6725C10.3489 15.0608 11.3044 13.6054 12.545 12.415C13.7161 11.2438 15.1231 10.3353 16.6725 9.75C18.5591 9.05582 20.5456 8.67168 22.555 8.6125H42.445C44.4544 8.67168 46.4409 9.05582 48.3275 9.75C49.9392 10.3489 51.3946 11.3044 52.585 12.545C53.7626 13.7109 54.672 15.1194 55.25 16.6725C55.9442 18.5591 56.3283 20.5456 56.3875 22.555V32.5C56.3875 39.195 56.615 39.8775 56.5175 42.445V42.4775ZM51.3175 18.2975C50.9305 17.2477 50.3205 16.2943 49.5293 15.5032C48.7382 14.7121 47.7848 14.102 46.735 13.715C45.2935 13.2153 43.7754 12.9733 42.25 13H22.75C21.2169 13.015 19.6985 13.3011 18.265 13.845C17.2313 14.2144 16.288 14.7996 15.4979 15.5617C14.7078 16.3237 14.0889 17.2453 13.6825 18.265C13.2105 19.7124 12.9799 21.2277 13 22.75V42.25C13.0322 43.7814 13.3177 45.2969 13.845 46.735C14.232 47.7848 14.8421 48.7382 15.6332 49.5293C16.4243 50.3205 17.3777 50.9305 18.4275 51.3175C19.8142 51.8275 21.2734 52.1127 22.75 52.1625H42.25C43.7831 52.1475 45.3015 51.8614 46.735 51.3175C47.7848 50.9305 48.7382 50.3205 49.5293 49.5293C50.3205 48.7382 50.9305 47.7848 51.3175 46.735C51.8614 45.3015 52.1475 43.7831 52.1625 42.25V22.75C52.1634 21.2153 51.8768 19.6941 51.3175 18.265V18.2975ZM32.5 44.915C30.8712 44.915 29.2583 44.5936 27.7539 43.9693C26.2495 43.345 24.883 42.43 23.7327 41.2768C22.5825 40.1235 21.6711 38.7546 21.0507 37.2486C20.4304 35.7425 20.1132 34.1288 20.1175 32.5C20.1175 30.0432 20.8465 27.6416 22.2121 25.5992C23.5777 23.5569 25.5186 21.9657 27.789 21.027C30.0595 20.0883 32.5574 19.8443 34.9665 20.326C37.3757 20.8077 39.5878 21.9933 41.3227 23.7328C43.0577 25.4723 44.2375 27.6875 44.7129 30.0979C45.1883 32.5083 44.9378 35.0056 43.9931 37.2736C43.0485 39.5415 41.4521 41.4783 39.4062 42.8385C37.3603 44.1988 34.9568 44.9214 32.5 44.915ZM45.5 22.5225C44.7816 22.4465 44.1167 22.1072 43.6335 21.5702C43.1503 21.0331 42.8829 20.3362 42.8829 19.6138C42.8829 18.8913 43.1503 18.1944 43.6335 17.6573C44.1167 17.1203 44.7816 16.781 45.5 16.705C46.2184 16.781 46.8833 17.1203 47.3665 17.6573C47.8497 18.1944 48.1171 18.8913 48.1171 19.6138C48.1171 20.3362 47.8497 21.0331 47.3665 21.5702C46.8833 22.1072 46.2184 22.4465 45.5 22.5225Z" fill="#2B3E1E"/>
</svg>
