<svg width="215" height="300" viewBox="0 0 215 300" fill="none" xmlns="http://www.w3.org/2000/svg">
<g clip-path="url(#clip0_182_1421)">
<path d="M83.2093 297.401C86.0822 273.342 78.7366 259.282 74.6596 253.091C68.2601 243.377 58.5234 235.743 45.4149 225.459C32.616 215.409 31.7387 216.768 26.5263 210.98C24.2727 208.48 19.0259 202.255 8.97945 176.317C6.41624 169.673 3.45737 161.57 0.429688 152.191C1.42745 133.719 2.408 115.23 3.40576 96.7579C3.49178 96.0365 4.14548 90.7012 5.90016 90.5167C7.34519 90.3657 8.80743 93.7212 9.42673 95.164C13.1597 103.872 12.2824 112.546 12.0415 115.616C11.5427 121.941 11.6459 130.816 14.3811 142.108C15.0004 146.604 16.6519 152.678 21.6235 155.832C23.2405 156.855 24.4103 157.057 25.9414 157.543C34.4395 160.228 37.536 166.418 48.1329 176.586C50.4037 178.767 53.0873 181.032 58.4546 185.562C70.204 195.477 79.4591 202.004 80.9386 203.111C89.5055 209.436 99.6895 227.086 107.482 275.943" stroke="#221F20" stroke-width="0.5" stroke-miterlimit="10"/>
<path d="M58.9363 216.198C55.8914 210.762 52.5369 205.175 48.8211 199.487C39.2736 184.84 29.2444 172.341 19.6108 161.822C19.5592 161.704 18.3378 159.271 19.7312 157.275C20.3333 156.419 21.1591 156 21.6235 155.832" stroke="#221F20" stroke-width="0.5" stroke-miterlimit="10"/>
<path d="M31.2047 204.571C25.4246 196.887 18.922 186.87 13.1934 174.505C6.77682 160.681 3.23305 148.03 1.20312 137.98" stroke="#221F20" stroke-width="0.5" stroke-miterlimit="10"/>
<path d="M11.5781 100.533L13.7973 88.0675C13.9521 86.6078 15.1391 85.5005 16.4637 85.3998C18.0292 85.2992 19.5602 86.6414 19.543 88.403C19.9559 94.2752 20.1451 100.684 19.9559 107.597C19.7322 115.633 19.0269 123.015 18.0808 129.626C16.8422 133.786 15.6036 137.93 14.365 142.091" stroke="#221F20" stroke-width="0.5" stroke-miterlimit="10"/>
<path d="M25.9398 157.526V134.675C30.0684 129.071 32.6317 124.172 34.2315 120.682C35.1261 118.736 36.1582 116.22 36.4507 112.847C36.7259 109.576 36.3302 104.945 34.782 104.609C34.2487 104.492 33.3714 104.844 31.8403 107.227C26.9719 114.844 20.108 126.185 18.0781 129.625" stroke="#221F20" stroke-width="0.5" stroke-miterlimit="10"/>
<path d="M28.5044 158.496C28.4355 155.929 28.7624 152.339 30.7923 148.866C32.6502 145.678 34.9038 144.403 38.2755 141.383C40.7183 139.185 43.9868 135.863 47.2726 131.098C47.4618 130.914 48.1327 130.226 48.7348 130.377C49.4745 130.562 49.9734 131.988 49.6293 133.951C49.3713 136.232 49.1133 138.497 48.8724 140.779C47.4274 142.792 45.9479 144.822 44.4341 146.853C42.7654 149.101 41.0968 151.315 39.4453 153.48C39.3077 158.026 39.1529 162.556 39.0152 167.103" stroke="#221F20" stroke-width="0.5" stroke-miterlimit="10"/>
<path d="M131.789 299.952C128.916 275.893 136.261 261.833 140.338 255.642C146.738 245.928 156.475 238.294 169.583 228.01C182.382 217.96 183.259 219.319 188.472 213.53C190.725 211.031 195.972 204.806 206.019 178.868C208.582 172.224 211.541 164.121 214.568 154.742C213.571 136.27 212.59 117.781 211.592 99.3087C211.506 98.5873 210.853 93.252 209.098 93.0674C207.653 92.9164 206.191 96.272 205.571 97.7148C201.838 106.422 202.716 115.096 202.956 118.167C203.455 124.492 203.352 133.367 200.617 144.659C199.998 149.155 198.346 155.228 193.375 158.383C191.757 159.406 190.588 159.607 189.057 160.094C180.559 162.778 177.462 168.969 166.865 179.136C164.594 181.318 161.911 183.583 156.543 188.112C144.794 198.028 135.539 204.554 134.059 205.662C125.492 211.987 115.308 229.637 107.516 278.493" stroke="#221F20" stroke-width="0.5" stroke-miterlimit="10"/>
<path d="M156.062 218.745C159.107 213.309 162.462 207.722 166.178 202.034C175.725 187.387 185.754 174.888 195.388 164.369C195.44 164.251 196.661 161.818 195.268 159.822C194.665 158.966 193.84 158.547 193.375 158.379" stroke="#221F20" stroke-width="0.5" stroke-miterlimit="10"/>
<path d="M183.777 207.121C189.557 199.437 196.06 189.421 201.789 177.056C208.205 163.231 211.749 150.581 213.779 140.531" stroke="#221F20" stroke-width="0.5" stroke-miterlimit="10"/>
<path d="M203.424 103.08C202.684 98.9193 201.945 94.7584 201.205 90.6144C201.05 89.1547 199.863 88.0474 198.538 87.9467C196.973 87.8461 195.442 89.1883 195.459 90.9499C195.046 96.8221 194.857 103.231 195.046 110.143C195.27 118.18 195.975 125.562 196.921 132.172C198.16 136.333 199.399 140.477 200.637 144.638" stroke="#221F20" stroke-width="0.5" stroke-miterlimit="10"/>
<path d="M189.041 160.077V137.226C184.912 131.622 182.349 126.723 180.749 123.233C179.855 121.287 178.823 118.77 178.53 115.398C178.255 112.126 178.651 107.496 180.199 107.16C180.732 107.043 181.609 107.395 183.14 109.778C188.009 117.395 194.873 128.736 196.903 132.176" stroke="#221F20" stroke-width="0.5" stroke-miterlimit="10"/>
<path d="M186.494 161.047C186.563 158.48 186.236 154.89 184.206 151.417C182.348 148.229 180.094 146.954 176.723 143.934C174.28 141.736 171.011 138.414 167.726 133.649C167.536 133.465 166.866 132.777 166.263 132.928C165.524 133.112 165.025 134.538 165.369 136.501C165.627 138.783 165.885 141.048 166.126 143.33C167.571 145.343 169.05 147.373 170.564 149.403C172.233 151.652 173.901 153.866 175.553 156.03C175.691 160.577 175.845 165.107 175.983 169.654" stroke="#221F20" stroke-width="0.5" stroke-miterlimit="10"/>
<path d="M80.1122 28.004C75.3986 27.702 71.5796 27.7691 68.982 27.8698C61.2407 28.1886 57.5422 29.1952 52.0373 27.8698C50.3686 27.4671 45.7067 26.4101 45.5174 24.5646C45.3454 22.8365 49.0956 21.2091 51.5212 20.5212C54.0328 19.8165 57.0949 19.5649 65.5586 21.2091C69.068 21.8802 73.7816 22.9372 79.252 24.6149" stroke="#221F20" stroke-width="0.2" stroke-miterlimit="10"/>
<path d="M54.5664 25.7697C57.1296 25.4006 60.8626 25.0986 65.3009 25.5683C69.5156 26.0046 72.8701 26.9777 75.1753 27.7998" stroke="#221F20" stroke-width="0.2" stroke-miterlimit="10"/>
<path d="M82.5572 22.9514C78.3769 20.9381 74.1795 18.908 69.9992 16.8947C65.2684 14.8814 60.8817 15.3679 59.6087 17.0289C59.4539 17.247 58.7314 18.2705 59.6947 20.2334" stroke="#221F20" stroke-width="0.2" stroke-miterlimit="10"/>
<path d="M81.6948 21.2083C80.4734 20.7385 78.7703 20.0003 76.8436 18.9601C73.6611 17.232 71.0119 15.7891 69.4809 13.2389C69.3432 13.004 66.8316 8.74251 68.9648 7.04797C71.0119 5.40377 76.1039 7.14864 77.7554 7.7023C84.8257 10.1183 88.92 15.118 91.1563 18.8091" stroke="#221F20" stroke-width="0.2" stroke-miterlimit="10"/>
<path d="M75.6211 11.7969C77.7198 12.7364 80.197 13.9947 82.7258 15.7228C84.6869 17.0483 86.2868 18.3737 87.577 19.5817" stroke="#221F20" stroke-width="0.2" stroke-miterlimit="10"/>
<path d="M85.8945 12.4677L86.2386 7.55186C86.4794 5.06878 87.1675 4.44801 87.718 4.33056C89.4383 3.97823 92.38 7.93774 93.7906 10.8906C95.27 13.9777 95.4421 16.746 95.3732 18.4741" stroke="#221F20" stroke-width="0.2" stroke-miterlimit="10"/>
<path d="M81.7656 26.323C81.8 25.0143 82.1441 23.7392 82.557 22.9507C84.174 19.8301 90.3498 17.4644 95.7515 18.555C101.652 19.763 105.213 24.8298 104.284 25.9371C103.888 26.4069 102.77 26.0545 101.893 26.8263C100.878 27.7155 101.669 28.7725 100.826 29.2926C99.7081 29.9973 97.7814 28.5041 96.2159 29.2926C95.4418 29.6785 95.6482 30.1651 94.7881 30.5006C93.928 30.8362 93.4979 30.4335 91.726 30.467C90.453 30.4838 90.4702 30.7019 88.9736 30.7523C87.4425 30.8026 87.4425 30.5845 86.3932 30.6852C84.5869 30.8529 83.9848 31.5576 83.2451 31.2556C82.9526 31.1382 82.7462 30.9033 82.4021 29.7792C81.9893 28.4202 81.7484 27.5981 81.7828 26.3565L81.7656 26.323Z" stroke="#221F20" stroke-width="0.2" stroke-miterlimit="10"/>
<path d="M95.3906 14.6136C95.4422 12.6506 95.9067 8.87564 99.1064 5.41945C102.117 2.14783 107.364 -0.603698 108.981 0.352624C110.46 1.24184 108.62 5.06712 106.899 8.62397C104.456 13.6572 101.601 17.4825 99.5193 19.9656" stroke="#221F20" stroke-width="0.2" stroke-miterlimit="10"/>
<path d="M101.445 20.7711C104.439 14.1104 108.24 9.49661 111.148 6.54375C112.662 5.00022 116.704 0.889707 118.201 1.4937C119.543 2.03058 118.304 6.19142 117.306 8.52351C115.93 11.6945 112.507 17.2311 102.65 22.365" stroke="#221F20" stroke-width="0.2" stroke-miterlimit="10"/>
<path d="M102.633 22.3462C111.079 18.4873 115.638 14.2258 118.253 10.9374C120.644 7.93421 122.932 3.8237 124.824 4.14247C126.097 4.36058 126.476 6.47456 126.51 6.67589C126.734 7.93421 126.441 9.76296 123.809 12.4474C118.735 17.5981 109.067 21.8093 106.091 23.0508" stroke="#221F20" stroke-width="0.2" stroke-miterlimit="10"/>
<path d="M125.839 9.86601C125.942 9.26202 126.165 8.42314 126.578 7.48359C126.94 6.66149 128.78 2.41676 131.447 2.18188C133.975 1.96377 137.192 5.35284 137.674 8.40636C138.414 13.0034 133.167 18.1206 124.617 21.409" stroke="#221F20" stroke-width="0.2" stroke-miterlimit="10"/>
<path d="M131.739 7.51562C131.223 9.29405 130.122 12.0288 127.576 14.8307C123.516 19.3103 118.218 21.2397 115.844 21.9611" stroke="#221F20" stroke-width="0.2" stroke-miterlimit="10"/>
<path d="M107.74 25.3845C109.942 25.4852 112.969 25.7201 116.513 26.3408C121.072 27.1462 123.79 27.6159 126.852 29.042C131.669 31.307 131.995 33.4713 135.642 33.8236C137.586 34.0082 140.39 33.6559 141.44 32.213C142.833 30.3171 140.545 27.4817 140.115 26.9616C134.266 20.0492 117.287 21.9787 116.135 22.1297C112.161 22.6162 109.064 23.539 107.172 24.1933" stroke="#221F20" stroke-width="0.2" stroke-miterlimit="10"/>
<path d="M109.168 24.7957C111.594 24.024 115.533 23.0509 120.505 22.967C125.373 22.8831 129.295 23.6884 131.738 24.3595" stroke="#221F20" stroke-width="0.2" stroke-miterlimit="10"/>
<path d="M109.167 26.8125C112.144 27.8024 116.823 29.7654 120.521 33.6242C124.822 38.1038 126.938 44.2612 125.355 45.0665C124.013 45.7376 119.971 42.6505 118.13 40.9728C115.171 38.3051 114.793 36.5771 112.574 33.9933C110.957 32.1142 108.256 29.6647 103.594 27.4333" stroke="#221F20" stroke-width="0.2" stroke-miterlimit="10"/>
<path d="M108.309 27.2969C110.425 28.27 113.727 30.0484 116.669 33.0684C119.095 35.5514 120.419 37.9842 121.142 39.6787" stroke="#221F20" stroke-width="0.2" stroke-miterlimit="10"/>
<path d="M100.102 29.4766C103.043 31.9596 106.793 35.6339 109.821 40.6337C112.969 45.8347 113.881 50.0459 114.862 49.9284C115.842 49.811 116.238 45.3146 115.171 41.137C113.881 36.1205 110.716 32.4294 108.307 30.1812" stroke="#221F20" stroke-width="0.2" stroke-miterlimit="10"/>
<path d="M94.2895 31.3053C93.6702 33.5703 92.9649 36.8587 92.7757 40.8518C92.6725 43.1503 92.5865 45.0629 93.0681 47.4118C94.1519 52.7806 97.7817 58.5521 99.3815 58.3005C100.947 58.0488 101.446 51.7908 98.1602 29.4766" stroke="#221F20" stroke-width="0.2" stroke-miterlimit="10"/>
<path d="M96.6461 31.0547C96.4225 33.3364 96.3021 35.8363 96.3709 38.5207C96.4569 42.1279 96.8354 45.4163 97.3686 48.3188" stroke="#221F20" stroke-width="0.2" stroke-miterlimit="10"/>
<path d="M91.4156 33.8925C88.9212 38.0365 87.803 41.5766 87.2525 44.0429C85.6526 51.1398 87.1493 56.1899 83.6227 57.6831C82.4185 58.1864 80.8187 58.2032 79.7005 57.6831C75.6406 55.7704 78.4791 46.8448 79.0124 45.1838C80.0445 41.9625 82.4529 36.5265 88.9384 30.7383" stroke="#221F20" stroke-width="0.2" stroke-miterlimit="10"/>
<path d="M91.4149 31.3086C89.7979 32.5501 87.9228 34.3118 86.3229 36.6439C82.5039 42.2476 82.7619 47.7003 83.0888 50.2002" stroke="#221F20" stroke-width="0.2" stroke-miterlimit="10"/>
<path d="M87.3032 32.2796C82.4521 33.689 78.9083 35.4338 76.6375 36.7257C72.9733 38.7893 68.8791 41.1214 65.7138 45.2655C63.9935 47.5137 63.1334 49.5438 60.0197 51.2719C59.1251 51.7752 56.4931 53.2181 54.7556 52.4463C53.1214 51.7081 53.2246 49.4096 53.2418 48.8559C53.2934 47.6815 53.7579 45.2823 58.6606 41.2557C64.0107 36.8599 69.5328 34.7124 71.3219 34.0581C74.0055 33.0682 78.0309 31.8602 83.209 31.2227" stroke="#221F20" stroke-width="0.2" stroke-miterlimit="10"/>
<path d="M71.9742 38.3704C67.6047 40.971 66.0909 41.2394 65.6092 40.9038C64.8351 40.3502 66.4693 37.9845 66.6586 37.7161C68.052 35.7364 70.0819 34.629 71.3377 34.0586" stroke="#221F20" stroke-width="0.2" stroke-miterlimit="10"/>
<path d="M82.1438 31.3736C80.974 31.1051 79.1333 30.7528 76.8453 30.6521C67.2462 30.2495 59.4878 34.813 58.7824 35.2324C54.2409 37.9672 52.7615 40.6516 48.478 40.8529C47.7727 40.8865 45.9148 40.9704 45.1235 40.1147C43.644 38.5041 46.7577 34.5781 49.5274 32.4138C52.9335 29.7797 57.0966 28.8066 60.1415 28.4375" stroke="#221F20" stroke-width="0.2" stroke-miterlimit="10"/>
<path d="M99.3281 38.0859L113.847 65.9199" stroke="#221F20" stroke-width="0.2" stroke-miterlimit="10"/>
<path d="M113.418 65.0977C116.91 66.2385 117.719 67.866 117.925 68.3693C118.183 69.0236 118.183 69.6947 118.166 71.0034C118.149 72.5637 117.96 73.822 117.805 74.6777" stroke="#221F20" stroke-width="0.2" stroke-miterlimit="10"/>
<path d="M118.027 73.2171C119.214 76.5727 120.315 80.1463 121.33 83.9212C122.81 89.5082 123.859 94.7931 124.582 99.7257C126.147 97.8299 128.504 94.9609 131.359 91.4376C138.843 82.1932 142.627 77.4786 145.19 73.4856C147.53 69.8281 150.523 64.4928 153.001 57.5469" stroke="#221F20" stroke-width="0.2" stroke-miterlimit="10"/>
<path d="M93.961 110.365L89.7635 113.905C88.6797 117.613 87.1315 120.347 85.8929 122.176C83.6049 125.599 81.4546 127.327 82.0051 129.793C82.3491 131.37 83.5533 132.125 85.2048 133.652C89.1958 137.326 88.5421 138.685 92.1547 143.148C95.7501 147.594 99.4658 150.06 106.192 154.523C112.368 158.617 113.744 158.6 114.535 158.382C117.408 157.594 117.649 152.929 118.01 146.889C118.01 146.889 118.905 132.243 120.23 115.297C121.107 104.291 121.984 103.62 121.348 98.2848C121.141 96.5231 120.763 94.3253 115.929 80.0643C111.164 66.0383 109.874 63.2532 109.117 61.7264C106.106 55.5858 102.889 50.8042 100.601 47.6836" stroke="#221F20" stroke-width="0.2" stroke-miterlimit="10"/>
<path d="M85.773 109.44C86.3751 109.423 86.4955 109.591 87.046 109.624C87.9578 109.675 88.1814 109.222 88.7319 109.373C89.334 109.54 89.2652 110.178 89.7985 110.262C90.2974 110.346 90.5382 109.809 91.1575 109.842C91.6908 109.876 91.794 110.295 92.3445 110.43C92.6885 110.514 93.2734 110.497 94.2024 109.91C94.4776 109.809 94.8561 109.641 95.1657 109.322C96.0259 108.416 95.5098 107.141 95.2517 106.521C95.0281 105.95 94.3572 104.323 92.9638 104.121C92.0864 103.987 91.6048 104.541 90.5898 104.289C89.8329 104.088 89.8157 103.719 89.2824 103.685C88.6631 103.652 88.3362 104.172 86.9256 105.43C85.6526 106.571 85.5322 106.487 85.2053 106.99C84.4828 108.047 84.3796 109.339 84.8441 109.54C85.0505 109.624 85.1881 109.44 85.773 109.423V109.44Z" stroke="#221F20" stroke-width="0.2" stroke-miterlimit="10"/>
<path d="M86.3573 109.508C86.3573 109.222 86.3401 108.786 86.1337 108.3C85.8756 107.679 85.4455 107.243 85.1875 107.008" stroke="#221F20" stroke-width="0.2" stroke-miterlimit="10"/>
<path d="M87.457 109.623C87.457 109.002 87.543 107.828 88.3516 106.536C89.0569 105.412 90.003 104.691 90.5707 104.305" stroke="#221F20" stroke-width="0.2" stroke-miterlimit="10"/>
<path d="M90.8828 108.902L91.3473 104.355" stroke="#221F20" stroke-width="0.2" stroke-miterlimit="10"/>
<path d="M93.3767 108.57C93.4283 107.983 93.4283 107.211 93.2218 106.338C93.0154 105.433 92.6886 104.694 92.3789 104.141" stroke="#221F20" stroke-width="0.2" stroke-miterlimit="10"/>
<path d="M70.7031 109.626L80.027 126.739C81.4893 125.262 83.1579 123.316 84.6546 120.917C85.9964 118.769 86.8737 116.773 87.4758 115.095C86.5985 113.25 85.7211 111.404 84.8438 109.559" stroke="#221F20" stroke-width="0.2" stroke-miterlimit="10"/>
<path d="M156.389 32.7852C156.32 33.2382 156.217 33.9093 156.011 34.6978C155.701 35.8722 154.187 41.1739 145.723 47.8514C142.145 50.6701 136.004 54.7973 134.765 53.9585C134.404 53.7236 134.507 53.1196 134.903 52.18C137.294 46.526 144.037 44.3617 149.663 38.758C150.884 37.5332 152.639 35.5702 154.239 32.7852" stroke="#221F20" stroke-width="0.2" stroke-miterlimit="10"/>
<path d="M155.548 32.3133C155.497 31.4745 155.307 26.9613 159.608 23.5051C160.296 22.9515 164.597 19.6295 168.932 20.3845C173.714 21.2066 177.74 26.7935 176.26 33.8904C175.607 33.2864 174.643 32.5818 173.422 32.5482C172.545 32.5482 172.39 32.8838 171.065 33.169C170.412 33.32 168.244 33.8066 166.455 33.0683C165.388 32.6321 165.251 32.0785 164.391 32.0617C163.496 32.0281 162.911 32.5818 162.395 32.8838C161.397 33.4542 159.505 33.7059 155.548 32.3133Z" stroke="#221F20" stroke-width="0.2" stroke-miterlimit="10"/>
<path d="M156.218 33.8086C156.631 37.55 155.564 40.0331 154.325 41.6941C153.138 43.2879 152.433 43.2544 151.229 45.0664C149.354 47.8682 149.371 50.4687 149.371 52.7002C149.371 54.9484 149.371 56.9952 150.868 57.5657C151.952 57.9851 153.276 57.4147 153.586 57.2804C155.753 56.3577 155.943 54.2437 155.943 54.0759L158.127 42.6168C158.368 39.815 158.609 36.9963 158.85 34.1945" stroke="#221F20" stroke-width="0.2" stroke-miterlimit="10"/>
<path d="M141.887 48.1846C143.71 45.9197 146.136 43.3191 149.318 40.685C151.451 38.9066 153.585 37.4134 155.546 36.1719" stroke="#221F20" stroke-width="0.2" stroke-miterlimit="10"/>
<path d="M153 51.3229C153.31 48.907 153.946 47.0446 154.462 45.7863C155.563 43.1187 156.75 41.7933 157.92 38.572C158.436 37.1794 158.729 36.005 158.883 35.25" stroke="#221F20" stroke-width="0.2" stroke-miterlimit="10"/>
<path d="M156.391 51.8445C156.099 52.9854 156.443 54.0256 157.303 54.4954C158.335 55.0658 159.746 54.6296 159.849 54.596C161.019 54.2101 162.602 52.8847 162.946 46.0227C163.1 43.0027 162.997 38.8251 161.982 33.8086" stroke="#221F20" stroke-width="0.2" stroke-miterlimit="10"/>
<path d="M160.758 54.0747C161.446 57.2457 162.943 59.2925 164.405 59.3093C165.248 59.3093 165.953 58.6382 166.245 58.353C167.88 56.7591 167.553 54.5612 167.45 53.7056C167.243 52.2124 167.26 50.7024 167.295 49.1924C167.346 46.9107 167.226 45.8705 167.209 44.1088C167.174 41.8103 167.02 38.3038 166.452 33.0859" stroke="#221F20" stroke-width="0.2" stroke-miterlimit="10"/>
<path d="M170.101 33.3555C169.86 37.8351 170.755 41.2242 171.615 43.4724C173.249 47.7339 175.95 51.1229 175.657 56.5421C175.589 57.6662 175.485 59.2601 174.677 59.4446C173.094 59.7802 169.912 54.5288 167.297 49.6801" stroke="#221F20" stroke-width="0.2" stroke-miterlimit="10"/>
<path d="M174.503 56.7581C173.024 54.1408 171.476 50.8859 170.34 47.0439C168.913 42.2119 168.534 37.9336 168.551 34.5781" stroke="#221F20" stroke-width="0.2" stroke-miterlimit="10"/>
<path d="M172.043 33.3555V36.4593L178.752 49.8143C180.059 50.7874 186.665 55.6864 189.022 54.3946C189.401 54.1764 189.555 53.8745 189.624 53.7235C190.742 51.2739 183.861 48.2875 179.853 43.1368C178.356 41.2242 176.688 38.2713 176.258 33.8756" stroke="#221F20" stroke-width="0.2" stroke-miterlimit="10"/>
<path d="M175.656 56.5571C175.88 56.6242 178.151 57.2953 179.338 56.4229C180.163 55.8189 180.026 54.7954 179.854 53.319C179.664 51.8258 179.183 50.6346 178.753 49.8125" stroke="#221F20" stroke-width="0.2" stroke-miterlimit="10"/>
<path d="M185.531 51.3225C183.501 49.6448 181.093 47.3295 178.908 44.2927C176.035 40.2829 174.676 36.5583 173.988 33.8906" stroke="#221F20" stroke-width="0.2" stroke-miterlimit="10"/>
<path d="M158.161 54.7617L126.043 101.974V104.188C127.523 103.484 129.776 102.544 132.666 101.773C138.395 100.246 141.853 100.682 148.028 100.414C156.939 100.028 163.029 99.776 169.016 96.8399C172.198 95.2796 175.57 92.8468 178.804 90.498C181.161 88.7867 183.036 87.2935 184.326 86.2365C182.365 89.139 177.342 95.5648 167.519 99.0042C164.595 100.028 161.825 100.581 159.434 100.883C156.802 101.051 152.828 101.32 147.959 101.571C141.508 101.907 140.769 101.89 138.722 102.192C134.06 102.897 127.901 103.836 125.269 107.645C124.65 108.534 123.583 110.514 124.289 113.701C124.048 118.215 123.6 124.573 122.689 132.207C122.052 137.643 121.416 141.77 120.573 147.206C119.369 154.924 118.422 161.048 117.115 167.591C115.722 174.503 113.502 184.083 109.821 195.66L104.333 199.217L113.33 164.37L112.453 164.286C111.369 164.806 109.098 165.729 106.243 165.578C100.394 165.292 97.263 160.88 96.7125 160.108C93.9945 156.3 94.9922 152.441 95.3019 151.417C95.5083 153.531 96.3512 158.078 100.686 161.534C102.166 162.709 104.849 164.856 108.084 164.454C109.443 164.286 110.457 163.715 111.111 163.279C111.197 162.675 111.3 162.071 111.386 161.467C103.611 156.602 92.6526 148.532 83.2427 136.435C75.8112 126.889 71.7169 117.913 69.3945 111.202" stroke="#221F20" stroke-width="0.2" stroke-miterlimit="10"/>
<path d="M132.031 90.5823L130.121 83.0156L133.269 89.0388" stroke="#221F20" stroke-width="0.2" stroke-miterlimit="10"/>
<path d="M131.703 102.041C132.34 100.783 133.045 98.9372 133.251 96.6555C133.423 94.7428 133.183 93.0986 132.89 91.8906" stroke="#221F20" stroke-width="0.2" stroke-miterlimit="10"/>
<path d="M134.027 90.2305C134.509 91.5727 134.956 93.284 135.094 95.2637C135.283 97.6965 134.956 99.7601 134.561 101.32" stroke="#221F20" stroke-width="0.2" stroke-miterlimit="10"/>
<path d="M139.375 100.665C141.543 98.9874 144.45 96.3533 146.807 92.6119C148.544 89.8436 149.473 87.2934 149.989 85.2969C150.23 86.1861 150.454 87.5115 150.178 89.0886C149.714 91.6556 148.183 93.4508 147.34 94.2897C150.178 91.4542 153 88.6356 155.838 85.8002C155.872 86.2196 155.907 86.874 155.735 87.6625C155.133 90.5147 152.604 92.1589 148.716 95.095C147.151 96.2862 144.777 98.1317 141.904 100.548" stroke="#221F20" stroke-width="0.2" stroke-miterlimit="10"/>
<path d="M146.258 100.482C147.668 99.8105 149.234 98.9213 150.834 97.7804C154.033 95.4986 156.063 93.0827 157.319 91.2539C157.147 92.2102 156.958 93.1833 156.786 94.1397C158.042 93.2169 159.298 92.3109 160.553 91.3881C160.433 91.8579 160.192 92.5961 159.693 93.4014C158.764 94.8779 157.508 95.6329 154.756 97.4113C153.879 97.9817 152.33 98.9884 150.283 100.314" stroke="#221F20" stroke-width="0.2" stroke-miterlimit="10"/>
<path d="M155.133 100.045C157.576 98.5017 160.362 96.4548 163.115 93.8375C164.921 92.1094 166.383 90.4317 167.57 88.9049C167.691 89.3579 167.76 89.9451 167.605 90.5994C167.175 92.6463 165.128 93.7872 164.629 94.0556C166.555 93.0993 168.809 91.8242 171.097 90.0961C172.645 88.9217 173.935 87.764 174.985 86.707C174.314 88.1499 173.075 90.2135 170.684 92.0087C169.05 93.2167 167.828 93.6194 165.644 94.7771C163.803 95.7669 161.223 97.3272 158.47 99.7432" stroke="#221F20" stroke-width="0.2" stroke-miterlimit="10"/>
<path d="M170.84 95.8664C171.838 94.5409 173.145 92.6451 174.487 90.2627C175.88 87.7628 176.586 86.0011 176.861 86.0683C177.153 86.1354 176.792 88.1487 176.224 89.8432C175.691 91.4706 174.986 92.7457 174.452 93.5846" stroke="#221F20" stroke-width="0.2" stroke-miterlimit="10"/>
<path d="M168.793 98.5366C170.29 98.2849 172.457 97.8319 174.969 97.0769C179.975 95.5501 182.641 93.8724 182.796 94.0569C182.985 94.275 179.39 97.3286 173.92 98.8721C170.376 99.8788 167.159 99.9123 165.043 99.7949" stroke="#221F20" stroke-width="0.2" stroke-miterlimit="10"/>
<path d="M142.783 101.84C144.52 102.495 147.169 103.283 150.489 103.585C152.106 103.72 153.379 103.703 157.577 103.485C160.02 103.35 163.219 103.166 166.97 102.914C165.886 103.367 164.596 103.82 163.116 104.189C160.312 104.911 157.801 105.129 155.874 105.162H166.54C170.359 104.726 173.214 103.887 175.227 103.132C177.394 102.31 179.837 101.304 180.095 101.606C180.216 101.757 179.786 102.176 179.39 102.512C177.257 103.619 173.971 105.045 169.688 105.934C162.927 107.344 157.37 106.656 153.362 106.119C149.801 105.649 144.554 104.626 138.723 102.193" stroke="#221F20" stroke-width="0.2" stroke-miterlimit="10"/>
<path d="M106.243 165.596C102.596 166.502 100.016 166.234 98.244 165.764C94.5626 164.791 93.4444 162.643 90.9156 162.979C88.3524 163.331 86.6149 165.948 85.7032 165.495C85.514 165.395 85.4623 165.227 85.4279 165.126C85.0495 163.868 88.3868 162.308 88.5932 162.207C87.9567 161.989 87.0622 161.737 85.9612 161.637C81.2821 161.2 77.6179 163.818 77.3771 163.549C77.1878 163.331 78.9597 161.469 82.0218 160.58C85.1871 159.674 88.0944 160.278 92.309 161.217C94.339 161.67 97.1946 162.425 100.498 163.751" stroke="#221F20" stroke-width="0.2" stroke-miterlimit="10"/>
<path d="M96.2818 159.504C93.9422 158.984 91.9811 158.766 90.5533 158.665C85.7709 158.329 82.0379 158.984 81.4014 157.792C81.367 157.725 81.2638 157.524 81.3498 157.323C81.9175 155.98 89.2803 156.886 89.9684 156.97C91.4134 157.155 93.3401 157.457 95.5765 158.061" stroke="#221F20" stroke-width="0.2" stroke-miterlimit="10"/>
<path d="M95.0984 156.585C94.1522 155.73 91.9847 153.968 88.4237 153.029C85.9121 152.374 83.7273 152.391 82.3855 152.492C81.1125 152.727 79.2202 153.129 76.9495 153.784C73.3369 154.824 71.4618 155.763 71.2726 155.512C71.0489 155.243 73.0444 153.633 75.556 152.542C78.102 151.435 80.562 151.15 82.2307 151.066C81.2673 150.713 79.8739 150.294 78.1364 150.143C72.838 149.656 68.5545 151.905 68.3481 151.586C68.2105 151.384 69.8103 150.244 72.1155 149.489C76.7774 147.995 81.319 149.103 84.381 149.874C86.7894 150.462 90.7461 151.72 94.8575 154.455" stroke="#221F20" stroke-width="0.2" stroke-miterlimit="10"/>
<path d="M95.164 151.938C94.2007 151.518 91.517 150.243 89.986 147.559C88.9366 145.73 88.9022 144.069 88.971 143.18" stroke="#221F20" stroke-width="0.2" stroke-miterlimit="10"/>
<path d="M92.4648 146.754C92.7057 147.274 92.9809 147.844 93.3422 148.432C93.9959 149.522 94.7184 150.445 95.4065 151.2" stroke="#221F20" stroke-width="0.2" stroke-miterlimit="10"/>
<path d="M89.6418 139.558C89.6074 136.873 90.3643 134.961 91.018 133.736C91.448 132.947 92.2738 131.639 92.6006 131.723C92.9275 131.806 92.4974 133.367 92.1018 135.347C91.7749 136.924 91.3964 139.138 91.1728 141.873C92.3598 137.93 93.1511 136.001 93.564 136.051C94.0629 136.118 94.0113 138.971 93.4264 144.641" stroke="#221F20" stroke-width="0.2" stroke-miterlimit="10"/>
<path d="M98.5703 159.504C99.224 159.269 100.308 158.782 101.306 157.893C102.234 157.054 102.699 156.215 102.923 155.695" stroke="#221F20" stroke-width="0.2" stroke-miterlimit="10"/>
<path d="M104.147 156.586L103.27 158.482L105.953 157.895" stroke="#221F20" stroke-width="0.2" stroke-miterlimit="10"/>
<path d="M99.1406 160.143H105.076L107.192 158.75" stroke="#221F20" stroke-width="0.2" stroke-miterlimit="10"/>
<path d="M105.195 153.883L111.595 146.836C111.44 147.775 111.113 148.933 110.494 150.191C109.41 152.389 107.845 153.95 106.709 154.906" stroke="#221F20" stroke-width="0.2" stroke-miterlimit="10"/>
<path d="M108.395 155.964L113.142 151.938C113.056 152.508 112.884 153.213 112.54 153.968C111.869 155.41 110.855 156.417 110.132 157.004" stroke="#221F20" stroke-width="0.2" stroke-miterlimit="10"/>
<path d="M95.9922 147.189L99.5188 142.407C98.6586 138.951 99.3811 136.652 100.19 135.193C101.187 133.381 102.581 132.441 104.129 129.639C104.989 128.096 105.454 126.754 105.729 125.881C105.557 127.408 105.368 128.951 105.196 130.478C104.336 132.139 103.475 133.783 102.632 135.444C103.561 134.522 104.611 133.297 105.523 131.77C106.778 129.69 107.346 127.777 107.604 126.368C107.776 127.391 107.914 129.304 106.933 131.502C105.643 134.421 103.166 136.082 102.099 136.703L100.929 140.612C103.235 137.944 105.316 135.948 106.83 134.606C109.169 132.508 110.821 131.334 112.008 129.069C112.885 127.391 113.126 125.848 113.178 124.824C113.745 125.747 114.588 127.475 113.986 129.388C113.591 130.646 112.748 131.451 111.389 132.659C109.737 134.119 107.484 136.015 104.628 138.162C106.451 137.441 108.825 136.283 111.182 134.488C114.881 131.636 116.704 128.566 117.582 126.72C117.582 128.046 117.341 130.344 115.707 132.726C112.128 137.894 104.972 138.985 103.871 139.152C102.546 140.847 98.9683 145.494 97.506 147.373C97.2652 147.675 97.0932 147.91 96.99 148.044" stroke="#221F20" stroke-width="0.2" stroke-miterlimit="10"/>
<path d="M97.5234 147.374L100.293 146.317C105.832 146.837 111.148 145.378 113.849 142.274C115.707 140.143 116.395 137.19 116.188 137.123C116.102 137.089 115.844 137.492 115.535 137.928C114.571 139.254 112.197 142.475 108.413 143.582C107.759 143.784 106.675 144.019 105.213 144.002C106.245 143.666 108.086 142.945 109.6 141.435C110.15 140.881 111.01 139.875 110.804 139.74C110.494 139.522 108.155 141.737 104.233 143.482C102.271 144.354 100.5 144.841 99.2781 145.143" stroke="#221F20" stroke-width="0.2" stroke-miterlimit="10"/>
<path d="M84.6563 120.918C84.8283 119.877 84.9831 117.78 83.6929 115.549C83.1768 114.643 82.5403 113.938 81.9727 113.418C82.2135 114.509 82.4199 115.666 82.5919 116.874C82.9016 119.24 82.9876 121.421 82.9532 123.401" stroke="#221F20" stroke-width="0.2" stroke-miterlimit="10"/>
<path d="M84.1542 132.744L84.5326 127.476C85.8228 126.604 87.113 125.731 88.4204 124.876C90.0719 124.641 92.205 124.087 94.149 122.829C95.0951 122.225 96.3165 121.218 96.1101 120.983C95.9552 120.799 94.9403 121.033 92.033 122.258L87.9388 124.204C89.3494 123.617 93.2888 121.805 94.6822 118.232C94.9575 117.51 95.0951 116.806 95.1467 116.168C93.7877 117.661 92.2394 119.238 90.4848 120.849C88.2312 122.929 85.9948 124.725 83.8789 126.285C84.1025 125.53 84.309 124.792 84.5326 124.037" stroke="#221F20" stroke-width="0.2" stroke-miterlimit="10"/>
<path d="M53.7572 80.2158C55.4259 77.9005 59.5545 76.9442 62.6854 77.6656C66.0572 78.4374 67.829 81.0882 68.4828 82.0613C68.93 82.7157 69.2053 83.3029 69.3773 83.7391C69.2225 83.9572 68.9472 84.2592 68.4828 84.427C67.5538 84.7625 66.7453 84.1921 66.0744 84.578C65.6271 84.8296 65.7647 85.2155 65.283 85.3665C64.7842 85.5175 64.3197 85.1988 64.096 85.3665C63.9068 85.5175 64.2509 85.8195 64.096 86.1215C63.8724 86.5745 62.8058 86.6416 62.0489 86.7087C60.9479 86.7926 60.8619 86.6081 60.4663 86.7926C59.6233 87.1617 59.8642 88.0677 59.1589 88.2691C58.66 88.4033 58.3331 88.0174 57.4386 87.8664C56.5612 87.7322 55.7699 87.9335 55.2022 88.1516C55.013 87.9671 54.7894 87.7154 54.5657 87.4302C54.0668 86.7758 53.5164 85.8866 53.2239 84.7793C53.0003 83.9404 52.5014 81.9775 53.74 80.2494L53.7572 80.2158Z" stroke="#221F20" stroke-width="0.2" stroke-miterlimit="10"/>
<path d="M55.2192 88.1343C55.2192 90.6006 54.9267 93.6206 53.9978 96.9929C53.3957 99.1908 52.6215 101.154 51.813 102.832C51.6754 103.083 49.9551 106.271 46.2393 106.623C45.5168 106.69 44.2782 106.808 43.8653 106.304C42.9536 105.197 47.1511 102.446 49.9895 99.023C51.899 96.7245 54.0838 93.067 54.5655 87.4297" stroke="#221F20" stroke-width="0.2" stroke-miterlimit="10"/>
<path d="M57.4394 87.8477C57.8695 90.1462 58.1963 92.646 58.3512 95.364C58.5576 98.9209 57.577 106.974 57.0782 108.132C56.0288 110.598 55.4267 111.94 53.7924 112.762C53.4312 112.947 51.8313 113.735 50.8508 113.333C49.6638 112.829 49.1821 110.497 51.8141 102.83" stroke="#221F20" stroke-width="0.2" stroke-miterlimit="10"/>
<path d="M59.1598 88.25C63.0304 95.2295 64.3894 101.135 64.8711 105.38C65.0775 107.192 65.6796 112.51 64.2346 112.829C62.8412 113.131 60.106 108.668 57.8008 104.373" stroke="#221F20" stroke-width="0.2" stroke-miterlimit="10"/>
<path d="M62.5138 106.62C62.6342 104.305 62.5138 101.268 61.5848 97.8119C60.7591 94.6913 59.5377 92.1075 58.4023 90.1445" stroke="#221F20" stroke-width="0.2" stroke-miterlimit="10"/>
<path d="M66.5914 108.249C67.7783 110.379 69.3782 111.604 70.1695 111.386C70.8404 111.202 71.1501 109.926 70.8748 108.266C70.8404 108.031 70.7888 107.779 70.72 107.527C68.4493 104.944 65.8 101.37 63.6669 96.8232C61.895 93.0147 60.9661 89.5585 60.4844 86.7734" stroke="#221F20" stroke-width="0.2" stroke-miterlimit="10"/>
<path d="M73.1133 105.448C71.0145 103.132 68.761 100.314 66.6622 96.9581C64.8732 94.1059 63.5485 91.4215 62.5508 89.0391" stroke="#221F20" stroke-width="0.2" stroke-miterlimit="10"/>
<path d="M62.5508 86.6562C64.856 88.6528 67.3159 91.0855 69.6383 93.9713C70.6361 95.2128 71.5134 96.4208 72.2875 97.5785C75.47 102.578 75.5045 105.85 75.298 107.444C75.1948 108.249 74.9884 109.574 74.025 109.826C73.1649 110.061 71.9263 109.407 70.8597 108.249" stroke="#221F20" stroke-width="0.2" stroke-miterlimit="10"/>
<path d="M64.0977 86.1211C64.3557 86.8425 64.717 87.6478 65.2158 88.5203C66.0072 89.8793 66.9361 90.953 67.7446 91.7584" stroke="#221F20" stroke-width="0.2" stroke-miterlimit="10"/>
<path d="M72.7145 98.2659C73.7294 99.3061 80.8514 106.437 84.3435 105.195C84.4468 105.161 85.2209 104.876 85.4789 104.255C86.081 102.813 83.1565 101.152 79.0279 98.0813C77.3592 96.8398 73.5746 94.0044 70.7362 90.9844C68.345 88.451 66.9 86.1021 66.0742 84.5586" stroke="#221F20" stroke-width="0.2" stroke-miterlimit="10"/>
<path d="M67.0547 85.2461C69.6179 88.6016 72.4564 90.4136 74.6755 91.4538C78.2021 93.1316 80.9201 93.1987 84.0682 95.7992C85.6681 97.1078 87.5948 99.2554 86.9067 100.01C86.511 100.447 85.3928 100.296 84.6015 100.178C83.1049 99.96 80.0084 99.2554 76.671 96.2857" stroke="#221F20" stroke-width="0.2" stroke-miterlimit="10"/>
<path d="M69.3789 83.7383C73.5764 85.9865 77.2578 87.4797 79.9242 88.4696C86.4956 90.8688 91.5188 91.7747 91.6393 93.7713C91.7081 94.9289 90.091 95.8685 89.9018 95.9859C87.7514 97.2442 84.9818 96.4389 84.6894 96.355" stroke="#221F20" stroke-width="0.2" stroke-miterlimit="10"/>
<path d="M83.0707 91.742C80.5763 90.9534 77.6003 89.8293 74.4694 88.1683C72.0782 86.91 70.0999 85.6014 68.5 84.4102" stroke="#221F20" stroke-width="0.2" stroke-miterlimit="10"/>
</g>
<defs>
<clipPath id="clip0_182_1421">
<rect width="215" height="300" fill="white"/>
</clipPath>
</defs>
</svg>
