<?xml version="1.0" encoding="UTF-8"?><svg id="Layer_2" xmlns="http://www.w3.org/2000/svg" width="124.98" height="178.81" viewBox="0 0 124.98 178.81"><defs><style>.cls-1{stroke-width:.2px;}.cls-1,.cls-2{fill:none;stroke:#221f20;stroke-miterlimit:10;}.cls-2{stroke-width:.5px;}</style></defs><g id="Layer_1-2"><path class="cls-2" d="m48.37,177.26c1.67-14.34-2.6-22.72-4.97-26.41-3.72-5.79-9.38-10.34-17-16.47-7.44-5.99-7.95-5.18-10.98-8.63-1.31-1.49-4.36-5.2-10.2-20.66-1.49-3.96-3.21-8.79-4.97-14.38.58-11.01,1.15-22.03,1.73-33.04.05-.43.43-3.61,1.45-3.72.84-.09,1.69,1.91,2.05,2.77,2.17,5.19,1.66,10.36,1.52,12.19-.29,3.77-.23,9.06,1.36,15.79.36,2.68,1.32,6.3,4.21,8.18.94.61,1.62.73,2.51,1.02,4.94,1.6,6.74,5.29,12.9,11.35,1.32,1.3,2.88,2.65,6,5.35,6.83,5.91,12.21,9.8,13.07,10.46,4.98,3.77,10.9,14.29,15.43,43.41"/><path class="cls-2" d="m34.26,128.86c-1.77-3.24-3.72-6.57-5.88-9.96-5.55-8.73-11.38-16.18-16.98-22.45-.03-.07-.74-1.52.07-2.71.35-.51.83-.76,1.1-.86"/><path class="cls-2" d="m18.14,121.93c-3.36-4.58-7.14-10.55-10.47-17.92-3.73-8.24-5.79-15.78-6.97-21.77"/><path class="cls-2" d="m6.73,59.92l1.29-7.43c.09-.87.78-1.53,1.55-1.59.91-.06,1.8.74,1.79,1.79.24,3.5.35,7.32.24,11.44-.13,4.79-.54,9.19-1.09,13.13-.72,2.48-1.44,4.95-2.16,7.43"/><path class="cls-2" d="m15.08,93.89v-13.62c2.4-3.34,3.89-6.26,4.82-8.34.52-1.16,1.12-2.66,1.29-4.67.16-1.95-.07-4.71-.97-4.91-.31-.07-.82.14-1.71,1.56-2.83,4.54-6.82,11.3-8,13.35"/><path class="cls-2" d="m16.57,94.47c-.04-1.53.15-3.67,1.33-5.74,1.08-1.9,2.39-2.66,4.35-4.46,1.42-1.31,3.32-3.29,5.23-6.13.11-.11.5-.52.85-.43.43.11.72.96.52,2.13-.15,1.36-.3,2.71-.44,4.07-.84,1.2-1.7,2.41-2.58,3.62-.97,1.34-1.94,2.66-2.9,3.95-.08,2.71-.17,5.41-.25,8.12"/><path class="cls-2" d="m76.61,178.78c-1.67-14.34,2.6-22.72,4.97-26.41,3.72-5.79,9.38-10.34,17-16.47,7.44-5.99,7.95-5.18,10.98-8.63,1.31-1.49,4.36-5.2,10.2-20.66,1.49-3.96,3.21-8.79,4.97-14.38-.58-11.01-1.15-22.03-1.73-33.04-.05-.43-.43-3.61-1.45-3.72-.84-.09-1.69,1.91-2.05,2.77-2.17,5.19-1.66,10.36-1.52,12.19.29,3.77.23,9.06-1.36,15.79-.36,2.68-1.32,6.3-4.21,8.18-.94.61-1.62.73-2.51,1.02-4.94,1.6-6.74,5.29-12.9,11.35-1.32,1.3-2.88,2.65-6,5.35-6.83,5.91-12.21,9.8-13.07,10.46-4.98,3.77-10.9,14.29-15.43,43.41"/><path class="cls-2" d="m90.72,130.38c1.77-3.24,3.72-6.57,5.88-9.96,5.55-8.73,11.38-16.18,16.98-22.45.03-.07.74-1.52-.07-2.71-.35-.51-.83-.76-1.1-.86"/><path class="cls-2" d="m106.83,123.45c3.36-4.58,7.14-10.55,10.47-17.92,3.73-8.24,5.79-15.78,6.97-21.77"/><path class="cls-2" d="m118.25,61.44c-.43-2.48-.86-4.96-1.29-7.43-.09-.87-.78-1.53-1.55-1.59-.91-.06-1.8.74-1.79,1.79-.24,3.5-.35,7.32-.24,11.44.13,4.79.54,9.19,1.09,13.13.72,2.48,1.44,4.95,2.16,7.43"/><path class="cls-2" d="m109.89,95.41v-13.62c-2.4-3.34-3.89-6.26-4.82-8.34-.52-1.16-1.12-2.66-1.29-4.67-.16-1.95.07-4.71.97-4.91.31-.07.82.14,1.71,1.56,2.83,4.54,6.82,11.3,8,13.35"/><path class="cls-2" d="m108.41,95.99c.04-1.53-.15-3.67-1.33-5.74-1.08-1.9-2.39-2.66-4.35-4.46-1.42-1.31-3.32-3.29-5.23-6.13-.11-.11-.5-.52-.85-.43-.43.11-.72.96-.52,2.13.15,1.36.3,2.71.44,4.07.84,1.2,1.7,2.41,2.58,3.62.97,1.34,1.94,2.66,2.9,3.95.08,2.71.17,5.41.25,8.12"/><path class="cls-1" d="m46.57,16.69c-2.74-.18-4.96-.14-6.47-.08-4.5.19-6.65.79-9.85,0-.97-.24-3.68-.87-3.79-1.97-.1-1.03,2.08-2,3.49-2.41,1.46-.42,3.24-.57,8.16.41,2.04.4,4.78,1.03,7.96,2.03"/><path class="cls-1" d="m31.72,15.36c1.49-.22,3.66-.4,6.24-.12,2.45.26,4.4.84,5.74,1.33"/><path class="cls-1" d="m47.99,13.68c-2.43-1.2-4.87-2.41-7.3-3.61-2.75-1.2-5.3-.91-6.04.08-.09.13-.51.74.05,1.91"/><path class="cls-1" d="m47.49,12.64c-.71-.28-1.7-.72-2.82-1.34-1.85-1.03-3.39-1.89-4.28-3.41-.08-.14-1.54-2.68-.3-3.69,1.19-.98,4.15.06,5.11.39,4.11,1.44,6.49,4.42,7.79,6.62"/><path class="cls-1" d="m43.96,7.03c1.22.56,2.66,1.31,4.13,2.34,1.14.79,2.07,1.58,2.82,2.3"/><path class="cls-1" d="m49.93,7.43l.2-2.93c.14-1.48.54-1.85.86-1.92,1-.21,2.71,2.15,3.53,3.91.86,1.84.96,3.49.92,4.52"/><path class="cls-1" d="m47.53,15.69c.02-.78.22-1.54.46-2.01.94-1.86,4.53-3.27,7.67-2.62,3.43.72,5.5,3.74,4.96,4.4-.23.28-.88.07-1.39.53-.59.53-.13,1.16-.62,1.47-.65.42-1.77-.47-2.68,0-.45.23-.33.52-.83.72-.5.2-.75-.04-1.78-.02-.74.01-.73.14-1.6.17-.89.03-.89-.1-1.5-.04-1.05.1-1.4.52-1.83.34-.17-.07-.29-.21-.49-.88-.24-.81-.38-1.3-.36-2.04Z"/><path class="cls-1" d="m55.45,8.71c.03-1.17.3-3.42,2.16-5.48,1.75-1.95,4.8-3.59,5.74-3.02.86.53-.21,2.81-1.21,4.93-1.42,3-3.08,5.28-4.29,6.76"/><path class="cls-1" d="m58.97,12.38c1.74-3.97,3.95-6.72,5.64-8.48.88-.92,3.23-3.37,4.1-3.01.78.32.06,2.8-.52,4.19-.8,1.89-2.79,5.19-8.52,8.25"/><path class="cls-1" d="m59.66,13.32c4.91-2.3,7.56-4.84,9.08-6.8,1.39-1.79,2.72-4.24,3.82-4.05.74.13.96,1.39.98,1.51.13.75-.04,1.84-1.57,3.44-2.95,3.07-8.57,5.58-10.3,6.32"/><path class="cls-1" d="m73.15,5.88c.06-.36.19-.86.43-1.42.21-.49,1.28-3.02,2.83-3.16,1.47-.13,3.34,1.89,3.62,3.71.43,2.74-2.62,5.79-7.59,7.75"/><path class="cls-1" d="m76.58,4.48c-.3,1.06-.94,2.69-2.42,4.36-2.36,2.67-5.44,3.82-6.82,4.25"/><path class="cls-1" d="m62.63,15.13c1.28.06,3.04.2,5.1.57,2.65.48,4.23.76,6.01,1.61,2.8,1.35,2.99,2.64,5.11,2.85,1.13.11,2.76-.1,3.37-.96.81-1.13-.52-2.82-.77-3.13-3.4-4.12-13.27-2.97-13.94-2.88-2.31.29-4.11.84-5.21,1.23"/><path class="cls-1" d="m63.46,14.78c1.41-.46,3.7-1.04,6.59-1.09,2.83-.05,5.11.43,6.53.83"/><path class="cls-1" d="m63.46,15.98c1.73.59,4.45,1.76,6.6,4.06,2.5,2.67,3.73,6.34,2.81,6.82-.78.4-3.13-1.44-4.2-2.44-1.72-1.59-1.94-2.62-3.23-4.16-.94-1.12-2.51-2.58-5.22-3.91"/><path class="cls-1" d="m62.96,16.27c1.23.58,3.15,1.64,4.86,3.44,1.41,1.48,2.18,2.93,2.6,3.94"/><path class="cls-1" d="m58.19,17.57c1.71,1.48,3.89,3.67,5.65,6.65,1.83,3.1,2.36,5.61,2.93,5.54.57-.07.8-2.75.18-5.24-.75-2.99-2.59-5.19-3.99-6.53"/><path class="cls-1" d="m54.81,18.66c-.36,1.35-.77,3.31-.88,5.69-.06,1.37-.11,2.51.17,3.91.63,3.2,2.74,6.64,3.67,6.49.91-.15,1.2-3.88-.71-17.18"/><path class="cls-1" d="m56.18,18.51c-.13,1.36-.2,2.85-.16,4.45.05,2.15.27,4.11.58,5.84"/><path class="cls-1" d="m53.14,20.2c-1.45,2.47-2.1,4.58-2.42,6.05-.93,4.23-.06,7.24-2.11,8.13-.7.3-1.63.31-2.28,0-2.36-1.14-.71-6.46-.4-7.45.6-1.92,2-5.16,5.77-8.61"/><path class="cls-1" d="m53.14,18.66c-.94.74-2.03,1.79-2.96,3.18-2.22,3.34-2.07,6.59-1.88,8.08"/><path class="cls-1" d="m50.75,19.24c-2.82.84-4.88,1.88-6.2,2.65-2.13,1.23-4.51,2.62-6.35,5.09-1,1.34-1.5,2.55-3.31,3.58-.52.3-2.05,1.16-3.06.7-.95-.44-.89-1.81-.88-2.14.03-.7.3-2.13,3.15-4.53,3.11-2.62,6.32-3.9,7.36-4.29,1.56-.59,3.9-1.31,6.91-1.69"/><path class="cls-1" d="m41.84,22.87c-2.54,1.55-3.42,1.71-3.7,1.51-.45-.33.5-1.74.61-1.9.81-1.18,1.99-1.84,2.72-2.18"/><path class="cls-1" d="m47.75,18.7c-.68-.16-1.75-.37-3.08-.43-5.58-.24-10.09,2.48-10.5,2.73-2.64,1.63-3.5,3.23-5.99,3.35-.41.02-1.49.07-1.95-.44-.86-.96.95-3.3,2.56-4.59,1.98-1.57,4.4-2.15,6.17-2.37"/><line class="cls-1" x1="57.74" y1="22.7" x2="66.18" y2="39.29"/><path class="cls-1" d="m65.93,38.8c2.03.68,2.5,1.65,2.62,1.95.15.39.15.79.14,1.57-.01.93-.12,1.68-.21,2.19"/><path class="cls-1" d="m68.61,43.64c.69,2,1.33,4.13,1.92,6.38.86,3.33,1.47,6.48,1.89,9.42.91-1.13,2.28-2.84,3.94-4.94,4.35-5.51,6.55-8.32,8.04-10.7,1.36-2.18,3.1-5.36,4.54-9.5"/><path class="cls-1" d="m54.62,65.78l-2.44,2.11c-.63,2.21-1.53,3.84-2.25,4.93-1.33,2.04-2.58,3.07-2.26,4.54.2.94.9,1.39,1.86,2.3,2.32,2.19,1.94,3,4.04,5.66,2.09,2.65,4.25,4.12,8.16,6.78,3.59,2.44,4.39,2.43,4.85,2.3,1.67-.47,1.81-3.25,2.02-6.85,0,0,.52-8.73,1.29-18.83.51-6.56,1.02-6.96.65-10.14-.12-1.05-.34-2.36-3.15-10.86-2.77-8.36-3.52-10.02-3.96-10.93-1.75-3.66-3.62-6.51-4.95-8.37"/><path class="cls-1" d="m49.86,65.23c.35-.01.42.09.74.11.53.03.66-.24.98-.15.35.1.31.48.62.53.29.05.43-.27.79-.25.31.02.37.27.69.35.2.05.54.04,1.08-.31.16-.06.38-.16.56-.35.5-.54.2-1.3.05-1.67-.13-.34-.52-1.31-1.33-1.43-.51-.08-.79.25-1.38.1-.44-.12-.45-.34-.76-.36-.36-.02-.55.29-1.37,1.04-.74.68-.81.63-1,.93-.42.63-.48,1.4-.21,1.52.12.05.2-.06.54-.07Z"/><path class="cls-1" d="m50.2,65.27c0-.17-.01-.43-.13-.72-.15-.37-.4-.63-.55-.77"/><path class="cls-1" d="m50.84,65.34c0-.37.05-1.07.52-1.84.41-.67.96-1.1,1.29-1.33"/><line class="cls-1" x1="52.83" y1="64.91" x2="53.1" y2="62.2"/><path class="cls-1" d="m54.28,64.71c.03-.35.03-.81-.09-1.33-.12-.54-.31-.98-.49-1.31"/><path class="cls-1" d="m41.1,65.34l5.42,10.2c.85-.88,1.82-2.04,2.69-3.47.78-1.28,1.29-2.47,1.64-3.47-.51-1.1-1.02-2.2-1.53-3.3"/><path class="cls-1" d="m90.91,19.54c-.04.27-.1.67-.22,1.14-.18.7-1.06,3.86-5.98,7.84-2.08,1.68-5.65,4.14-6.37,3.64-.21-.14-.15-.5.08-1.06,1.39-3.37,5.31-4.66,8.58-8,.71-.73,1.73-1.9,2.66-3.56"/><path class="cls-1" d="m90.42,19.26c-.03-.5-.14-3.19,2.36-5.25.4-.33,2.9-2.31,5.42-1.86,2.78.49,5.12,3.82,4.26,8.05-.38-.36-.94-.78-1.65-.8-.51,0-.6.2-1.37.37-.38.09-1.64.38-2.68-.06-.62-.26-.7-.59-1.2-.6-.52-.02-.86.31-1.16.49-.58.34-1.68.49-3.98-.34Z"/><path class="cls-1" d="m90.81,20.15c.24,2.23-.38,3.71-1.1,4.7-.69.95-1.1.93-1.8,2.01-1.09,1.67-1.08,3.22-1.08,4.55,0,1.34,0,2.56.87,2.9.63.25,1.4-.09,1.58-.17,1.26-.55,1.37-1.81,1.37-1.91l1.27-6.83c.14-1.67.28-3.35.42-5.02"/><path class="cls-1" d="m82.48,28.72c1.06-1.35,2.47-2.9,4.32-4.47,1.24-1.06,2.48-1.95,3.62-2.69"/><path class="cls-1" d="m88.94,30.59c.18-1.44.55-2.55.85-3.3.64-1.59,1.33-2.38,2.01-4.3.3-.83.47-1.53.56-1.98"/><path class="cls-1" d="m90.91,30.9c-.17.68.03,1.3.53,1.58.6.34,1.42.08,1.48.06.68-.23,1.6-1.02,1.8-5.11.09-1.8.03-4.29-.56-7.28"/><path class="cls-1" d="m93.45,32.23c.4,1.89,1.27,3.11,2.12,3.12.49,0,.9-.4,1.07-.57.95-.95.76-2.26.7-2.77-.12-.89-.11-1.79-.09-2.69.03-1.36-.04-1.98-.05-3.03-.02-1.37-.11-3.46-.44-6.57"/><path class="cls-1" d="m98.88,19.88c-.14,2.67.38,4.69.88,6.03.95,2.54,2.52,4.56,2.35,7.79-.04.67-.1,1.62-.57,1.73-.92.2-2.77-2.93-4.29-5.82"/><path class="cls-1" d="m101.44,33.83c-.86-1.56-1.76-3.5-2.42-5.79-.83-2.88-1.05-5.43-1.04-7.43"/><path class="cls-1" d="m100.01,19.88v1.85l3.9,7.96c.76.58,4.6,3.5,5.97,2.73.22-.13.31-.31.35-.4.65-1.46-3.35-3.24-5.68-6.31-.87-1.14-1.84-2.9-2.09-5.52"/><path class="cls-1" d="m102.11,33.71c.13.04,1.45.44,2.14-.08.48-.36.4-.97.3-1.85-.11-.89-.39-1.6-.64-2.09"/><path class="cls-1" d="m107.85,30.59c-1.18-1-2.58-2.38-3.85-4.19-1.67-2.39-2.46-4.61-2.86-6.2"/><path class="cls-1" d="m91.94,32.64l-18.67,28.14v1.32c.86-.42,2.17-.98,3.85-1.44,3.33-.91,5.34-.65,8.93-.81,5.18-.23,8.72-.38,12.2-2.13,1.85-.93,3.81-2.38,5.69-3.78,1.37-1.02,2.46-1.91,3.21-2.54-1.14,1.73-4.06,5.56-9.77,7.61-1.7.61-3.31.94-4.7,1.12-1.53.1-3.84.26-6.67.41-3.75.2-4.18.19-5.37.37-2.71.42-6.29.98-7.82,3.25-.36.53-.98,1.71-.57,3.61-.14,2.69-.4,6.48-.93,11.03-.37,3.24-.74,5.7-1.23,8.94-.7,4.6-1.25,8.25-2.01,12.15-.81,4.12-2.1,9.83-4.24,16.73l-3.19,2.12,5.23-20.77-.51-.05c-.63.31-1.95.86-3.61.77-3.4-.17-5.22-2.8-5.54-3.26-1.58-2.27-1-4.57-.82-5.18.12,1.26.61,3.97,3.13,6.03.86.7,2.42,1.98,4.3,1.74.79-.1,1.38-.44,1.76-.7.05-.36.11-.72.16-1.08-4.52-2.9-10.89-7.71-16.36-14.92-4.32-5.69-6.7-11.04-8.05-15.04"/><polyline class="cls-1" points="76.75 53.99 75.64 49.48 77.47 53.07"/><path class="cls-1" d="m76.56,60.82c.37-.75.78-1.85.9-3.21.1-1.14-.04-2.12-.21-2.84"/><path class="cls-1" d="m77.91,53.78c.28.8.54,1.82.62,3,.11,1.45-.08,2.68-.31,3.61"/><path class="cls-1" d="m81.02,60c1.26-1,2.95-2.57,4.32-4.8,1.01-1.65,1.55-3.17,1.85-4.36.14.53.27,1.32.11,2.26-.27,1.53-1.16,2.6-1.65,3.1,1.65-1.69,3.29-3.37,4.94-5.06.02.25.04.64-.06,1.11-.35,1.7-1.82,2.68-4.08,4.43-.91.71-2.29,1.81-3.96,3.25"/><path class="cls-1" d="m85.02,59.89c.82-.4,1.73-.93,2.66-1.61,1.86-1.36,3.04-2.8,3.77-3.89-.1.57-.21,1.15-.31,1.72.73-.55,1.46-1.09,2.19-1.64-.07.28-.21.72-.5,1.2-.54.88-1.27,1.33-2.87,2.39-.51.34-1.41.94-2.6,1.73"/><path class="cls-1" d="m90.18,59.63c1.42-.92,3.04-2.14,4.64-3.7,1.05-1.03,1.9-2.03,2.59-2.94.07.27.11.62.02,1.01-.25,1.22-1.44,1.9-1.73,2.06,1.12-.57,2.43-1.33,3.76-2.36.9-.7,1.65-1.39,2.26-2.02-.39.86-1.11,2.09-2.5,3.16-.95.72-1.66.96-2.93,1.65-1.07.59-2.57,1.52-4.17,2.96"/><path class="cls-1" d="m99.31,57.14c.58-.79,1.34-1.92,2.12-3.34.81-1.49,1.22-2.54,1.38-2.5.17.04-.04,1.24-.37,2.25-.31.97-.72,1.73-1.03,2.23"/><path class="cls-1" d="m98.12,58.73c.87-.15,2.13-.42,3.59-.87,2.91-.91,4.46-1.91,4.55-1.8.11.13-1.98,1.95-5.16,2.87-2.06.6-3.93.62-5.16.55"/><path class="cls-1" d="m83,60.7c1.01.39,2.55.86,4.48,1.04.94.08,1.68.07,4.12-.06,1.42-.08,3.28-.19,5.46-.34-.63.27-1.38.54-2.24.76-1.63.43-3.09.56-4.21.58h6.2c2.22-.26,3.88-.76,5.05-1.21,1.26-.49,2.68-1.09,2.83-.91.07.09-.18.34-.41.54-1.24.66-3.15,1.51-5.64,2.04-3.93.84-7.16.43-9.49.11-2.07-.28-5.12-.89-8.51-2.34"/><path class="cls-1" d="m61.76,98.7c-2.12.54-3.62.38-4.65.1-2.14-.58-2.79-1.86-4.26-1.66-1.49.21-2.5,1.77-3.03,1.5-.11-.06-.14-.16-.16-.22-.22-.75,1.72-1.68,1.84-1.74-.37-.13-.89-.28-1.53-.34-2.72-.26-4.85,1.3-4.99,1.14-.11-.13.92-1.24,2.7-1.77,1.84-.54,3.53-.18,5.98.38,1.18.27,2.84.72,4.76,1.51"/><path class="cls-1" d="m55.97,95.07c-1.36-.31-2.5-.44-3.33-.5-2.78-.2-4.95.19-5.32-.52-.02-.04-.08-.16-.03-.28.33-.8,4.61-.26,5.01-.21.84.11,1.96.29,3.26.65"/><path class="cls-1" d="m55.28,93.33c-.55-.51-1.81-1.56-3.88-2.12-1.46-.39-2.73-.38-3.51-.32-.74.14-1.84.38-3.16.77-2.1.62-3.19,1.18-3.3,1.03-.13-.16,1.03-1.12,2.49-1.77,1.48-.66,2.91-.83,3.88-.88-.56-.21-1.37-.46-2.38-.55-3.08-.29-5.57,1.05-5.69.86-.08-.12.85-.8,2.19-1.25,2.71-.89,5.35-.23,7.13.23,1.4.35,3.7,1.1,6.09,2.73"/><path class="cls-1" d="m55.32,90.56c-.56-.25-2.12-1.01-3.01-2.61-.61-1.09-.63-2.08-.59-2.61"/><path class="cls-1" d="m53.75,87.47c.14.31.3.65.51,1,.38.65.8,1.2,1.2,1.65"/><path class="cls-1" d="m52.11,83.18c-.02-1.6.42-2.74.8-3.47.25-.47.73-1.25.92-1.2.19.05-.06.98-.29,2.16-.19.94-.41,2.26-.54,3.89.69-2.35,1.15-3.5,1.39-3.47.29.04.26,1.74-.08,5.12"/><path class="cls-1" d="m57.3,95.07c.38-.14,1.01-.43,1.59-.96.54-.5.81-1,.94-1.31"/><polyline class="cls-1" points="60.54 93.33 60.03 94.46 61.59 94.11"/><polyline class="cls-1" points="57.63 95.45 61.08 95.45 62.31 94.62"/><path class="cls-1" d="m61.15,91.72l3.72-4.2c-.09.56-.28,1.25-.64,2-.63,1.31-1.54,2.24-2.2,2.81"/><path class="cls-1" d="m63.01,92.96l2.76-2.4c-.05.34-.15.76-.35,1.21-.39.86-.98,1.46-1.4,1.81"/><path class="cls-1" d="m55.8,87.73l2.05-2.85c-.5-2.06-.08-3.43.39-4.3.58-1.08,1.39-1.64,2.29-3.31.5-.92.77-1.72.93-2.24-.1.91-.21,1.83-.31,2.74-.5.99-1,1.97-1.49,2.96.54-.55,1.15-1.28,1.68-2.19.73-1.24,1.06-2.38,1.21-3.22.1.61.18,1.75-.39,3.06-.75,1.74-2.19,2.73-2.81,3.1l-.68,2.33c1.34-1.59,2.55-2.78,3.43-3.58,1.36-1.25,2.32-1.95,3.01-3.3.51-1,.65-1.92.68-2.53.33.55.82,1.58.47,2.72-.23.75-.72,1.23-1.51,1.95-.96.87-2.27,2-3.93,3.28,1.06-.43,2.44-1.12,3.81-2.19,2.15-1.7,3.21-3.53,3.72-4.63,0,.79-.14,2.16-1.09,3.58-2.08,3.08-6.24,3.73-6.88,3.83-.77,1.01-2.85,3.78-3.7,4.9-.14.18-.24.32-.3.4"/><path class="cls-1" d="m56.69,87.84l1.61-.63h0c3.22.31,6.31-.56,7.88-2.41,1.08-1.27,1.48-3.03,1.36-3.07-.05-.02-.2.22-.38.48-.56.79-1.94,2.71-4.14,3.37-.38.12-1.01.26-1.86.25.6-.2,1.67-.63,2.55-1.53.32-.33.82-.93.7-1.01-.18-.13-1.54,1.19-3.82,2.23-1.14.52-2.17.81-2.88.99"/><path class="cls-1" d="m49.21,72.07c.1-.62.19-1.87-.56-3.2-.3-.54-.67-.96-1-1.27.14.65.26,1.34.36,2.06.18,1.41.23,2.71.21,3.89"/><path class="cls-1" d="m48.92,79.12l.22-3.14c.75-.52,1.5-1.04,2.26-1.55.96-.14,2.2-.47,3.33-1.22.55-.36,1.26-.96,1.14-1.1-.09-.11-.68.03-2.37.76l-2.38,1.16c.82-.35,3.11-1.43,3.92-3.56.16-.43.24-.85.27-1.23-.79.89-1.69,1.83-2.71,2.79-1.31,1.24-2.61,2.31-3.84,3.24.13-.45.25-.89.38-1.34"/><path class="cls-1" d="m31.25,47.81c.97-1.38,3.37-1.95,5.19-1.52,1.96.46,2.99,2.04,3.37,2.62.26.39.42.74.52,1-.09.13-.25.31-.52.41-.54.2-1.01-.14-1.4.09-.26.15-.18.38-.46.47-.29.09-.56-.1-.69,0-.11.09.09.27,0,.45-.13.27-.75.31-1.19.35-.64.05-.69-.06-.92.05-.49.22-.35.76-.76.88-.29.08-.48-.15-1-.24-.51-.08-.97.04-1.3.17-.11-.11-.24-.26-.37-.43-.29-.39-.61-.92-.78-1.58-.13-.5-.42-1.67.3-2.7Z"/><path class="cls-1" d="m32.1,52.53c0,1.47-.17,3.27-.71,5.28-.35,1.31-.8,2.48-1.27,3.48-.08.15-1.08,2.05-3.24,2.26-.42.04-1.14.11-1.38-.19-.53-.66,1.91-2.3,3.56-4.34,1.11-1.37,2.38-3.55,2.66-6.91"/><path class="cls-1" d="m33.39,52.36c.25,1.37.44,2.86.53,4.48.12,2.12-.45,6.92-.74,7.61-.61,1.47-.96,2.27-1.91,2.76-.21.11-1.14.58-1.71.34-.69-.3-.97-1.69.56-6.26"/><path class="cls-1" d="m34.39,52.6c2.25,4.16,3.04,7.68,3.32,10.21.12,1.08.47,4.25-.37,4.44-.81.18-2.4-2.48-3.74-5.04"/><path class="cls-1" d="m36.34,63.55c.07-1.38,0-3.19-.54-5.25-.48-1.86-1.19-3.4-1.85-4.57"/><path class="cls-1" d="m38.71,64.52c.69,1.27,1.62,2,2.08,1.87.39-.11.57-.87.41-1.86-.02-.14-.05-.29-.09-.44-1.32-1.54-2.86-3.67-4.1-6.38-1.03-2.27-1.57-4.33-1.85-5.99"/><path class="cls-1" d="m42.5,62.85c-1.22-1.38-2.53-3.06-3.75-5.06-1.04-1.7-1.81-3.3-2.39-4.72"/><path class="cls-1" d="m36.36,51.65c1.34,1.19,2.77,2.64,4.12,4.36.58.74,1.09,1.46,1.54,2.15,1.85,2.98,1.87,4.93,1.75,5.88-.06.48-.18,1.27-.74,1.42-.5.14-1.22-.25-1.84-.94"/><path class="cls-1" d="m37.26,51.33c.15.43.36.91.65,1.43.46.81,1,1.45,1.47,1.93"/><path class="cls-1" d="m42.27,58.57c.59.62,4.73,4.87,6.76,4.13.06-.02.51-.19.66-.56.35-.86-1.35-1.85-3.75-3.68-.97-.74-3.17-2.43-4.82-4.23-1.39-1.51-2.23-2.91-2.71-3.83"/><path class="cls-1" d="m38.98,50.81c1.49,2,3.14,3.08,4.43,3.7,2.05,1,3.63,1.04,5.46,2.59.93.78,2.05,2.06,1.65,2.51-.23.26-.88.17-1.34.1-.87-.13-2.67-.55-4.61-2.32"/><path class="cls-1" d="m40.33,49.91c2.44,1.34,4.58,2.23,6.13,2.82,3.82,1.43,6.74,1.97,6.81,3.16.04.69-.9,1.25-1.01,1.32-1.25.75-2.86.27-3.03.22"/><path class="cls-1" d="m48.29,54.68c-1.45-.47-3.18-1.14-5-2.13-1.39-.75-2.54-1.53-3.47-2.24"/></g></svg>