<?xml version="1.0" encoding="UTF-8"?><svg id="Layer_2" xmlns="http://www.w3.org/2000/svg" width="125.18" height="179.02" viewBox="0 0 125.18 179.02"><defs><style>.cls-1{fill:#221f20;stroke:#9aac6e;stroke-miterlimit:10;stroke-width:.2px;}</style></defs><g id="Layer_1-2"><path class="cls-1" d="m48.72,177.39l-.5-.06c1.2-10.28-.51-19.36-4.93-26.25-3.69-5.75-9.25-10.22-16.94-16.41-3.36-2.7-5.29-4.01-6.7-4.97-1.7-1.15-2.63-1.78-4.31-3.69-1.15-1.31-4.22-4.79-10.25-20.74-1.78-4.72-3.46-9.56-4.97-14.4v-.04s.07-1.61.07-1.61l1.64-31.48c.13-1.16.55-3.83,1.67-3.96.91-.1,1.68,1.42,2.31,2.92,2.12,5.05,1.71,10.17,1.56,12.09l-.02.22c-.38,4.98.07,10.26,1.35,15.71.53,3.91,1.91,6.6,4.11,8.02.72.47,1.28.63,1.93.83.17.05.34.1.53.16,3.49,1.13,5.43,3.27,8.36,6.51,1.29,1.43,2.76,3.04,4.64,4.89,1.32,1.3,2.88,2.65,5.99,5.33,6.07,5.25,10.99,8.91,12.61,10.11l.45.34c6.59,4.99,11.81,19.65,15.52,43.57l-.49.08c-3.7-23.79-8.85-38.34-15.33-43.25l-.45-.33c-1.62-1.2-6.56-4.87-12.64-10.14-3.12-2.7-4.68-4.05-6.01-5.36-1.89-1.86-3.36-3.48-4.66-4.91-2.88-3.18-4.78-5.28-8.15-6.37-.18-.06-.35-.11-.52-.16-.65-.2-1.27-.38-2.05-.89-2.33-1.5-3.78-4.31-4.33-8.35-1.29-5.47-1.75-10.81-1.36-15.84l.02-.22c.17-2.07.55-6.92-1.52-11.86-.93-2.23-1.5-2.66-1.79-2.62-.49.05-1.01,1.53-1.23,3.5l-1.72,32.98c1.51,4.81,3.18,9.63,4.95,14.33,5.99,15.86,9.01,19.29,10.15,20.58,1.64,1.86,2.5,2.45,4.22,3.61,1.42.96,3.36,2.28,6.73,4.99,7.73,6.22,13.31,10.71,17.05,16.53,4.49,6.99,6.22,16.18,5.01,26.58Z"/><path class="cls-1" d="m34.14,129.07c-1.84-3.36-3.81-6.71-5.87-9.95-5.01-7.87-10.71-15.42-16.95-22.42l-.04-.05c-.03-.07-.81-1.65.08-2.96.29-.42.7-.75,1.21-.95l.19.46c-.29.12-.69.35-.98.77-.67.99-.15,2.23-.06,2.43,6.25,7.02,11.96,14.57,16.98,22.46,2.06,3.25,4.04,6.6,5.88,9.98l-.44.24Z"/><path class="cls-1" d="m18.04,122.17c-4.11-5.6-7.64-11.65-10.5-17.97-3.15-6.97-5.5-14.31-6.99-21.82l.49-.1c1.48,7.48,3.82,14.78,6.96,21.71,2.84,6.29,6.36,12.31,10.45,17.88l-.4.3Z"/><path class="cls-1" d="m8.7,84.86l-.48-.14,2.16-7.43c.59-4.29.96-8.7,1.08-13.07.1-3.79.02-7.63-.24-11.41,0-.45-.18-.88-.5-1.17-.29-.27-.67-.42-1.03-.39-.67.05-1.24.63-1.32,1.36l-1.29,7.45-.49-.09,1.29-7.44c.1-.95.86-1.73,1.78-1.79.49-.04,1.02.16,1.41.52.42.39.66.95.65,1.52.26,3.78.34,7.64.24,11.44-.12,4.38-.49,8.81-1.09,13.16l-2.16,7.46Z"/><path class="cls-1" d="m15.43,93.99h-.5v-13.7l.05-.07c1.92-2.68,3.54-5.47,4.79-8.3.57-1.28,1.11-2.72,1.27-4.59.19-2.26-.19-4.51-.77-4.64-.11-.02-.55.01-1.44,1.45-2.87,4.61-6.88,11.41-8,13.34l-.43-.25c1.11-1.93,5.13-8.75,8.01-13.36.79-1.26,1.42-1.8,1.98-1.67,1.28.28,1.27,3.83,1.16,5.17-.16,1.95-.72,3.43-1.31,4.75-1.26,2.84-2.88,5.63-4.8,8.32v13.54Z"/><path class="cls-1" d="m23.03,99.71l-.5-.02.26-8.2.05-.06c.96-1.29,1.93-2.6,2.9-3.94.87-1.2,1.71-2.39,2.54-3.57l.44-4c.19-1.14-.12-1.81-.34-1.86-.1-.03-.32.05-.61.36-1.53,2.28-3.3,4.36-5.24,6.15-.53.48-1,.89-1.45,1.27-1.21,1.03-2.08,1.78-2.85,3.13-.91,1.6-1.35,3.48-1.3,5.61h-.5c-.05-2.2.41-4.18,1.36-5.85.82-1.43,1.76-2.24,2.96-3.26.44-.37.91-.78,1.43-1.26,1.91-1.76,3.66-3.81,5.19-6.09.52-.55.89-.59,1.12-.53.61.16.91,1.18.71,2.42l-.48,4.17c-.84,1.2-1.7,2.41-2.58,3.63-.95,1.32-1.91,2.62-2.86,3.89l-.25,8.04Z"/><path class="cls-1" d="m76.46,178.91c-1.21-10.4.52-19.59,5.01-26.58,3.74-5.82,9.32-10.31,17.05-16.53,3.38-2.72,5.32-4.03,6.73-4.99,1.72-1.16,2.58-1.75,4.22-3.61,1.14-1.29,4.16-4.72,10.15-20.58,1.77-4.7,3.44-9.52,4.95-14.33l-1.72-33c-.22-1.96-.74-3.43-1.23-3.49-.3-.04-.86.39-1.79,2.62-2.07,4.94-1.68,9.79-1.52,11.86l.02.22c.39,5.03-.07,10.37-1.36,15.86-.54,4.02-2,6.83-4.32,8.33-.78.5-1.4.69-2.05.89-.17.05-.34.1-.52.16-3.36,1.09-5.27,3.19-8.15,6.37-1.3,1.43-2.77,3.06-4.66,4.91-1.32,1.3-2.88,2.65-5.98,5.33-6.11,5.29-11.05,8.96-12.67,10.16l-.45.33c-6.48,4.91-11.64,19.46-15.33,43.25l-.49-.08c3.72-23.92,8.94-38.58,15.52-43.57l.45-.34c1.62-1.2,6.54-4.86,12.61-10.11,3.12-2.7,4.67-4.05,5.99-5.33,1.88-1.85,3.35-3.47,4.64-4.89,2.94-3.24,4.87-5.38,8.36-6.51.18-.06.36-.11.53-.16.65-.19,1.21-.36,1.93-.83,2.2-1.42,3.58-4.11,4.1-8,1.29-5.47,1.74-10.76,1.36-15.73l-.02-.22c-.15-1.92-.56-7.04,1.56-12.09.63-1.5,1.4-3.03,2.31-2.92,1.12.13,1.54,2.8,1.67,3.94l1.73,33.1v.04c-1.53,4.83-3.2,9.67-4.99,14.4-6.02,15.94-9.09,19.43-10.25,20.74-1.68,1.91-2.62,2.54-4.31,3.69-1.41.96-3.34,2.26-6.7,4.97-7.69,6.19-13.25,10.66-16.94,16.42-4.42,6.89-6.13,15.97-4.93,26.25l-.5.06Z"/><path class="cls-1" d="m91.04,130.59l-.44-.24c1.84-3.37,3.82-6.73,5.88-9.98,5.01-7.89,10.72-15.44,16.98-22.46.09-.2.61-1.44-.06-2.43-.29-.43-.7-.66-.98-.77l.19-.46c.51.21.92.54,1.21.95.9,1.32.12,2.9.08,2.96l-.04.05c-6.24,7-11.95,14.55-16.95,22.42-2.06,3.24-4.03,6.58-5.87,9.95Z"/><path class="cls-1" d="m107.14,123.69l-.4-.3c4.09-5.57,7.6-11.59,10.45-17.88,3.14-6.93,5.48-14.24,6.96-21.71l.49.1c-1.49,7.51-3.84,14.86-6.99,21.82-2.86,6.32-6.39,12.37-10.5,17.97Z"/><path class="cls-1" d="m116.48,86.38l-2.16-7.43c-.61-4.38-.98-8.81-1.1-13.19-.1-3.8-.02-7.66.24-11.46,0-.56.24-1.11.65-1.5.39-.37.9-.56,1.41-.52.91.06,1.68.84,1.78,1.81l1.29,7.42-.49.09-1.29-7.44c-.08-.75-.65-1.33-1.32-1.38-.36-.03-.74.12-1.03.39-.32.3-.5.72-.5,1.15-.26,3.8-.34,7.64-.24,11.43.12,4.36.48,8.77,1.09,13.1l2.15,7.39-.48.14Z"/><path class="cls-1" d="m110.24,95.5h-.5v-13.54c-1.92-2.69-3.54-5.48-4.8-8.32-.59-1.32-1.15-2.8-1.31-4.75-.11-1.34-.12-4.89,1.16-5.17.56-.12,1.19.41,1.98,1.67,2.86,4.59,6.89,11.42,8.01,13.36l-.43.25c-1.12-1.94-5.14-8.76-8-13.34-.9-1.44-1.33-1.48-1.44-1.45-.58.13-.96,2.38-.77,4.64.15,1.87.7,3.31,1.27,4.59,1.26,2.83,2.87,5.62,4.79,8.3l.05.07v13.7Z"/><path class="cls-1" d="m102.15,101.23l-.25-8.04c-.95-1.27-1.9-2.57-2.86-3.89-.88-1.22-1.74-2.43-2.58-3.63l-.04-.12-.44-4.07c-.2-1.23.1-2.24.71-2.4.23-.06.6-.02,1.1.5,1.56,2.31,3.3,4.36,5.22,6.12.52.48,1,.88,1.43,1.26,1.2,1.02,2.15,1.83,2.96,3.26.96,1.68,1.42,3.65,1.36,5.87h-.5c.05-2.13-.39-4.02-1.3-5.62-.77-1.35-1.65-2.1-2.85-3.13-.44-.38-.92-.79-1.45-1.27-1.94-1.79-3.71-3.87-5.27-6.18-.27-.27-.48-.35-.58-.33-.21.05-.53.67-.34,1.85l.44,4.02c.83,1.18,1.67,2.37,2.54,3.57.97,1.34,1.94,2.65,2.9,3.94l.05.06.26,8.2-.5.02Z"/><path class="cls-1" d="m33.68,17.2c-1.09,0-2.15-.1-3.36-.4l-.1-.03c-1.09-.27-3.65-.89-3.76-2.03-.11-1.14,2.19-2.11,3.56-2.51,1.59-.46,3.44-.54,8.21.4,2.68.53,5.36,1.21,7.97,2.03l-.06.19c-2.61-.81-5.28-1.5-7.95-2.02-4.73-.94-6.56-.86-8.12-.41-1.42.41-3.51,1.37-3.42,2.3.1,1,2.65,1.62,3.61,1.86l.1.03c2.26.56,4,.42,6.41.22.99-.08,2.1-.17,3.41-.22,2.12-.09,4.3-.06,6.48.08v.2c-2.18-.14-4.35-.17-6.47-.08-1.3.05-2.42.14-3.41.22-1.15.09-2.14.17-3.12.17Z"/><path class="cls-1" d="m43.77,16.76c-1.82-.67-3.74-1.11-5.72-1.32-2.07-.22-4.16-.18-6.22.12l-.03-.2c2.07-.3,4.18-.34,6.27-.12,1.99.21,3.93.66,5.76,1.34l-.07.19Z"/><path class="cls-1" d="m48.05,13.87l-7.3-3.61c-2.14-.94-5.03-1.14-5.92.05-.15.2-.44.77.06,1.81l-.18.08c-.54-1.14-.2-1.79-.04-2.02.76-1.02,3.33-1.35,6.16-.11l7.31,3.61-.09.18Z"/><path class="cls-1" d="m47.55,12.84c-.98-.39-1.93-.84-2.83-1.35-1.83-1.02-3.41-1.9-4.32-3.44-.07-.11-1.6-2.74-.28-3.82,1.24-1.02,4.22.03,5.2.38,4.09,1.43,6.52,4.42,7.84,6.67l-.17.1c-1.3-2.22-3.7-5.17-7.73-6.58-.96-.33-3.86-1.35-5.01-.41-1.18.97.31,3.54.32,3.56.88,1.49,2.36,2.32,4.24,3.37.9.5,1.84.95,2.81,1.34l-.07.19Z"/><path class="cls-1" d="m50.94,11.84c-.86-.82-1.8-1.59-2.81-2.29-1.27-.88-2.65-1.67-4.11-2.33l.08-.18c1.47.67,2.87,1.46,4.15,2.35,1.01.71,1.97,1.48,2.83,2.31l-.14.14Z"/><path class="cls-1" d="m55.65,11.13h-.2c.05-1.57-.26-3.07-.92-4.49-.81-1.74-2.52-4.06-3.42-3.86-.4.09-.67.72-.78,1.83l-.2,2.93h-.2s.2-2.94.2-2.94c.12-1.24.43-1.9.94-2.01,1.06-.23,2.8,2.16,3.64,3.97.67,1.44.98,2.98.93,4.57Z"/><path class="cls-1" d="m48.7,18.86c-.09,0-.17-.02-.26-.05-.21-.09-.34-.25-.55-.95-.24-.82-.39-1.32-.37-2.07.02-.73.2-1.52.47-2.05,1.11-2.19,5.1-3.23,7.78-2.67,2.74.57,4.62,2.59,5.04,3.77.12.35.11.62-.03.79-.13.15-.33.18-.57.22-.27.04-.57.08-.84.32-.28.25-.3.52-.32.78-.02.26-.04.52-.32.7-.34.22-.79.12-1.25,0-.49-.11-.99-.23-1.44,0-.19.1-.27.2-.34.32-.09.13-.2.29-.49.4-.31.12-.53.09-.84.05-.24-.03-.53-.07-.97-.06-.35,0-.53.04-.72.07-.2.04-.42.08-.88.09-.46.01-.69-.01-.87-.03-.18-.02-.32-.04-.62,0-.48.05-.81.16-1.08.25-.2.07-.37.13-.54.13Zm5.52-7.75c-2.41,0-5.16.98-6.04,2.71-.26.51-.43,1.26-.45,1.97h0c-.02.72.12,1.21.36,2.01.2.68.31.77.43.82.19.08.37.02.66-.08.28-.1.62-.21,1.12-.26.31-.03.47-.01.66.01.19.02.4.05.84.03.44-.01.65-.05.85-.09.2-.04.38-.07.76-.08.46,0,.76.03,1.01.06.3.04.48.06.74-.04.24-.09.31-.2.4-.33.08-.12.18-.26.42-.38.51-.26,1.08-.13,1.58-.01.44.1.83.19,1.1.02.19-.12.21-.3.22-.55.02-.27.04-.61.38-.92.31-.28.66-.33.94-.37.2-.03.37-.05.44-.15.09-.11.09-.32-.01-.59-.4-1.14-2.23-3.09-4.89-3.64-.47-.1-.99-.15-1.52-.15Z"/><path class="cls-1" d="m58.03,12.06l-.15-.13c1.72-2.1,3.16-4.37,4.28-6.74.95-2.02,2.04-4.32,1.25-4.8-.87-.53-3.87,1.06-5.62,3-1.7,1.89-2.1,3.99-2.13,5.42h-.2c.05-2.1.8-4.02,2.18-5.55,1.68-1.86,4.83-3.67,5.87-3.04.94.57-.13,2.85-1.17,5.05-1.12,2.38-2.57,4.67-4.31,6.78Z"/><path class="cls-1" d="m59.81,13.51l-.09-.18c4.3-2.29,7.15-5.05,8.48-8.2.48-1.14,1.08-3.09.78-3.83-.05-.12-.11-.19-.2-.23-.8-.33-3.2,2.17-3.98,2.99-2.34,2.45-4.23,5.29-5.62,8.45l-.18-.08c1.4-3.18,3.3-6.05,5.66-8.51,1.52-1.59,3.38-3.37,4.21-3.03.14.06.24.17.31.33.35.86-.36,2.98-.78,3.99-1.35,3.19-4.23,5.98-8.57,8.29Z"/><path class="cls-1" d="m61.81,13.93l-.08-.18c2.68-1.15,7.59-3.49,10.27-6.29,1.21-1.26,1.71-2.35,1.54-3.35-.08-.48-.36-1.33-.9-1.43-.77-.13-1.77,1.28-2.73,2.65-.32.46-.66.93-.99,1.37-2.07,2.67-5.13,4.97-9.11,6.83l-.08-.18c3.95-1.85,6.99-4.12,9.04-6.77.33-.43.67-.9.99-1.36,1.05-1.48,2.04-2.88,2.93-2.73.78.14,1.02,1.35,1.07,1.59.18,1.06-.34,2.22-1.6,3.52-2.71,2.82-7.64,5.18-10.34,6.34Z"/><path class="cls-1" d="m72.58,12.94l-.07-.19c5-1.97,7.95-4.96,7.53-7.64-.29-1.82-2.16-3.75-3.52-3.62-.96.09-1.94,1.19-2.75,3.1-.19.45-.33.93-.42,1.4l-.2-.04c.09-.49.23-.98.43-1.45.49-1.15,1.52-3.1,2.92-3.22,1.58-.14,3.45,2.02,3.73,3.79.44,2.77-2.56,5.86-7.65,7.86Z"/><path class="cls-1" d="m67.48,13.28l-.06-.19c1.92-.61,4.65-1.83,6.77-4.22,1.14-1.29,1.95-2.75,2.39-4.32l.19.05c-.45,1.6-1.27,3.08-2.44,4.4-2.15,2.43-4.92,3.67-6.86,4.28Z"/><path class="cls-1" d="m79.51,20.4c-.21,0-.41-.01-.58-.03-1.23-.12-1.84-.61-2.62-1.23-.59-.47-1.32-1.05-2.53-1.63-1.76-.85-3.35-1.13-5.98-1.61-1.67-.3-3.38-.49-5.08-.57v-.2c1.72.08,3.44.27,5.12.57,2.65.48,4.25.76,6.03,1.62,1.23.59,1.97,1.18,2.56,1.66.78.62,1.34,1.07,2.51,1.18,1.18.11,2.71-.12,3.28-.92.76-1.06-.51-2.69-.77-3.01-3.4-4.12-13.42-2.9-13.85-2.85-1.78.22-3.53.64-5.19,1.22l-.07-.19c1.68-.59,3.44-1.01,5.23-1.23.43-.06,10.56-1.28,14.03,2.92.39.47,1.6,2.1.78,3.25-.58.81-1.9,1.03-2.89,1.03Z"/><path class="cls-1" d="m63.59,14.97l-.06-.19c2.12-.69,4.35-1.06,6.62-1.1,2.24-.03,4.44.24,6.56.84l-.05.19c-2.1-.59-4.28-.87-6.5-.83-2.26.04-4.46.4-6.56,1.09Z"/><path class="cls-1" d="m72.7,27.11c-1.26,0-3.97-2.49-4-2.52-1.05-.97-1.54-1.73-2.06-2.53-.33-.51-.67-1.04-1.18-1.64-1.27-1.51-3.02-2.82-5.19-3.89l.09-.18c2.2,1.08,3.97,2.4,5.26,3.94.51.61.86,1.15,1.19,1.66.51.79,1,1.53,2.03,2.49,1.31,1.21,3.44,2.76,4.08,2.42.12-.06.2-.2.23-.4.2-1.19-1.06-4.12-3.07-6.26-1.64-1.76-3.85-3.11-6.56-4.03l.06-.19c2.74.93,4.97,2.31,6.64,4.09,2.1,2.25,3.33,5.19,3.12,6.43-.05.27-.16.45-.34.54-.09.05-.19.07-.31.07Z"/><path class="cls-1" d="m70.43,23.79c-.59-1.42-1.46-2.73-2.58-3.91-1.32-1.39-2.95-2.54-4.83-3.42l.08-.18c1.91.89,3.55,2.06,4.89,3.47,1.14,1.19,2.02,2.53,2.62,3.97l-.18.08Z"/><path class="cls-1" d="m66.84,29.96c-.35,0-.61-.61-1.11-1.77-.42-.99-1-2.34-1.88-3.81-1.42-2.4-3.31-4.63-5.63-6.63l.13-.15c2.33,2.01,4.24,4.26,5.67,6.68.88,1.49,1.46,2.85,1.89,3.84.4.92.71,1.65.93,1.65,0,0,0,0,.01,0,.05,0,.1-.06.13-.11.41-.6.48-2.92-.04-5.01-.58-2.33-1.91-4.51-3.96-6.49l.14-.14c2.07,2,3.42,4.22,4.01,6.58.54,2.17.45,4.52,0,5.17-.08.12-.17.18-.27.19-.01,0-.03,0-.04,0Z"/><path class="cls-1" d="m57.81,34.95c-1.08,0-3.12-3.58-3.71-6.57-.28-1.41-.23-2.58-.17-3.93.08-1.92.38-3.85.88-5.71l.19.05c-.5,1.85-.79,3.76-.87,5.67-.06,1.39-.11,2.49.17,3.88.29,1.45.93,3.12,1.71,4.47.68,1.18,1.4,1.94,1.8,1.94.02,0,.03,0,.05,0,.74-.12,1.2-3.18-.79-17.07l.2-.03c2.18,15.23,1.4,17.16.63,17.29-.02,0-.05,0-.08,0Z"/><path class="cls-1" d="m56.6,28.92c-.34-1.94-.54-3.91-.58-5.86-.03-1.48.02-2.98.16-4.46l.2.02c-.14,1.47-.2,2.96-.16,4.44.04,1.94.24,3.9.58,5.83l-.2.04Z"/><path class="cls-1" d="m47.55,34.8c-.42,0-.83-.08-1.16-.24-2.13-1.02-1.2-5.18-.45-7.57.97-3.1,2.92-6.01,5.8-8.65l.13.15c-2.85,2.61-4.79,5.5-5.74,8.56-1.69,5.42-.51,6.92.35,7.33.61.29,1.51.3,2.19,0,1.26-.55,1.36-1.93,1.52-4.03.09-1.18.19-2.52.52-4.03.45-2.05,1.27-4.09,2.43-6.08l.17.1c-1.15,1.97-1.96,3.99-2.41,6.02-.33,1.5-.43,2.83-.52,4-.16,2.09-.27,3.6-1.64,4.2-.36.16-.79.24-1.2.24Z"/><path class="cls-1" d="m48.31,30.02c-.26-2.02-.15-5.08,1.89-8.14.78-1.17,1.78-2.25,2.98-3.2l.12.16c-1.18.94-2.16,2-2.93,3.15-2,3.01-2.12,6.02-1.86,8.01l-.2.03Z"/><path class="cls-1" d="m32.59,31.59c-.25,0-.49-.04-.7-.14-.46-.21-1-.77-.93-2.23.02-.49.09-1.99,3.18-4.6,2.85-2.4,5.85-3.73,7.39-4.31,2.18-.82,4.52-1.39,6.94-1.69l.02.2c-2.4.3-4.72.86-6.89,1.68-1.52.57-4.5,1.89-7.33,4.27-3.03,2.55-3.09,3.98-3.11,4.45-.05,1.07.23,1.77.82,2.04.96.44,2.47-.41,2.97-.7,1.39-.79,2.02-1.71,2.67-2.68.19-.28.39-.58.61-.88,1.85-2.48,4.25-3.88,6.37-5.11,1.89-1.09,3.98-1.99,6.22-2.66l.06.19c-2.23.66-4.31,1.55-6.18,2.64-2.11,1.22-4.5,2.61-6.32,5.06-.22.29-.42.59-.61.87-.67.99-1.31,1.93-2.74,2.74-.41.23-1.49.85-2.45.85Z"/><path class="cls-1" d="m38.51,24.65c-.16,0-.26-.04-.33-.09-.49-.36.24-1.54.58-2.03.63-.91,1.55-1.66,2.76-2.21l.08.18c-1.17.54-2.07,1.26-2.68,2.14-.49.71-.89,1.56-.63,1.76.19.14.9.12,3.59-1.51l.1.17c-2.1,1.28-3.03,1.59-3.48,1.59Z"/><path class="cls-1" d="m27.88,24.56c-.51,0-1.25-.07-1.62-.49-.19-.21-.27-.49-.24-.82.1-1.16,1.52-2.88,2.82-3.91,2-1.59,4.49-2.18,6.22-2.39l.02.2c-1.71.21-4.15.78-6.12,2.35-1.26,1-2.65,2.67-2.74,3.77-.02.28.04.51.19.67.43.48,1.48.43,1.87.41,1.63-.08,2.53-.79,3.77-1.77.6-.48,1.29-1.02,2.17-1.56.49-.31,4.98-2.98,10.56-2.75,1.04.04,2.09.19,3.1.43l-.05.19c-1-.24-2.03-.38-3.06-.43-5.51-.25-9.95,2.42-10.44,2.72-.87.54-1.55,1.08-2.15,1.55-1.23.97-2.19,1.73-3.89,1.82-.1,0-.24.01-.4.01Z"/><rect class="cls-1" x="61.96" y="21.79" width=".2" height="18.61" transform="translate(-7.35 31.52) rotate(-26.96)"/><path class="cls-1" d="m68.68,44.63l-.2-.03c.12-.71.19-1.45.21-2.18.01-.8.01-1.17-.13-1.54-.18-.45-.75-1.29-2.56-1.9l.06-.19c1.89.63,2.49,1.53,2.68,2.01.16.41.16.84.15,1.61-.01.74-.08,1.48-.21,2.21Z"/><path class="cls-1" d="m72.45,59.77l-.03-.23c-.45-3.15-1.09-6.31-1.89-9.4-.55-2.13-1.2-4.28-1.92-6.37l.19-.06c.72,2.1,1.36,4.25,1.92,6.39.79,3.03,1.41,6.12,1.86,9.2,1.26-1.57,2.54-3.17,3.79-4.77,4.51-5.72,6.57-8.35,8.03-10.69,1.85-2.97,3.37-6.16,4.53-9.48l.19.07c-1.16,3.34-2.7,6.54-4.55,9.52-1.47,2.35-3.53,4.98-8.04,10.71-1.31,1.66-2.63,3.32-3.94,4.95l-.14.18Z"/><path class="cls-1" d="m66.36,94.66c-.59,0-1.7-.4-4.59-2.37-3.93-2.67-6.09-4.14-8.18-6.8-.9-1.15-1.35-1.96-1.75-2.67-.52-.93-.97-1.74-2.28-2.98-.18-.17-.35-.32-.51-.47-.7-.64-1.21-1.09-1.38-1.89-.25-1.14.4-2.01,1.28-3.21.3-.41.65-.88.99-1.41.98-1.5,1.73-3.15,2.23-4.9v-.03s2.47-2.13,2.47-2.13l.13.15-2.42,2.09c-.51,1.76-1.27,3.42-2.25,4.93-.35.53-.69,1-1,1.42-.86,1.16-1.48,2-1.25,3.05.16.73.62,1.15,1.32,1.78.16.14.33.3.51.47,1.33,1.26,1.79,2.08,2.32,3.03.39.71.84,1.51,1.73,2.64,2.08,2.64,4.23,4.1,8.14,6.76,3.32,2.26,4.25,2.44,4.77,2.29,1.58-.44,1.73-3.16,1.94-6.6v-.16c.01-.09.53-8.85,1.3-18.83.19-2.5.39-4.13.53-5.32.24-1.96.34-2.85.11-4.8-.11-.97-.24-2.06-3.15-10.84-2.83-8.57-3.56-10.1-3.96-10.92-1.38-2.89-3.04-5.7-4.94-8.35l.16-.12c1.91,2.67,3.58,5.49,4.96,8.39.39.82,1.13,2.36,3.96,10.94,2.91,8.8,3.04,9.91,3.16,10.88.23,1.98.12,2.88-.11,4.85-.14,1.19-.34,2.81-.53,5.31-.77,9.98-1.29,18.74-1.29,18.83v.16c-.22,3.52-.38,6.3-2.09,6.78-.1.03-.21.05-.34.05Z"/><path class="cls-1" d="m53.96,66.05c-.07,0-.14,0-.21-.02-.17-.04-.28-.13-.37-.2-.1-.08-.17-.14-.31-.15-.16,0-.26.06-.37.13-.12.07-.25.16-.43.13-.2-.03-.28-.17-.36-.29-.07-.11-.13-.21-.27-.25-.12-.04-.21,0-.33.04-.15.06-.33.13-.62.11-.16,0-.26-.04-.35-.06-.11-.03-.21-.06-.38-.05h0c-.16,0-.26.03-.34.05-.08.02-.16.04-.25,0-.06-.03-.15-.09-.2-.25-.1-.35.05-.95.36-1.42.12-.18.2-.25.38-.4.13-.11.32-.26.63-.55.2-.19.37-.34.5-.48.43-.42.63-.6.94-.59.19,0,.29.09.39.16.09.07.19.15.39.2.3.08.5.02.73-.04.19-.05.39-.1.65-.06.86.13,1.27,1.16,1.41,1.49.15.39.48,1.19-.07,1.77-.15.16-.35.29-.6.38-.34.22-.65.34-.93.34Zm-.91-.57s.03,0,.04,0c.2.01.32.11.42.19.08.07.16.13.29.16.26.07.59-.03,1-.3.24-.09.41-.2.54-.34.46-.49.18-1.19.03-1.56-.12-.31-.5-1.26-1.25-1.37-.21-.03-.38.01-.56.06-.24.06-.48.13-.83.04-.24-.06-.36-.16-.46-.23-.09-.07-.15-.12-.28-.12-.23-.02-.4.15-.79.53-.14.13-.3.29-.51.48-.32.29-.51.45-.64.56-.18.15-.24.2-.34.35-.31.46-.41,1-.33,1.25.01.04.04.1.08.12.02.01.05,0,.12-.01.08-.02.2-.05.38-.06h0c.21,0,.33.03.44.06.09.02.17.05.31.06.25.01.4-.04.54-.09.14-.05.27-.1.46-.05.21.06.31.21.39.33.07.12.12.18.22.2.1.02.19-.03.29-.1.11-.07.25-.16.44-.16Z"/><path class="cls-1" d="m50.4,65.37h-.2c0-.24-.03-.47-.12-.69-.11-.27-.29-.52-.52-.73l.13-.15c.26.23.46.51.58.8.1.25.15.5.14.77Z"/><path class="cls-1" d="m50.84,65.44c0-.66.18-1.31.53-1.89.32-.52.77-.99,1.32-1.36l.11.17c-.53.35-.96.8-1.26,1.3-.34.55-.51,1.17-.5,1.79h-.2Z"/><rect class="cls-1" x="51.71" y="63.55" width="2.72" height=".2" transform="translate(-15.46 110.25) rotate(-84.4)"/><path class="cls-1" d="m54.48,64.82l-.2-.02c.04-.43,0-.87-.08-1.3-.1-.44-.26-.87-.48-1.28l.17-.1c.23.43.4.88.5,1.34.1.45.13.91.09,1.36Z"/><path class="cls-1" d="m46.6,75.8l-.06-.12-5.42-10.2.18-.09,5.35,10.08c.99-1.04,1.86-2.17,2.58-3.35.66-1.09,1.21-2.24,1.61-3.41l-1.51-3.27.18-.08,1.54,3.34v.04c-.43,1.2-.98,2.37-1.66,3.49-.75,1.23-1.66,2.4-2.7,3.48l-.1.1Z"/><path class="cls-1" d="m78.7,32.43c-.13,0-.23-.02-.31-.08-.3-.21-.15-.72.05-1.18.86-2.08,2.62-3.35,4.66-4.81,1.31-.94,2.66-1.92,3.94-3.22,1.03-1.06,1.92-2.25,2.64-3.54l.17.1c-.73,1.31-1.63,2.51-2.67,3.58-1.29,1.32-2.65,2.3-3.97,3.24-2.02,1.45-3.76,2.7-4.59,4.73-.22.54-.26.84-.12.94.56.39,3.69-1.56,6.25-3.64,4.51-3.65,5.66-6.66,5.94-7.79.1-.37.17-.76.22-1.13l.2.03c-.05.38-.12.77-.22,1.16-.87,3.43-4.49,6.66-6.01,7.89-1.37,1.11-4.9,3.73-6.18,3.73Z"/><path class="cls-1" d="m102.62,20.5l-.13-.13c-.52-.5-1.05-.76-1.59-.77-.01,0-.02,0-.03,0-.24,0-.38.06-.59.14-.17.07-.39.15-.73.23-.42.1-1.67.39-2.74-.06-.28-.12-.45-.25-.59-.35-.19-.14-.31-.23-.57-.24-.38-.01-.66.18-.91.34-.07.05-.14.09-.2.13-.8.47-2.17.35-4.06-.34l-.06-.02v-.07c-.05-.75-.02-3.35,2.39-5.33.67-.55,3.05-2.32,5.5-1.89,1.29.23,2.47,1.04,3.31,2.28,1.1,1.62,1.47,3.72,1.03,5.9l-.04.18Zm-1.75-1.1h.04c.54.01,1.07.25,1.59.7.38-2.06.01-4.03-1.03-5.57-.8-1.18-1.96-1.98-3.18-2.19-2.42-.43-4.88,1.46-5.34,1.84-2.27,1.87-2.36,4.3-2.33,5.1,1.81.65,3.1.76,3.83.33.06-.04.13-.08.19-.12.26-.17.57-.39,1.02-.38.32.01.48.14.68.28.14.1.3.22.55.33.67.28,1.55.3,2.61.05.33-.08.54-.16.7-.23.21-.08.38-.15.66-.15Z"/><path class="cls-1" d="m88.32,34.61c-.23,0-.41-.04-.54-.1-.92-.37-.93-1.64-.93-3,0-1.37,0-2.92,1.09-4.61.38-.59.69-.86.98-1.12.25-.22.51-.46.82-.89.91-1.25,1.27-2.81,1.08-4.63l.2-.02c.2,1.87-.18,3.47-1.12,4.77-.33.45-.59.69-.85.92-.3.27-.58.52-.94,1.08-1.07,1.64-1.07,3.16-1.06,4.5,0,1.28,0,2.5.8,2.81.27.11.75.16,1.51-.17,1.2-.53,1.31-1.7,1.31-1.83l1.27-6.85.42-5.01.2.02-.42,5.02-1.27,6.84c0,.13-.13,1.41-1.43,1.99-.46.2-.83.27-1.12.27Z"/><path class="cls-1" d="m82.66,28.89l-.16-.12c1.26-1.61,2.72-3.12,4.33-4.49,1.13-.96,2.35-1.87,3.63-2.7l.11.17c-1.27.83-2.49,1.73-3.61,2.68-1.6,1.36-3.05,2.86-4.3,4.46Z"/><path class="cls-1" d="m89.14,30.7l-.2-.02c.14-1.15.43-2.27.85-3.32.28-.7.58-1.26.87-1.8.37-.7.76-1.43,1.14-2.5.23-.65.42-1.31.56-1.97l.2.04c-.14.67-.33,1.34-.57,1.99-.39,1.09-.78,1.82-1.15,2.53-.3.56-.58,1.09-.86,1.78-.42,1.04-.7,2.14-.84,3.27Z"/><path class="cls-1" d="m92.28,32.85c-.26,0-.54-.04-.79-.19-.53-.3-.76-.96-.58-1.69l.19.05c-.16.65.02,1.21.48,1.47.56.32,1.36.06,1.4.05.65-.22,1.53-.97,1.73-5.02.11-2.38-.07-4.83-.56-7.26l.2-.04c.49,2.45.68,4.9.57,7.31-.2,4.17-1.16,4.96-1.86,5.2-.06.02-.38.12-.77.12Z"/><path class="cls-1" d="m95.68,35.55h0c-.92,0-1.81-1.29-2.22-3.2l.2-.04c.38,1.79,1.21,3.04,2.03,3.04h0c.45,0,.83-.38.99-.54.9-.9.74-2.13.67-2.66v-.03c-.12-.9-.11-1.79-.09-2.71.02-.86,0-1.44-.02-2-.01-.32-.03-.65-.03-1.03-.02-1.84-.17-4.05-.44-6.56l.2-.02c.27,2.52.42,4.73.44,6.58,0,.38.02.7.03,1.03.02.56.04,1.14.02,2.01-.02.91-.03,1.8.08,2.68v.03c.07.51.25,1.86-.73,2.83-.18.18-.6.6-1.13.6Z"/><path class="cls-1" d="m101.54,35.65c-.54,0-1.6-.79-4.28-5.88l.18-.09c2.61,4.96,3.72,5.87,4.18,5.77.41-.09.46-1.1.49-1.64.13-2.33-.65-3.99-1.47-5.75-.3-.64-.61-1.31-.87-2.01-.71-1.89-1-3.93-.89-6.07h.2c-.11,2.13.18,4.14.88,6,.26.69.57,1.35.87,1.99.79,1.7,1.62,3.46,1.49,5.84-.04.68-.09,1.7-.65,1.82-.04,0-.08.01-.12.01Z"/><path class="cls-1" d="m101.45,33.98c-1.03-1.86-1.85-3.82-2.43-5.81-.71-2.44-1.05-4.95-1.04-7.46h.2c-.02,2.49.33,4.99,1.03,7.41.57,1.98,1.38,3.92,2.41,5.77l-.17.1Z"/><path class="cls-1" d="m109.42,32.75c-1.55,0-4.27-1.95-5.48-2.88l-.03-.04-3.91-8v-1.85h.2v1.83l3.88,7.91c1.08.83,4.6,3.4,5.84,2.71.2-.11.27-.28.31-.36.34-.76-.79-1.69-2.21-2.86-1.15-.94-2.44-2.01-3.46-3.35-1.2-1.58-1.91-3.45-2.11-5.57l.2-.02c.2,2.08.89,3.92,2.07,5.47,1,1.32,2.29,2.38,3.42,3.31,1.49,1.23,2.67,2.2,2.26,3.09-.04.09-.14.3-.39.45-.17.09-.37.14-.6.14Z"/><path class="cls-1" d="m103.37,34.1c-.54,0-1.04-.15-1.19-.19l.06-.19c.14.04,1.4.42,2.05-.06.43-.33.36-.89.26-1.76-.09-.7-.3-1.39-.63-2.06l.18-.09c.34.68.56,1.4.65,2.12.11.9.19,1.55-.33,1.94-.29.22-.67.29-1.04.29Z"/><path class="cls-1" d="m107.89,30.76c-1.5-1.27-2.8-2.68-3.86-4.21-1.35-1.94-2.32-4.04-2.88-6.23l.19-.05c.55,2.17,1.5,4.25,2.85,6.17,1.05,1.51,2.34,2.91,3.83,4.17l-.13.15Z"/><path class="cls-1" d="m60.58,119.07l.06-.25,5.2-20.66-.36-.03c-.81.4-2.1.84-3.64.77-3.11-.16-4.97-2.36-5.62-3.3-1.51-2.18-1.08-4.41-.83-5.27l.15-.5.05.52c.16,1.7.82,4.11,3.09,5.96.83.68,2.39,1.95,4.22,1.72.59-.08,1.15-.3,1.67-.66l.14-.98c-6.5-4.18-12-9.2-16.34-14.9-3.55-4.67-6.27-9.74-8.06-15.07l.19-.06c1.79,5.3,4.49,10.35,8.03,15.01,4.34,5.7,9.83,10.71,16.34,14.89l.05.03-.17,1.19-.04.02c-.56.39-1.16.64-1.8.72-1.92.24-3.52-1.06-4.38-1.76-2.09-1.71-2.85-3.87-3.1-5.55-.2,1.03-.29,2.82.93,4.57.64.92,2.44,3.06,5.47,3.22,1.52.08,2.77-.37,3.56-.76h.03s.65.05.65.05l-.03.11-5.17,20.52,2.94-1.96c1.74-5.59,3.16-11.21,4.23-16.68.76-3.91,1.31-7.54,2.01-12.15.48-3.15.85-5.63,1.23-8.93.42-3.67.73-7.38.92-11.01-.29-1.4-.09-2.67.59-3.67,1.55-2.31,5.22-2.88,7.89-3.29.9-.14,1.37-.16,3.15-.25.58-.03,1.31-.07,2.23-.12,2.24-.12,4.49-.26,6.67-.41,1.62-.21,3.2-.58,4.68-1.11,4.72-1.69,7.63-4.62,9.31-6.97-.86.71-1.75,1.41-2.66,2.08-1.89,1.4-3.85,2.85-5.71,3.79-3.49,1.76-6.97,1.91-12.24,2.14-.91.04-1.71.05-2.48.07-2.21.04-3.96.06-6.44.74-1.32.36-2.62.84-3.84,1.43l-.14.07v-1.51l.02-.02,18.67-28.14.17.11-18.66,28.12v1.13c1.19-.56,2.44-1.03,3.73-1.38,2.5-.68,4.26-.71,6.49-.75.77-.01,1.56-.02,2.47-.06,5.24-.23,8.7-.38,12.16-2.12,1.85-.93,3.79-2.37,5.68-3.77,1.1-.81,2.18-1.67,3.21-2.54l.53-.45-.38.58c-1.62,2.46-4.64,5.79-9.81,7.65-1.49.54-3.08.91-4.73,1.12-2.19.15-4.44.29-6.68.41-.93.05-1.65.09-2.23.12-1.76.09-2.24.11-3.13.25-2.64.41-6.25.97-7.75,3.21-.65.97-.84,2.19-.56,3.53h0s0,.03,0,.03c-.19,3.64-.5,7.36-.93,11.04-.38,3.31-.76,5.79-1.23,8.94-.7,4.61-1.25,8.25-2.01,12.16-1.07,5.5-2.5,11.13-4.25,16.74v.03s-3.44,2.29-3.44,2.29Z"/><polygon class="cls-1" points="76.75 54.11 75.44 48.76 77.66 53.13 77.48 53.22 76.05 50.39 76.95 54.06 76.75 54.11"/><path class="cls-1" d="m76.75,60.97l-.18-.09c.5-1.02.79-2.09.89-3.17.08-.94.01-1.88-.21-2.8l.19-.05c.22.95.3,1.91.21,2.87-.1,1.11-.41,2.2-.91,3.25Z"/><path class="cls-1" d="m78.43,60.51l-.19-.05c.29-1.18.39-2.38.31-3.58-.07-1-.28-2.01-.62-2.98l.19-.07c.34.99.55,2.01.63,3.03.09,1.22-.02,2.44-.31,3.64Z"/><path class="cls-1" d="m81.19,60.18l-.12-.16c1.76-1.39,3.21-3,4.3-4.78.84-1.37,1.46-2.83,1.84-4.33l.09-.37.1.37c.2.77.24,1.54.11,2.31-.12.71-.38,1.33-.69,1.86l3.96-4.05.02.21c.04.38.02.76-.06,1.14-.33,1.58-1.58,2.54-3.49,4.01-.2.16-.41.32-.63.49-1.32,1.02-2.65,2.11-3.96,3.24l-.13-.15c1.31-1.13,2.65-2.23,3.97-3.25.22-.17.43-.33.63-.49,1.87-1.44,3.1-2.38,3.41-3.89.06-.28.08-.57.07-.86l-4.78,4.89s0,0,0,0h0l-.14-.14c.61-.62,1.38-1.66,1.62-3.05.11-.61.1-1.22-.01-1.83-.39,1.38-.98,2.73-1.76,3.99-1.1,1.8-2.56,3.42-4.34,4.83Z"/><path class="cls-1" d="m85.17,60.08l-.09-.18c.94-.46,1.83-1,2.65-1.6,1.5-1.1,2.76-2.4,3.75-3.87l.27-.4-.36,1.94,2.21-1.65-.07.27c-.1.43-.28.84-.52,1.22-.53.86-1.21,1.31-2.7,2.29l-.19.13c-.51.34-1.41.94-2.6,1.73l-.11-.17c1.18-.8,2.09-1.4,2.6-1.74l.19-.13c1.46-.97,2.13-1.41,2.64-2.23.17-.28.31-.58.41-.89l-2.15,1.62.28-1.52c-.96,1.33-2.14,2.52-3.53,3.53-.82.6-1.72,1.15-2.67,1.62Z"/><path class="cls-1" d="m90.33,59.81l-.11-.17c1.69-1.1,3.25-2.34,4.62-3.69.94-.92,1.8-1.91,2.58-2.93l.13-.17.05.2c.09.36.1.71.03,1.06-.11.55-.41,1-.74,1.34.92-.53,1.79-1.11,2.6-1.74.8-.62,1.56-1.3,2.25-2.01l.4-.41-.24.52c-.57,1.27-1.42,2.35-2.53,3.19-.64.49-1.17.75-1.84,1.09-.32.16-.69.34-1.1.57-1.48.81-2.88,1.8-4.15,2.95l-.13-.15c1.29-1.16,2.7-2.16,4.19-2.98.42-.23.79-.41,1.11-.57.66-.33,1.18-.59,1.81-1.07.92-.7,1.66-1.57,2.2-2.57-.57.56-1.19,1.1-1.84,1.6-1.15.89-2.42,1.69-3.77,2.37l-.09-.18c.43-.23,1.46-.9,1.68-1.99.05-.25.06-.5.02-.76-.74.97-1.57,1.9-2.46,2.78-1.39,1.36-2.95,2.61-4.66,3.72Z"/><path class="cls-1" d="m99.49,57.3l-.16-.12c.78-1.07,1.49-2.19,2.11-3.33.31-.58.57-1.09.77-1.5.44-.89.55-1.09.72-1.06.03,0,.07.02.1.07.15.26-.13,1.5-.39,2.3-.25.78-.6,1.54-1.04,2.25l-.17-.1c.43-.71.77-1.45,1.02-2.21.3-.92.45-1.8.43-2.07-.1.14-.29.51-.48.9-.2.41-.46.92-.77,1.5-.63,1.15-1.34,2.28-2.12,3.35Z"/><path class="cls-1" d="m97.01,59.7c-.32,0-.65,0-.97-.03v-.2c1.8.1,3.52-.08,5.14-.55,2.55-.73,4.41-2.08,4.94-2.59-.1.05-.23.11-.37.17-.71.34-2.04.97-3.91,1.55-1.17.36-2.38.66-3.6.88l-.04-.2c1.21-.21,2.42-.51,3.58-.87,1.86-.58,3.18-1.21,3.88-1.54.59-.28.69-.33.77-.23.02.02.04.06.02.12-.1.33-2.2,2.03-5.23,2.91-1.34.39-2.75.58-4.22.58Z"/><path class="cls-1" d="m93.96,63.83c-1.89,0-3.48-.22-4.73-.38-2.96-.4-5.83-1.19-8.53-2.35l.08-.18c2.69,1.15,5.54,1.93,8.48,2.33,2.18.29,5.47.74,9.46-.11,1.98-.42,3.87-1.11,5.62-2.03.27-.24.34-.35.36-.39-.21-.03-1.27.39-2.05.69-.22.08-.44.17-.65.25-1.54.6-3.25,1-5.07,1.21h-6.21s0-.2,0-.2c1.43-.03,2.84-.22,4.19-.58.55-.15,1.1-.32,1.63-.52-1.63.11-3.25.21-4.82.29-2.47.13-3.21.15-4.14.06-1.54-.14-3.06-.49-4.51-1.04l.07-.19c1.43.55,2.93.9,4.45,1.03.92.08,1.65.07,4.11-.06,1.78-.1,3.62-.21,5.46-.34l.6-.04-.55.23c-.72.31-1.48.56-2.25.77-.61.16-1.23.29-1.86.38h3.83c1.79-.21,3.48-.61,5.01-1.2.21-.08.43-.17.65-.25,1.54-.61,2.14-.82,2.3-.63.13.15-.08.38-.42.68-1.78.95-3.69,1.64-5.69,2.07-1.75.37-3.36.5-4.8.5Z"/><path class="cls-1" d="m59.21,99.25c-.72,0-1.39-.09-2.03-.26-.97-.26-1.62-.66-2.2-1.01-.69-.42-1.24-.75-2.01-.64-.78.11-1.43.61-1.95,1-.47.36-.84.64-1.14.49-.15-.08-.19-.22-.21-.28-.2-.69,1.12-1.46,1.67-1.74-.42-.13-.84-.22-1.27-.26-1.93-.19-3.58.57-4.38.94-.44.2-.59.27-.68.16-.02-.03-.04-.07-.02-.15.09-.32,1.15-1.3,2.77-1.78,1.9-.56,3.72-.15,6.03.38,1.63.37,3.23.88,4.77,1.52l-.08.18c-1.53-.63-3.12-1.14-4.74-1.51-2.37-.54-4.08-.93-5.93-.38-1.45.43-2.36,1.24-2.58,1.55.1-.04.24-.1.37-.16.81-.37,2.5-1.15,4.48-.95.53.05,1.05.17,1.55.35l.23.08-.22.1c-.55.26-1.95,1.06-1.79,1.62.02.07.04.13.11.16.18.09.53-.17.92-.47.54-.41,1.21-.93,2.04-1.04.85-.12,1.45.24,2.15.67.57.34,1.21.73,2.15.99,1.34.37,2.89.33,4.59-.1l.05.19c-.94.24-1.83.36-2.67.36Z"/><path class="cls-1" d="m56.05,95.26c-1.1-.25-2.22-.42-3.32-.5-.97-.07-1.86-.07-2.65-.07-1.5,0-2.49,0-2.76-.5-.07-.13-.08-.26-.04-.37.32-.79,3.68-.45,5.11-.27,1.1.14,2.2.36,3.27.65l-.05.19c-1.06-.29-2.16-.51-3.24-.64-2.29-.29-4.7-.36-4.9.15-.03.08.01.17.03.2.21.4,1.21.4,2.58.4.79,0,1.68,0,2.66.07,1.11.08,2.24.25,3.35.5l-.04.2Z"/><path class="cls-1" d="m55.31,93.5c-.72-.68-1.97-1.59-3.84-2.09-1.12-.3-2.29-.4-3.47-.32-1.04.2-2.1.46-3.13.77-.97.29-1.72.56-2.26.76-.8.29-1.04.38-1.15.25-.02-.02-.04-.07-.03-.14.08-.33,1.27-1.22,2.55-1.79,1.04-.46,2.19-.75,3.42-.85-.62-.2-1.25-.33-1.89-.39-2.15-.21-3.98.39-4.96.71-.55.18-.72.23-.8.11-.01-.02-.03-.06,0-.12.09-.24,1.03-.87,2.25-1.27,2.73-.9,5.41-.22,7.18.22,2.22.56,4.28,1.49,6.12,2.75l-.11.17c-1.83-1.25-3.86-2.16-6.06-2.72-1.75-.44-4.4-1.11-7.08-.23-1.06.35-1.8.82-2.04,1.05.12-.03.3-.09.47-.14,1-.32,2.85-.92,5.04-.72.82.08,1.63.27,2.41.56l.45.17-.48.02c-1.4.06-2.69.36-3.84.87-1.3.58-2.26,1.35-2.42,1.6.14-.02.49-.15.89-.29.55-.2,1.3-.47,2.27-.76,1.04-.31,2.1-.57,3.16-.77,1.22-.09,2.41.02,3.55.32,1.91.51,3.19,1.45,3.92,2.14l-.14.15Z"/><path class="cls-1" d="m55.38,90.74c-.78-.34-2.22-1.15-3.06-2.65-.46-.82-.67-1.74-.6-2.66h.2c-.06.89.14,1.78.58,2.57.81,1.45,2.2,2.23,2.97,2.56l-.08.18Z"/><path class="cls-1" d="m55.49,90.28c-.46-.52-.87-1.08-1.21-1.67-.19-.33-.36-.67-.51-1.01l.18-.08c.15.33.32.67.5.99.33.57.74,1.12,1.19,1.64l-.15.13Z"/><path class="cls-1" d="m54.5,86.32l-.2-.02c.44-4.31.26-4.94.16-5.01-.06.02-.37.33-1.28,3.41l-.28.94.08-.98c.11-1.33.29-2.64.54-3.9.05-.25.1-.49.15-.71.12-.55.25-1.17.21-1.33-.13.07-.46.53-.79,1.14-.54,1.02-.81,2.18-.79,3.42h-.2c-.02-1.28.25-2.46.81-3.51.21-.4.74-1.33,1.03-1.25.23.06.16.45-.08,1.57-.05.22-.1.46-.15.71-.19.94-.33,1.9-.44,2.88.82-2.63,1.07-2.59,1.21-2.58.2.02.53.07,0,5.23Z"/><path class="cls-1" d="m57.44,95.26l-.07-.19c.59-.22,1.12-.55,1.55-.94.41-.38.71-.81.92-1.28l.18.08c-.21.5-.54.95-.96,1.35-.45.41-1.01.75-1.62.99Z"/><polygon class="cls-1" points="59.96 94.7 60.55 93.39 60.73 93.47 60.31 94.42 61.67 94.11 61.72 94.3 59.96 94.7"/><polygon class="cls-1" points="61.21 95.65 57.73 95.65 57.73 95.45 61.15 95.45 62.35 94.63 62.47 94.8 61.21 95.65"/><path class="cls-1" d="m62.2,92.5l-.13-.15c.95-.82,1.68-1.75,2.17-2.77.25-.52.44-1.06.56-1.61l-3.48,3.93-.15-.13,3.95-4.47-.06.34c-.12.69-.34,1.38-.65,2.02-.51,1.05-1.26,2.01-2.22,2.84Z"/><path class="cls-1" d="m64.19,93.75l-.13-.15c.61-.52,1.07-1.11,1.37-1.77.13-.29.23-.6.3-.91l-2.55,2.22-.13-.15,2.96-2.58-.04.26c-.06.43-.18.84-.36,1.24-.31.69-.79,1.31-1.42,1.84Z"/><path class="cls-1" d="m56.57,88.4l-.16-.12,4.03-5.34h.04c1.11-.17,4.86-.91,6.81-3.79.62-.92.98-1.97,1.06-3.05-.82,1.6-2.04,3.06-3.54,4.25-1.13.89-2.42,1.63-3.83,2.21l-.69.28.59-.45c1.38-1.06,2.7-2.16,3.92-3.27.77-.7,1.26-1.18,1.48-1.9.22-.73.12-1.54-.3-2.35-.08.78-.3,1.53-.66,2.24-.57,1.12-1.32,1.79-2.35,2.7-.22.19-.45.4-.69.62-1.2,1.1-2.35,2.31-3.42,3.58l-.31.36.82-2.83.03-.02c.9-.55,2.1-1.53,2.77-3.06.33-.76.48-1.57.44-2.38-.23.91-.6,1.8-1.09,2.64-.46.78-1.03,1.53-1.7,2.21l-.45.46,1.78-3.52.2-1.82c-.18.47-.4.93-.64,1.39-.5.94-.98,1.53-1.4,2.05-.34.42-.63.79-.89,1.26-.64,1.19-.77,2.61-.38,4.23v.04s-.02.04-.02.04l-2.05,2.85-.16-.12,2.02-2.81c-.39-1.65-.25-3.1.41-4.33.26-.49.58-.87.91-1.29.41-.52.88-1.1,1.38-2.02.38-.71.69-1.46.92-2.22l.2.04-.32,2.78-1.17,2.32c.45-.52.85-1.07,1.18-1.65.59-1.01,1-2.08,1.2-3.19l.1-.57.09.57c.17,1.05.03,2.13-.39,3.11-.67,1.56-1.89,2.56-2.81,3.13l-.54,1.85c.98-1.14,2.04-2.23,3.13-3.24.24-.22.47-.43.69-.62,1.01-.9,1.74-1.56,2.3-2.65.4-.77.62-1.61.67-2.49l.02-.32.17.28c.58.96.75,1.93.48,2.8-.23.77-.74,1.27-1.53,1.99-1.04.94-2.15,1.88-3.31,2.79,1.12-.52,2.14-1.14,3.06-1.86,1.61-1.27,2.89-2.86,3.69-4.6l.19-.41v.45c0,1.29-.38,2.55-1.11,3.63-1.97,2.91-5.73,3.69-6.91,3.86l-3.98,5.27Z"/><path class="cls-1" d="m56.83,88.03l-.07-.19,1.63-.64h.02c3.29.33,6.28-.59,7.8-2.37.85-1,1.25-2.28,1.34-2.77-.03.04-.07.09-.1.14l-.11.15c-.58.82-1.96,2.73-4.19,3.41-.58.18-1.23.26-1.89.26h-.61s.58-.2.58-.2c1-.33,1.87-.85,2.51-1.5.32-.33.58-.66.66-.82-.13.06-.37.23-.62.41-.67.47-1.68,1.17-3.04,1.79-.91.42-1.88.75-2.9.99l-.05-.19c1-.24,1.96-.57,2.86-.98,1.34-.61,2.35-1.31,3.01-1.77.58-.4.77-.54.91-.44.03.02.05.06.06.11.02.27-.71,1.02-.75,1.06-.53.55-1.22,1-2.01,1.34.43-.03.84-.11,1.23-.23,2.17-.66,3.51-2.54,4.09-3.34l.11-.15c.2-.29.28-.4.39-.36.02,0,.06.03.08.09.08.28-.37,1.94-1.39,3.14-1.56,1.83-4.6,2.77-7.95,2.45l-1.58.62Z"/><path class="cls-1" d="m48.41,73.65h-.2c.03-1.29-.04-2.6-.2-3.88-.09-.69-.21-1.38-.35-2.05l-.07-.32.24.23c.41.39.75.83,1.02,1.3.71,1.26.7,2.47.57,3.27l-.2-.03c.13-.77.13-1.93-.55-3.14-.2-.36-.45-.7-.75-1.01.12.57.21,1.16.29,1.73.17,1.29.24,2.61.21,3.91Z"/><path class="cls-1" d="m49.12,79.22h-.2s.23-3.21.23-3.21l2.34-1.6c1.27-.19,2.38-.6,3.29-1.2.58-.38,1.05-.81,1.11-.95-.09-.02-.49.04-2.24.79l-1.39.68c-.36.2-.71.36-.99.48l-.08-.18.98-.48c1.07-.6,2.34-1.57,2.89-3.03.11-.29.19-.59.23-.9-.79.88-1.63,1.74-2.51,2.57-1.2,1.13-2.5,2.23-3.85,3.25l-.24.18.46-1.62.19.05-.3,1.05c1.26-.97,2.47-1.99,3.59-3.05.95-.89,1.86-1.83,2.7-2.79l.2-.22-.02.29c-.03.43-.12.86-.28,1.26-.37.97-1.04,1.73-1.76,2.32l.09-.04c2.27-.99,2.41-.83,2.49-.74.02.02.04.07.04.13-.05.35-1.19,1.11-1.2,1.12-.93.62-2.06,1.03-3.35,1.23l-2.2,1.51-.22,3.1Z"/><path class="cls-1" d="m34.37,52.81c-.13,0-.25-.05-.38-.1-.14-.06-.29-.12-.51-.15-.39-.06-.81,0-1.24.16l-.06.02-.05-.05c-.14-.14-.26-.29-.38-.44-.38-.5-.65-1.05-.8-1.62-.13-.52-.43-1.72.31-2.79h0c1.04-1.49,3.56-1.97,5.29-1.56,2,.47,3.04,2.06,3.44,2.66.21.32.39.67.53,1.02l.02.05-.03.04c-.15.21-.34.36-.57.44-.29.1-.56.07-.79.04-.23-.03-.42-.05-.59.05-.1.06-.14.13-.18.21-.05.1-.12.21-.3.27-.17.06-.34.02-.47,0-.08-.02-.16-.03-.19-.01,0,.01.01.05.02.08.03.09.07.21,0,.33-.15.32-.78.36-1.28.4-.3.02-.48.01-.6,0-.13,0-.18-.01-.28.03-.22.1-.29.26-.36.44-.08.18-.16.37-.41.45-.05.02-.1.02-.15.02Zm-1.21-.48c.12,0,.24,0,.35.03.24.04.41.11.55.16.17.07.27.11.4.07.15-.04.2-.15.28-.33.08-.18.18-.41.47-.54.14-.06.24-.06.38-.05.12,0,.28.02.57,0,.38-.03,1.01-.08,1.11-.29.03-.05.01-.1-.02-.18-.03-.08-.07-.21.04-.3.1-.08.22-.06.35-.03.11.02.24.05.37.01.11-.03.14-.09.18-.18.05-.09.11-.2.25-.28.23-.13.48-.1.72-.07.22.03.46.06.7-.03.17-.06.32-.17.44-.33-.13-.32-.29-.63-.49-.93-.38-.58-1.39-2.12-3.31-2.58-1.67-.4-4.09.06-5.08,1.48h0c-.69.99-.41,2.13-.28,2.62.14.54.39,1.07.76,1.55.1.13.2.26.32.38.32-.12.64-.18.94-.18Z"/><path class="cls-1" d="m26.39,63.78c-.35,0-.7-.05-.87-.27-.38-.48.43-1.26,1.55-2.35.65-.63,1.39-1.35,2.01-2.12,1.52-1.88,2.41-4.19,2.64-6.86l.2.02c-.23,2.71-1.14,5.06-2.69,6.97-.63.78-1.38,1.5-2.03,2.14-.97.94-1.8,1.75-1.53,2.08.21.26.92.19,1.3.15,2.09-.2,3.06-2,3.16-2.2.52-1.12.94-2.29,1.26-3.46.46-1.72.7-3.49.7-5.25h.2c0,1.79-.24,3.57-.71,5.31-.32,1.18-.75,2.36-1.27,3.5-.11.22-1.12,2.11-3.32,2.31-.17.02-.39.04-.6.04Z"/><path class="cls-1" d="m30.04,67.82c-.16,0-.3-.03-.42-.08-.96-.41-.8-2.5.5-6.39l.19.06c-1.55,4.63-1.19,5.89-.61,6.14.34.14.92.03,1.62-.33.9-.46,1.24-1.21,1.87-2.71.27-.65.86-5.42.73-7.57-.09-1.49-.27-2.99-.53-4.47l.2-.04c.27,1.49.45,3,.53,4.5.12,2.1-.44,6.91-.75,7.66-.59,1.43-.95,2.3-1.96,2.81-.54.28-1.01.42-1.38.42Z"/><path class="cls-1" d="m37.35,67.45c-.49,0-1.43-.69-3.74-5.1l.18-.09c2.25,4.28,3.21,5.08,3.63,4.99.35-.08.68-.89.3-4.33-.38-3.4-1.49-6.82-3.31-10.17l.18-.1c1.83,3.38,2.95,6.82,3.33,10.24.22,2.02.38,4.37-.45,4.54-.03,0-.07.01-.11.01Z"/><path class="cls-1" d="m36.54,63.66h-.2c.08-1.76-.1-3.52-.54-5.23-.4-1.56-1.02-3.09-1.84-4.55l.17-.1c.83,1.47,1.46,3.02,1.86,4.6.45,1.73.63,3.51.54,5.28Z"/><path class="cls-1" d="m40.77,66.61c-.57,0-1.44-.8-2.05-1.94l.18-.09c.66,1.21,1.55,1.94,1.96,1.82.29-.08.5-.72.33-1.75-.02-.13-.05-.27-.08-.41-1.69-1.98-3.07-4.13-4.1-6.38-.88-1.94-1.51-3.96-1.86-6.02l.2-.03c.35,2.04.97,4.05,1.85,5.97,1.02,2.25,2.4,4.38,4.08,6.35l.02.04c.04.15.07.3.09.45.17,1.05-.02,1.85-.48,1.98-.05.01-.09.02-.14.02Z"/><path class="cls-1" d="m42.53,63.01c-1.42-1.6-2.68-3.31-3.76-5.07-.93-1.52-1.74-3.12-2.4-4.74l.19-.08c.66,1.61,1.46,3.19,2.39,4.71,1.07,1.76,2.33,3.45,3.74,5.05l-.15.13Z"/><path class="cls-1" d="m42.92,65.7c-.5,0-1.14-.37-1.7-1l.15-.13c.61.68,1.29,1.04,1.74.91.51-.14.61-.92.66-1.34.21-1.64-.39-3.65-1.73-5.82-.47-.73-.99-1.45-1.54-2.15-1.2-1.54-2.58-3-4.11-4.35l.13-.15c1.53,1.36,2.92,2.83,4.13,4.37.55.7,1.07,1.43,1.55,2.16,1.37,2.21,1.98,4.26,1.76,5.95-.06.46-.17,1.33-.81,1.51-.08.02-.16.03-.24.03Z"/><path class="cls-1" d="m39.41,54.85c-.59-.6-1.09-1.26-1.48-1.95-.27-.46-.49-.95-.66-1.44l.19-.07c.17.48.38.95.64,1.41.39.68.88,1.32,1.45,1.91l-.14.14Z"/><path class="cls-1" d="m48.61,62.99c-2.06,0-5.3-3.19-6.31-4.25l.14-.14c.78.81,4.75,4.81,6.66,4.11.05-.02.47-.18.6-.5.25-.62-.82-1.41-2.43-2.6-.4-.29-.83-.61-1.29-.96-.86-.65-3.14-2.39-4.84-4.24-1.09-1.19-2.01-2.48-2.72-3.86l.18-.09c.71,1.36,1.61,2.64,2.69,3.81,1.69,1.83,3.95,3.56,4.81,4.21.46.35.89.67,1.29.96,1.75,1.29,2.81,2.07,2.5,2.84-.16.4-.63.58-.72.62-.17.06-.36.09-.55.09Z"/><path class="cls-1" d="m50.01,59.98c-.26,0-.53-.04-.76-.07-1.63-.24-3.24-1.05-4.66-2.34l.13-.15c1.39,1.26,2.96,2.05,4.55,2.29.39.06,1.06.16,1.25-.07.05-.05.06-.12.06-.21-.04-.51-.88-1.47-1.7-2.16-1.17-.98-2.24-1.36-3.38-1.75-.65-.23-1.32-.46-2.06-.82-1.74-.84-3.24-2.1-4.46-3.74l.16-.12c1.2,1.61,2.67,2.84,4.39,3.67.73.35,1.4.58,2.04.81,1.16.4,2.25.78,3.44,1.79.63.53,1.72,1.62,1.77,2.3.01.14-.03.26-.11.36-.14.16-.4.21-.68.21Z"/><path class="cls-1" d="m50.68,57.82c-.71,0-1.28-.17-1.38-.2l.06-.19c.17.05,1.74.51,2.94-.21.17-.1.99-.63.96-1.23-.05-.8-1.65-1.33-3.86-2.07-.86-.29-1.84-.61-2.88-1-2.1-.79-4.16-1.74-6.14-2.82l.1-.18c1.97,1.08,4.03,2.03,6.12,2.81,1.04.39,2.01.71,2.87,1,2.38.79,3.95,1.31,4,2.25.04.7-.8,1.25-1.06,1.41-.56.33-1.18.43-1.72.43Z"/><path class="cls-1" d="m48.36,54.88c-1.76-.57-3.45-1.29-5.02-2.14-1.23-.67-2.4-1.42-3.49-2.24l.12-.16c1.07.82,2.24,1.57,3.46,2.23,1.56.85,3.24,1.56,4.99,2.13l-.06.19Z"/></g></svg>