<?xml version="1.0" encoding="UTF-8"?><svg id="Layer_2" xmlns="http://www.w3.org/2000/svg" width="39.14" height="54.57" viewBox="0 0 39.14 54.57"><defs><style>.cls-1{fill:none;stroke:#221f20;stroke-miterlimit:10;stroke-width:.5px;}</style></defs><g id="Layer_1-2"><path class="cls-1" d="m14.9,4.26C13.79,1.62,12.06.02,10.75.28c-.6.11-1.08.61-1.37.91-.84.86-1.05,1.8-1.39,2.96-.77,2.57-1.07,2.32-1.37,3.71-.57,2.66.24,4.96.5,5.7,1.4,3.84,4.54,5.64,5.4,6.1.49-.7,1.16-1.73,1.86-3.02,1.21-2.25,2.05-3.79,2.26-5.81.11-1.02.14-2.94-.93-5.34"/><line class="cls-1" x1="11.01" y1="3.45" x2="11.01" y2="5.25"/><path class="cls-1" d="m11.01,7.92c-.11,1.9-.08,4.26.35,6.91.29,1.83.71,3.44,1.16,4.82.22,1.21.64,2.81,1.5,4.55,1.17,2.39,2.67,4.03,3.73,5.02.78-1.12,1.6-2.45,2.37-4,.59-1.18,1.05-2.29,1.43-3.32.6-1.23,1.3-3.08,1.46-5.41.07-1.01.03-1.93-.06-2.71"/><path class="cls-1" d="m21.54,21.91c-1.26-1.35-4.16-4.88-3.76-9.17.14-1.5,1.03-3.33,2.8-7,1.8-3.73,2.29-3.87,2.55-3.88,1.78-.09,3.86,5.19,4.01,9.8.06,1.72.1,3.96-1.27,6.3-1.37,2.34-3.38,3.48-4.33,3.95Z"/><line class="cls-1" x1="23.84" y1="10.32" x2="23.52" y2="11.88"/><path class="cls-1" d="m16.25,41.71c.21-1.18.38-2.83.18-4.78-.73-6.78-5.65-12.83-7.55-12.19-.66.22-.86,1.35-1.26,3.62-.42,2.36-.86,4.84-.04,7.13,1.75,4.85,8.16,6.12,8.68,6.22Z"/><path class="cls-1" d="m9.54,27.24c-.12-.12-.34-.38-.46-.77-.15-.52-.02-.97.04-1.12"/><path class="cls-1" d="m15.76,27.02l-3.41-.73c-.04-.59-.18-1.65-.84-2.74-.24-.39-.82-1.23-2.11-2.04-2.92-1.82-8.34-2.75-9.07-1.24-.62,1.28,2.31,3.91,3.41,4.79,1.54,1.22,3.06,1.85,4.07,2.18"/><path class="cls-1" d="m4.02,22.14c.54.46,1.23.97,2.07,1.44,1.03.58,2,.94,2.78,1.16"/><line class="cls-1" x1="11.93" y1="26.56" x2="12.35" y2="26.29"/><path class="cls-1" d="m37.99,22.91c-.15.72-1.24,5.43-5.88,8.02-4.17,2.33-8.25,1.29-9.06,1.07-.83-3.09-.02-5.11.33-5.84,1.52-3.16,5.13-4.35,7.75-5.21.22-.07,1.35-.33,3.61-.85,2.56-.58,3.43-.75,3.88-.27.19.2.45.67.13,1.83"/><line class="cls-1" x1="32.37" y1="24.52" x2="35.27" y2="22.25"/><path class="cls-1" d="m31.3,25.34c-1.18.69-2.46,1.54-3.79,2.56-1.81,1.4-3.29,2.82-4.47,4.1-.27.83-.74,1.87-1.63,2.81-.58.6-.95.77-1.56,1.38-.59.59-1.26,1.48-1.78,2.81"/><path class="cls-1" d="m21.37,44.93c-.25-3.08.78-4.97,1.25-5.7,1.76-2.76,4.86-3.67,7.84-4.55,1.58-.46,2.75-.59,3.97-.71,1.8-.19,2.71-.28,3.07.07,1.13,1.11-.68,5.22-3.02,7.95-1.23,1.43-3.25,3.78-6.73,4.28-3.09.44-5.52-.84-6.37-1.34Z"/><path class="cls-1" d="m32.11,37.58c-.54.89-1.46,2.15-2.99,3.07-1.17.71-1.95.78-3.3,1.34-1.13.47-2.73,1.31-4.46,2.94-.67.27-1.7.79-2.69,1.75-1.43,1.4-1.98,2.97-2.19,3.73"/><path class="cls-1" d="m17.75,29.23c.29,2.54.45,5.42.36,8.57-.05,1.84-.18,3.57-.36,5.18-.39-.3-.88-.75-1.5-1.26-.82-.69-1.89-1.73-2.88-3.2-.58-.86-1.35-2.18-1.9-3.97"/><path class="cls-1" d="m17,54.51c-.38-1.66-.73-4.12-.36-7.04.23-1.79.66-3.3,1.11-4.49"/></g></svg>