<?xml version="1.0" encoding="UTF-8"?><svg id="Layer_2" xmlns="http://www.w3.org/2000/svg" width="34.45" height="57.63" viewBox="0 0 34.45 57.63"><defs><style>.cls-1{fill:none;stroke:#221f20;stroke-miterlimit:10;stroke-width:.2px;}</style></defs><g id="Layer_1-2"><path class="cls-1" d="m7.21,6.2c.56-1.7,1.82-1.69,2.58-3.49.59-1.41.32-2.59.58-2.61.25-.02.71,1.12.73,2.31.02,1.45-.6,2.53-1.32,3.74-.42.7-1.75,2.94-2.39,2.7-.45-.16-.54-1.52-.17-2.64Z"/><path class="cls-1" d="m8.62,4.33c-.41-.09-1-.2-1.73-.23-2.48-.1-6.38.73-6.76,2.69-.32,1.68,2.01,3.74,4.16,4.28.54.14,1.89.47,2.97-.25.83-.56,1.22-1.54,1.43-2.09.22-.56.31-1.06.35-1.41"/><path class="cls-1" d="m3.54,7.35c.46-.09,1.13-.17,1.93-.07.62.08,1.13.24,1.51.39"/><path class="cls-1" d="m.93,6.86c-.09.02-.23.04-.4.03-.17-.01-.31-.06-.4-.1"/><path class="cls-1" d="m7.95,10.15c.92-.25,2.34-.53,4.07-.45,1.54.08,3.81.46,3.89,1.2.05.48-.87.67-1.3,1.74-.27.66-.21,1.3-.12,1.74-.47.43-1.66,1.38-3.45,1.64-.68.1-2.25.33-3.72-.59-2.11-1.32-2.29-3.91-2.3-4.21"/><path class="cls-1" d="m15.91,10.9c.35-.39.82-.96,1.27-1.71.91-1.54,1.08-2.72,1.2-2.69.17.03.25,2.3-.83,4.48-.89,1.8-2.24,2.86-3.06,3.4"/><path class="cls-1" d="m5.06,11.61c.08.11.29.37.67.51.27.1.51.09.64.07"/><path class="cls-1" d="m10.58,13c.46-.02,1.49,0,2.52.64.52.32.88.69,1.11.97"/><path class="cls-1" d="m15.45,16.43c-.68-1.31-1.63-2.89-2.96-4.53-1.26-1.55-2.54-2.76-3.63-3.67"/><path class="cls-1" d="m18.28,21.58c-.75-.71-.96-1.34-1.02-1.74-.23-1.35.8-1.99,3.04-5.54.82-1.3,1.14-1.94,1.47-1.87.48.11.63,1.65.46,2.85-.19,1.33-.76,2.26-1.38,3.24-.51.8-1.32,1.91-2.57,3.06Z"/><path class="cls-1" d="m18.68,16.71c-.3-.19-.82-.45-1.48-.52-.8-.09-1.43.13-1.75.25-4.04,1.49-6.54,2.42-6.54,3.85,0,1.4,2.41,2.38,2.56,2.44,3.19,1.26,6.33-1.18,6.58-1.39"/><path class="cls-1" d="m12.62,19.37c.58-.14,1.31-.26,2.14-.29.98-.04,1.82.06,2.48.19"/><path class="cls-1" d="m15.45,16.43c.45,1.17,1.06,2.48,1.92,3.82.3.47.61.91.91,1.32.38.86.75,1.8,1.1,2.83.41,1.22.73,2.37.97,3.43.76-.22,1.88-.65,3.05-1.49,1.33-.97,2.14-2.06,2.58-2.77"/><path class="cls-1" d="m16.78,31.28c.36.68,4.97-.36,7.95-3.51,1.48-1.57,2.69-3.8,2.18-4.34-.23-.25-.61.08-4.22,1.35-.66.23-1.23.43-1.7.99-.58.71-.65,1.57-.65,2.06-3.1,2.27-3.74,3.13-3.57,3.45Z"/><path class="cls-1" d="m21,25.78c-.09-.48-.31-1.23-.93-1.63-.52-.34-1.08-.27-3.85.52-2.55.73-3.09.96-3.29,1.51-.16.44-.03.88.18,1.61.14.49.35,1.24.89,1.8,1.11,1.16,2.98.86,3.23.82"/><line class="cls-1" x1="12.93" y1="26.18" x2="14.56" y2="26.64"/><path class="cls-1" d="m20.16,27.97c-.29-.21-.73-.47-1.3-.66-.55-.18-1.04-.23-1.39-.24"/><path class="cls-1" d="m24.26,34.48c.59-.85,1.69-1.37,3.9-2.4,1.43-.67,2.15-1,2.41-.78.61.53-.72,3.09-1.76,4.62-.82,1.2-2.82,4.13-5.66,4.27-.65.03-1.61-.07-1.76-.5-.16-.48.87-.92,1.73-2.23.92-1.41.36-1.84,1.14-2.98Z"/><path class="cls-1" d="m21.39,39.69c1.36-.63,3.21-1.67,5.08-3.35,2.03-1.81,3.32-3.69,4.11-5.04"/><line class="cls-1" x1="17.47" y1="33.36" x2="16.12" y2="32.28"/><path class="cls-1" d="m20.33,35.72c.28.15,1.06.63,1.48,1.61.23.54.26,1.04.25,1.35"/><path class="cls-1" d="m21,30.45c.5,1.25,1,2.85,1.28,4.75.16,1.12.22,2.15.22,3.06-.49.51-1.7,1.61-3.56,1.93-.74.13-2.51.44-3.32-.5-.58-.67-.1-1.31.08-4.57.11-1.95-.03-2.42.42-2.84.79-.75,2.32-.33,3.71.06,1.09.3,2.69.89,4.43,2.15"/><path class="cls-1" d="m24.75,46.71c.65-.4,1.49-.91,2.46-1.53,2.5-1.59,2.69-1.81,2.69-2.07,0-1.09-3.21-2.2-5.8-2.41-.33-.03-.05.01-5.12.48-1.42.13-2.06.19-2.55.71-.17.19-.69.83-.31,3.51.34,2.39.65,4.55,1.84,4.9.7.2,1.2-.38,3.45-1.75,1.36-.83,2.53-1.44,3.34-1.84Z"/><path class="cls-1" d="m19.34,43.19c-.22-.24-.55-.53-1.01-.78-.77-.42-1.5-.49-1.9-.5"/><line class="cls-1" x1="22.55" y1="44.83" x2="24.75" y2="46.71"/><path class="cls-1" d="m23.31,40.18c.34,1.04.67,2.21.94,3.5.24,1.14.4,2.21.5,3.19"/><path class="cls-1" d="m25.02,50.76c-3.46,1.76-4.37,1.77-4.59,1.48-.43-.58,1.42-2.93,3.55-4.41,2.32-1.61,5.06-2.26,5.2-1.97.06.13-.44.43-1.1.99-.93.79-2.07,2.01-3.07,3.91Z"/><line class="cls-1" x1="24.75" y1="46.71" x2="24.77" y2="47.33"/><path class="cls-1" d="m29.18,45.86c.7-.58,1.74-1.46,2.93-2.6,1.35-1.3,2-2.07,2.19-1.94.27.18-.58,2.11-1.37,3.4-1.03,1.68-3.18,4.22-7.91,6.04.1.82.17,1.74.16,2.74,0,1.57-.18,2.96-.41,4.11"/></g></svg>