<?xml version="1.0" encoding="UTF-8"?><svg id="Layer_2" xmlns="http://www.w3.org/2000/svg" width="31.59" height="57.76" viewBox="0 0 31.59 57.76"><defs><style>.cls-1{fill:none;stroke:#221f20;stroke-miterlimit:10;stroke-width:.2px;}</style></defs><g id="Layer_1-2"><path class="cls-1" d="m31.13,20.61c-.22.04-.4-.49-.79-.97-.76-.93-1.86-1.16-2.39-1.31-1.76-.51-5.17-2.55-6.95-4.94-.95-1.28-1.35-3.45-2.16-7.79-.43-2.33-.97-5.26-.35-5.49.51-.19,1.29,1.58,3.48,3.96,1.7,1.85,2.18,1.82,3.84,3.43,4.81,4.64,5.72,9.61,5.68,11.53,0,.2-.03,1.51-.36,1.57Z"/><path class="cls-1" d="m30.73,23.61c-.08-.52-.34-1.62-1.22-2.63-.5-.57-1.03-.92-1.42-1.13-.67-.49-5.21-3.7-9.94-2.17-2.36.76-3.82,2.51-6.74,6.01-2.3,2.76-2.02,3.32-1.93,3.44.24.35.95.23,4.35-.64,3.18-.8,4.78-1.21,5.15-1.44,2.16-1.32,2.3-2.83,4.67-3.79.89-.36,1.69-.48,2.22-.52.95-.17,1.9-.34,2.84-.51"/><path class="cls-1" d="m11.97,25.34c.93-.53,1.95-1.17,3-1.95.85-.64,1.61-1.27,2.27-1.88"/><path class="cls-1" d="m19.78,20.65c.89-.41,2.19-.9,3.84-1.12,1.68-.23,3.1-.1,4.07.06"/><path class="cls-1" d="m29.32,28.89c-.14-.17-.66-.75-1.52-.89-1.33-.21-2.25.82-2.32.89-.82-.53-2.1-1.19-3.71-1.3-3.5-.24-4.8,2.34-8.76,2.47-2.95.1-4.81-1.25-5.07-.76-.29.54,1.79,2.55,4.28,3.67,1.03.46,4.87,2.19,8.85.29,2.63-1.26,3.93-3.44,4.41-4.38"/><path class="cls-1" d="m17.07,31.55c-.77.25-2.49.68-4.6.22-1.93-.42-3.23-1.39-3.84-1.9"/><path class="cls-1" d="m19.78,31.2c.77-.16,1.65-.4,2.59-.76,1.25-.48,2.29-1.04,3.11-1.55"/><path class="cls-1" d="m25.44,38.27c.75-.24,1.29-.64,1.26-.94-.04-.33-.78-.64-1.84-.59-.62-.2-1.61-.46-2.84-.56-4.09-.32-7.16,1.46-10.36,3.36-2.26,1.35-3.4,2.05-3.54,3.19-.3,2.46,3.8,4.86,4.07,4.59.2-.2-1.99-1.74-1.61-3.19.5-1.87,4.69-1.27,9.45-3.74,2.23-1.16,3.82-2.59,4.83-3.66"/><path class="cls-1" d="m13,38.77c-.48.45-1.21,1.27-1.75,2.49-.53,1.18-.65,2.25-.67,2.9"/><path class="cls-1" d="m12.33,41.76c1.85-1.12,4.14-2.31,6.87-3.34,2.04-.77,3.95-1.3,5.65-1.67"/><path class="cls-1" d="m17.66,48.63l-1.26-.18c-.28-.49-.82-1.29-1.77-1.95-1.59-1.1-3.26-1.06-3.81-1.02"/><path class="cls-1" d="m3.42,50.52c1.2.01,2.7-.08,4.39-.42,1.84-.38,3.37-.94,4.52-1.47,1.36-.06,2.71-.12,4.07-.18-.76,1.06-2.5,3.12-5.41,4.06-1.63.53-2.93.47-4.78.39-2.67-.11-4.93-.21-5.77-1.65-.77-1.32-.07-3.32.39-3.37.39-.04.4,1.34,1.29,1.68.95.37,1.97-.8,3.97-1.98,1.3-.77,2.57-1.29,3.71-1.64"/><path class="cls-1" d="m19.57,3.79c.56,1.05,1.27,2.21,2.14,3.43.88,1.22,1.76,2.26,2.58,3.14"/><path class="cls-1" d="m25.66,11.94c.85.51,2.03,1.37,3.11,2.74,1.83,2.34,2.25,4.78,2.37,5.93-.19,2.6-.68,4.61-1.07,5.93-.71,2.42-1.3,3.18-3.43,8.17-1.85,4.32-1.53,4.02-2.19,5.21-1.99,3.57-4.03,4.72-6.04,6.99-1.76,1.99-3.89,5.29-4.91,10.83"/></g></svg>