<?xml version="1.0" encoding="UTF-8"?><svg id="Layer_2" xmlns="http://www.w3.org/2000/svg" width="60.96" height="69.14" viewBox="0 0 60.96 69.14"><defs><style>.cls-1{fill:none;stroke:#dbe8bd;stroke-miterlimit:10;stroke-width:.5px;}</style></defs><g id="Layer_1-2"><path class="cls-1" d="m5.25,20.34c1.88,1.4,3.95,3.12,6.07,5.21,2.02,1.99,3.7,3.93,5.08,5.71,3.36.33,6.71.67,10.07,1l-6.26-7.62c-2.13-.28-4.55-.73-7.17-1.45-3.01-.84-5.62-1.85-7.79-2.85Z"/><path class="cls-1" d="m30.78,5.32c-.31,2.39-.8,5.1-1.61,8.03-.76,2.8-1.66,5.27-2.55,7.39,1.38,3.19,2.75,6.39,4.13,9.58l3.66-9.39c-.81-2.06-1.62-4.46-2.28-7.18-.76-3.13-1.15-5.98-1.35-8.43Z"/><path class="cls-1" d="m56.19,20.7c-2.24.87-4.86,1.72-7.83,2.42-2.82.66-5.42,1.06-7.71,1.28-2.15,2.73-4.3,5.47-6.45,8.2l10-1.27c1.42-1.7,3.15-3.55,5.22-5.43,2.39-2.16,4.71-3.87,6.77-5.21Z"/><path class="cls-1" d="m56.24,48.87c-1.96-1.39-4.13-3.09-6.35-5.18-2.11-1.98-3.88-3.93-5.34-5.71-3.47-.28-6.93-.55-10.4-.83l6.59,7.62c2.2.24,4.7.65,7.42,1.34,3.12.79,5.83,1.78,8.09,2.75Z"/><path class="cls-1" d="m30.65,63.9c.27-2.39.72-5.11,1.47-8.06.72-2.81,1.57-5.29,2.43-7.43-1.43-3.17-2.86-6.34-4.29-9.51l-3.5,9.45c.85,2.04,1.69,4.43,2.4,7.14.81,3.12,1.26,5.96,1.49,8.41Z"/><path class="cls-1" d="m4.95,48.87c2.23-.9,4.84-1.8,7.79-2.54,2.81-.71,5.4-1.14,7.69-1.4,2.11-2.77,4.21-5.53,6.32-8.3l-9.98,1.42c-1.39,1.72-3.09,3.6-5.14,5.51-2.36,2.2-4.65,3.94-6.69,5.31Z"/><circle class="cls-1" cx="30.52" cy="34.53" r="3.84"/><path class="cls-1" d="m32.85,30.69c.46-1.81.93-3.62,1.39-5.43l3.58-3.17c-.2,1.49-.41,2.98-.61,4.48l-4.35,4.12Z"/><path class="cls-1" d="m34.97,34.96c1.8-.52,3.59-1.03,5.39-1.55l4.54,1.48c-1.39.58-2.78,1.16-4.17,1.74l-5.76-1.66Z"/><path class="cls-1" d="m32.85,38.62c1.28,1.36,2.57,2.72,3.85,4.07l.77,4.71c-1.15-.97-2.31-1.94-3.46-2.91l-1.17-5.88Z"/><path class="cls-1" d="m28.17,38.45c-.46,1.81-.93,3.62-1.39,5.43l-3.58,3.17c.2-1.49.41-2.98.61-4.48l4.35-4.12Z"/><path class="cls-1" d="m26.02,34.63c-1.8.5-3.6,1.01-5.4,1.51l-4.53-1.51c1.39-.57,2.79-1.14,4.18-1.7l5.75,1.71Z"/><path class="cls-1" d="m23.39,22.09c1.31,1.34,2.62,2.67,3.92,4.01l.86,4.7c-1.17-.95-2.34-1.9-3.51-2.84l-1.27-5.86Z"/><path class="cls-1" d="m37.82,22.09c1.41-1.92,2.82-3.84,4.24-5.76"/><line class="cls-1" x1="52.76" y1="35.01" x2="44.9" y2="34.89"/><line class="cls-1" x1="41.47" y1="54.2" x2="37.48" y2="47.41"/><line class="cls-1" x1="18.83" y1="53.68" x2="23.21" y2="47.05"/><line class="cls-1" x1="7.81" y1="34.29" x2="16.09" y2="34.63"/><line class="cls-1" x1="19.18" y1="15.15" x2="23.39" y2="22.09"/><polyline class="cls-1" points="9.83 32.62 11.76 34.45 9.57 36.21"/><polyline class="cls-1" points="13.36 32.86 14.84 34.63 12.98 36.62"/><polyline class="cls-1" points="22.07 16.22 21.29 18.62 18.96 17.83"/><polyline class="cls-1" points="23.57 19.12 23.01 21.46 20.76 20.95"/><polyline class="cls-1" points="19.98 14.7 19.98 16.22 18.58 15.97"/><polyline class="cls-1" points="8.1 33.41 9.1 34.34 8.1 35.38"/><polyline class="cls-1" points="37.82 19.12 38.13 21.67 40.92 21.67"/><polyline class="cls-1" points="39.54 16.22 39.84 19.31 42.77 18.84"/><polyline class="cls-1" points="41.16 15.78 41.38 17.42 42.77 17.09"/><polyline class="cls-1" points="47.87 33.41 46.24 35.01 47.87 36.62"/><polyline class="cls-1" points="51.5 33.41 49.39 35.01 51.1 37.15"/><polyline class="cls-1" points="52.76 33.95 51.5 35.01 52.76 36.14"/><polyline class="cls-1" points="37.48 50.52 38.04 48.36 40.14 48.87"/><polyline class="cls-1" points="38.81 53.71 39.82 51.39 41.93 52"/><polyline class="cls-1" points="40.82 54.63 41.01 53.42 42.45 53.71"/><polyline class="cls-1" points="21.33 53.42 20.72 50.8 18.34 51.08"/><polyline class="cls-1" points="19.42 54.2 19.42 52.78 18.07 52.95"/><polyline class="cls-1" points="23.21 50.52 22.67 47.86 20.02 48.13"/><circle class="cls-1" cx="30.65" cy="67.6" r="1.28"/><circle class="cls-1" cx="59.43" cy="50.8" r="1.28"/><circle class="cls-1" cx="57.47" cy="19.83" r="1.28"/><circle class="cls-1" cx="30.95" cy="1.53" r="1.28"/><circle class="cls-1" cx="2.51" cy="18.05" r="1.28"/><circle class="cls-1" cx="1.53" cy="50.67" r="1.28"/></g></svg>