<?xml version="1.0" encoding="UTF-8"?><svg id="Layer_2" xmlns="http://www.w3.org/2000/svg" width="70.5" height="89.23" viewBox="0 0 70.5 89.23"><defs><style>.cls-1{fill:none;stroke:#221f20;stroke-miterlimit:10;stroke-width:.5px;}</style></defs><g id="Layer_1-2"><ellipse class="cls-1" cx="9.72" cy="8.5" rx="2.53" ry="8.83" transform="translate(-2.46 4.21) rotate(-21.75)"/><path class="cls-1" d="m6.45.3c.82,2.49,1.88,5.26,3.27,8.2,1.28,2.71,2.63,5.1,3.93,7.19"/><circle class="cls-1" cx="7.57" cy="6.1" r=".24"/><circle class="cls-1" cx="8.27" cy="7.83" r=".25"/><circle class="cls-1" cx="8.86" cy="9.07" r=".22"/><circle class="cls-1" cx="9.62" cy="10.42" r=".25"/><path class="cls-1" d="m23.49,17.21c-.75,2.43-2.89,7.79-4.45,7.53-2-.33-3.38-9.94.36-17.46,1.19-2.39,3.32-5.43,4.41-5.06.87.29.79,2.68.67,6.49-.13,3.96-.19,5.93-.98,8.5Z"/><path class="cls-1" d="m22.73,2.6c-.06,2.84-.29,6-.78,9.39-.69,4.86-1.77,9.14-2.91,12.75"/><circle class="cls-1" cx="19.79" cy="12.46" r=".18"/><circle class="cls-1" cx="19.79" cy="14.71" r=".18"/><circle class="cls-1" cx="19.56" cy="16.82" r=".18"/><path class="cls-1" d="m35.4,89.23c.03-1.81.1-8.02-.53-15.81-.75-9.37-2.51-21.03-6.53-30.09-1.08-2.44-4.57-9.73-9.85-18.28-2.17-3.51-4.1-6.36-5.49-8.34"/><path class="cls-1" d="m10.8,25.64c5.21,1.41,10.03,5.07,9.51,6.42-.55,1.45-7.26.32-11.81-1.19C5.58,29.9-.03,27.6.26,26.18c.28-1.34,5.78-1.83,10.54-.54Z"/><path class="cls-1" d="m.26,26.18c2.8.03,6.69.38,11.09,1.76,3.78,1.18,6.78,2.76,8.96,4.12.37.13.79.3,1.21.53,1.25.68,2.08,1.57,2.58,2.23"/><circle class="cls-1" cx="5.96" cy="28.7" r=".11"/><circle class="cls-1" cx="7.54" cy="28.86" r=".16"/><ellipse class="cls-1" cx="9.19" cy="29.68" rx=".28" ry=".2"/><ellipse class="cls-1" cx="10.98" cy="29.94" rx=".24" ry=".26"/><path class="cls-1" d="m28.78,22.93c1.59-3.91,4.6-7.95,5.77-7.48,1.27.51.29,6.24-1.13,10.34-1.4,4.07-4.22,9.39-5.54,9.01-1.34-.39-1.23-6.64.89-11.87Z"/><circle class="cls-1" cx="32.4" cy="23.65" r=".15"/><circle class="cls-1" cx="31.9" cy="25.69" r=".2"/><circle class="cls-1" cx="31.24" cy="27.11" r=".17"/><path class="cls-1" d="m27.6,41.71c-.26-1.12-.48-2.73-.23-4.63.11-.87.31-1.64.52-2.29.69-3.65,1.61-7.59,2.85-11.75.72-2.42,1.5-4.71,2.29-6.87"/><path class="cls-1" d="m19.26,40.12c-.14-.24-1.51-2.56-4.08-2.76-2.07-.16-4.36,1.12-4.36,2.24,0,1.25,2.84,2.66,5.31,2.24,1.56-.27,2.61-1.2,3.12-1.72Z"/><path class="cls-1" d="m21.8,43.59c-.29-.1-3.07-.99-5.19.69-1.72,1.35-2.54,4-1.71,4.9.93,1,4.17.11,5.77-1.99,1.01-1.32,1.13-2.83,1.13-3.6Z"/><path class="cls-1" d="m35.2,52.96c.33-.01,3.47-.18,4.79-2.55,1.06-1.91.64-4.73-.6-5.28-1.38-.61-4.15,1.41-4.75,3.99-.38,1.62.2,3.1.56,3.83Z"/><path class="cls-1" d="m45.72,42.2c.19-.26,2.01-2.74,1.05-4.89-.78-1.73-3.16-2.76-4.34-2.08-1.31.76-1.51,3.86.06,5.55.99,1.07,2.45,1.34,3.23,1.42Z"/><path class="cls-1" d="m19.26,40.12c1.06.18,2.25.45,3.53.88,2.42.81,4.35,1.89,5.78,2.85"/><path class="cls-1" d="m21.8,43.59c.51-.28,1.24-.62,2.18-.83,1.02-.23,1.91-.22,2.51-.17"/><circle class="cls-1" cx="13.06" cy="38.98" r=".24"/><ellipse class="cls-1" cx="16.29" cy="47.25" rx=".28" ry=".23"/><circle class="cls-1" cx="38.42" cy="46.99" r=".26"/><circle class="cls-1" cx="43.86" cy="37.05" r=".23"/><path class="cls-1" d="m45.69,49.63c.19-1.13.34-2.49.32-4.03-.01-1.27-.13-2.42-.29-3.4"/><path class="cls-1" d="m35.2,52.96c-.42.51-.9,1.16-1.32,1.98-.63,1.21-.93,2.33-1.08,3.15"/><path class="cls-1" d="m34.71,33.39c2.52-2.74,6.45-5.99,7.29-5.3.79.65-1.21,4.71-3.58,7.68-3.24,4.03-8.03,7.08-8.86,6.29-.83-.8,2.26-5.52,5.15-8.67Z"/><path class="cls-1" d="m28.34,43.32l1.22-1.27c2.08-1.97,4.25-4.19,6.45-6.65,2.25-2.52,4.24-4.98,5.99-7.31"/><path class="cls-1" d="m22.19,56.89c-5.43-1.54-11.82-1.62-12.08-.44-.23,1.06,4.42,3.16,8.43,4.06,4.76,1.06,10.14.77,10.33-.31.18-1.01-4.22-2.62-6.69-3.32Z"/><path class="cls-1" d="m10.11,56.45c3.17.95,6.7,1.84,10.55,2.56,2.89.54,5.64.93,8.21,1.2.76.48,1.65,1.13,2.56,2.02,1.21,1.2,2.03,2.4,2.56,3.34"/><ellipse class="cls-1" cx="18.15" cy="59.68" rx=".25" ry=".19"/><ellipse class="cls-1" cx="19.46" cy="59.79" rx=".27" ry=".2"/><circle class="cls-1" cx="21.58" cy="59.83" r=".24"/><path class="cls-1" d="m53.07,36.35c-1.18.11-3.42-7.91-2.6-15.84.15-1.43.48-4.69,1.41-4.8.97-.11,2.32,3.31,2.81,6.2.42,2.45.19,4.37-.29,8.1-.54,4.19-.8,6.28-1.32,6.33Z"/><path class="cls-1" d="m51.87,15.71c.38,2.94.7,6.06.91,9.34.26,3.99.34,7.77.29,11.29-.05.3-.1.59-.15.89-2.46,3.9-4.93,8.1-7.34,12.61-4.44,8.31-7.94,16.25-10.71,23.56"/><path class="cls-1" d="m63.15,14.43c.93-1.03,2.93-3.23,3.8-2.77,1.16.61.12,5.8-2.29,9.87-2.39,4.03-6.28,7.26-7.18,6.63-.49-.34.05-1.87,1.12-4.92,1.27-3.62,2.21-6.23,4.55-8.81Z"/><path class="cls-1" d="m66.96,11.66c-1.39,2.9-2.99,5.96-4.84,9.14-1.54,2.64-3.1,5.1-4.63,7.36l-4.57,9.08-5.32,8.94"/><circle class="cls-1" cx="63.28" cy="16.27" r=".14"/><ellipse class="cls-1" cx="62.52" cy="17.08" rx=".15" ry=".2"/><circle class="cls-1" cx="61.73" cy="18.96" r=".19"/><circle class="cls-1" cx="61.01" cy="20.15" r=".23"/><circle class="cls-1" cx="64.16" cy="19.92" r=".16"/><circle class="cls-1" cx="63.48" cy="21.3" r=".2"/><path class="cls-1" d="m60.32,35.51c3.58-1.78,9.22-3.47,9.87-2.28.56,1.03-2.69,3.96-5.12,5.52-2.98,1.91-5.65,2.34-9.16,2.9-2.65.43-3.11.18-3.21-.05-.1-.23.05-.71,2.37-2.53,2.23-1.75,3.34-2.62,5.25-3.57Z"/><circle class="cls-1" cx="61.02" cy="36.58" r=".13"/><circle class="cls-1" cx="62.38" cy="39.08" r=".13"/><circle class="cls-1" cx="63.53" cy="38.35" r=".16"/><circle class="cls-1" cx="60.73" cy="40.22" r=".24"/><path class="cls-1" d="m46.64,47.88c.98-1.24,2.13-2.56,3.48-3.9.88-.87,1.74-1.66,2.58-2.37,5.83-2.79,11.66-5.58,17.49-8.38"/><path class="cls-1" d="m53.04,49.25c4.88-2.22,11.09-3.56,11.66-2.32.54,1.18-4.09,4.61-7.95,6.61-5.63,2.92-12.68,4.41-13.28,3.07-.58-1.27,4.72-5.16,9.57-7.37Z"/><path class="cls-1" d="m41.28,58.38c.31-.35.71-.74,1.22-1.13.34-.26.67-.47.97-.63,3.17-1.49,6.38-2.98,9.63-4.47,3.9-1.78,7.76-3.52,11.6-5.22"/><circle class="cls-1" cx="52.16" cy="51.06" r=".15"/><circle class="cls-1" cx="53.4" cy="50.3" r=".13"/><circle class="cls-1" cx="55.44" cy="49.45" r=".19"/><circle class="cls-1" cx="56.62" cy="48.98" r=".19"/><circle class="cls-1" cx="52.71" cy="53.79" r=".18"/><circle class="cls-1" cx="54.31" cy="53.19" r=".23"/><path class="cls-1" d="m40.6,63.99c-.23-1.27,5.33-3.38,9.37-4.3,4.17-.95,9.83-1.33,10.17-.12.3,1.1-3.79,3.41-7.48,4.53-5.53,1.68-11.83,1.19-12.06-.11Z"/><path class="cls-1" d="m38.2,65.18l2.4-1.18c3.67-1.19,7.77-2.31,12.26-3.21,2.53-.51,4.96-.9,7.28-1.21"/><circle class="cls-1" cx="47.93" cy="64.04" r=".17"/><circle class="cls-1" cx="49.78" cy="63.24" r=".25"/><circle class="cls-1" cx="51.4" cy="62.83" r=".16"/><circle class="cls-1" cx="52.71" cy="62.55" r=".18"/></g></svg>