<?xml version="1.0" encoding="UTF-8"?><svg id="Layer_2" xmlns="http://www.w3.org/2000/svg" width="136.57" height="134.44" viewBox="0 0 136.57 134.44"><defs><style>.cls-1{fill:none;stroke:#fffcf1;stroke-miterlimit:10;}</style></defs><g id="Layer_1-2"><circle class="cls-1" cx="67.33" cy="63" r="28.87"/><path class="cls-1" d="m46.64,38.69c-.39-1.21-1.04-3.02-2.12-5.06-3.18-6.02-6.59-7.6-8.68-11.29-1.5-2.64-2.65-6.93-.72-14.03.53,2.56,1.62,5.7,4.05,8.39,4.7,5.2,10.58,4.49,13.75,9.55,1.1,1.75,1.9,4.25,1.59,7.88"/><path class="cls-1" d="m60.6,31.54c.32-1.04.7-2.62.69-4.54-.02-5.06-2.67-7.29-1.96-10.83.25-1.26.99-2.99,3.24-4.81-.67,3.62-.04,6.05.65,7.59,1.21,2.71,2.98,3.46,3.8,6.11.77,2.49.17,4.88-.44,6.48"/><path class="cls-1" d="m70.07,30.62c1.47-.72,3.55-2,5.09-4.26,3.76-5.52.38-11.13,2.87-16.85,1.2-2.75,4.03-6.15,11.37-8.58-.9,1.35-2.21,3.62-2.95,6.63-1.87,7.65,1.88,12.13-.19,18.42-.63,1.92-2.02,4.69-5.55,7.5"/><path class="cls-1" d="m85.53,35.24c1.64-.13,3.83-.59,5.65-2.13,2.89-2.44,2.38-5.52,4.72-7.41,1.44-1.16,4.06-1.95,9.26-.37-3.71,1.41-5.47,3.35-6.39,4.81-1.81,2.9-1.31,5.53-3.7,7.96-1.37,1.39-3,2.01-4.07,2.31"/><path class="cls-1" d="m98.21,46.82c2.57-1.2,6.59-3.14,11.48-5.74,5.13-2.72,6.35-3.59,8.52-4.17,3.24-.86,8.53-1.05,16.39,3.52-2.27-.08-5.79.06-9.81,1.39-3.97,1.31-6.8,3.24-8.05,4.17-4.42,3.26-4.8,5.53-8.8,7.68-2.38,1.28-4.61,1.75-6.02,1.94"/><path class="cls-1" d="m101.82,60.7c.65.74,1.7,1.76,3.24,2.5,4.53,2.18,8.19-.51,11.76,1.3,1.38.7,3.08,2.24,4.17,6.02-3.7-1.86-6.5-1.96-8.42-1.67-2.46.37-3.9,1.44-6.57,1.2-2.13-.19-3.81-1.1-4.91-1.85"/><path class="cls-1" d="m101.08,75.38c1.36,1.79,3.65,4.36,7.11,6.41,6.13,3.63,10.39,2.34,14.5,5.58,2.13,1.68,4.64,4.89,5.44,11.71-1.74-2.32-4.16-4.68-7.53-5.86-4.64-1.63-6.81.46-13.8-.98-3.18-.65-7.4-1.58-8.92-4.88-.71-1.53-.62-3.09-.42-4.18"/><path class="cls-1" d="m39.68,49.56c-.39-.6-1.1-1.59-2.16-2.6-3.76-3.59-7.33-3.1-9.12-5.76-.69-1.03-1.34-2.87-.44-6.28,1.84,2.47,3.7,3.53,5.09,4.04,4.23,1.56,8.09-.49,10.49,1.89.73.72,1.05,1.58,1.2,2.15"/><path class="cls-1" d="m36.14,69.58c-1.67-.94-4.25-2.15-7.56-2.75-9.61-1.75-15.09,3.53-20.99.95-2.16-.94-4.85-3.15-6.8-8.86,2.21.7,5.52,1.42,9.38.86,1.82-.27,2.64-.66,9.46-3.35,7.21-2.85,9.08-3.52,11.53-3.01,2.29.47,3.96,1.73,4.98,2.67"/><path class="cls-1" d="m40.37,84.64c-.99-.2-2.58-.39-4.39.03-4.43,1.03-5.56,4.63-9.33,5.89-1.65.55-4.26.82-8.18-.99,2.85-1.57,4.79-3.23,6.01-4.41,4.27-4.15,5.01-7.65,8.85-9.22,2.01-.82,3.93-.73,5.14-.57"/><path class="cls-1" d="m44.22,89.93c-5.63,1.02-8.41,3.31-9.91,5.2-3.74,4.7-1.78,9.74-5.49,16.55-1.99,3.65-4.64,6.06-6.54,7.51,11.65-1.04,16.18-4.72,18.09-8.08,1.97-3.47,1.84-7.76,5.87-11.55,2.11-1.98,4.45-2.95,6.06-3.46"/><path class="cls-1" d="m58.85,96.57c-2.67,2-3.36,3.78-3.46,5.1-.26,3.47,3.5,5.4,3.27,9.33-.1,1.82-1.01,3.27-1.8,4.24.81-.4,1.99-1.08,3.15-2.22.62-.61,3.4-3.48,3.66-7.6.17-2.75-.94-3.63-.19-5.68.58-1.59,1.81-2.6,2.69-3.18"/><path class="cls-1" d="m72.7,98.4c-1.21,2.15-2.58,5.41-2.12,9.14.74,5.96,5.53,7.99,7.22,14.43.64,2.45.99,6.13-.67,11.16,1.47-1.06,3.88-3.07,5.77-6.35.76-1.31,3.34-5.77,2.69-11.26-.59-5-3.29-5.93-4.62-11.93-.74-3.34-.61-6.24-.38-8.18"/><path class="cls-1" d="m85.7,91.57c.45,1.65,1.35,3.95,3.36,5.77,2.25,2.03,4.17,1.93,6.45,3.95,1.19,1.05,2.66,2.85,3.56,6.06,1.15-4.22.51-6.9-.29-8.56-1.24-2.59-3.25-3.57-5-7.31-.81-1.72-1.19-3.25-1.39-4.24"/></g></svg>