<?xml version="1.0" encoding="UTF-8"?><svg id="Layer_2" xmlns="http://www.w3.org/2000/svg" width="357.5" height="420.49" viewBox="0 0 357.5 420.49"><defs><style>.cls-1{fill:none;stroke:#231f20;stroke-miterlimit:10;}</style></defs><g id="Layer_1-2"><path class="cls-1" d="m187,174.99c.06-6.15.13-12.31.19-18.46.95-1.78,1.86-3.65,2.73-5.61,4.95-11.17,6.93-21.9,7.54-30.93-.82-2.58-2.36-6.31-5.33-10.09-4.44-5.66-9.73-8.42-12.56-9.65-6.91-.21-13.83-.42-20.74-.62-1.56-.57-3.82-1.61-5.9-3.62-2.45-2.35-3.11-4.55-4.76-7.42-2.02-3.52-3.51-4.55-7.4-8.89-2.75-3.07-6.58-7.66-10.87-13.95l-18.27-14.84c4.47,1.17,11.06,3.49,17.88,8.33,4.88,3.45,8.41,7.16,10.85,10.15l-3.35-3.75c1.14-1.56,2.29-3.41,3.3-5.56,3.45-7.34,3.49-14.31,3.14-18.47-.06,8.48-.12,16.96-.17,25.43.5-1.15,1.02-2.3,1.53-3.46.46-1.03.92-2.05,1.38-3.06-.4,10.89,2.86,20.79,9.16,24.23,2.58,1.41,8.03,3.03,13.59,3.6,1.7.18,3.13.22,4.12.23-1.84-.84-3.68-1.68-5.52-2.52-1.55-3.23-3.4-8.18-3.54-14.32-.07-3.08.3-5.99,3.48-17.65,1.1-4.04,2.6-9.32,4.49-15.51-.42,4.93-.84,9.89-1.23,14.87-.26,3.22-.51,6.43-.75,9.63,1.32-.62,2.64-1.24,3.97-1.87-3.71,9.86-2.15,15.1-.43,17.9.78,1.27,1.81,2.41,14.92,10.45,8.07,4.95,9.13,5.41,10.73,7.53,2.41,3.19,2.38,5.29,5.7,12.33,1.67,3.55,3.26,6.35,4.35,8.19"/><path class="cls-1" d="m187,236.27c-.32-3.11-.63-6.22-.95-9.33-3.2-2.41-7.57-6.09-12.01-11.27-4.63-5.41-7.16-8.37-8.37-12.64-2.22-7.82,1.46-14.93,6.73-25.11,2.81-5.43,7.43-13.15,14.79-21.39v17.68"/><path class="cls-1" d="m186.04,226.95c1.97-5.29,3.94-10.57,5.91-15.86,2.68-2.78,7.17-6.68,13.6-8.88,7.37-2.52,12.68-1.23,25.67-1.04,4.63.07,11.52.01,20-.67v2.29c2.03.73,4.67,1.45,7.79,1.78,4.79.5,8.79-.14,11.47-.81,7.74-8.92,15.5-17.97,23.27-27.15,10.45-12.33,20.67-24.59,30.67-36.78-3.24,9.24-8.13,20.5-15.64,32.42-10.33,16.38-21.88,28.09-30.91,35.88,1.85.64,4.6,1.5,7.98,2.22,7.44,1.59,12.67,1.39,22.77,1.33,4.32-.02,10.76-.02,18.76.1-4.47,1.12-8.94,2.23-13.41,3.35-11.98.36-23.97.71-35.95,1.07l23.15,23.61-28.18-22.39c-3.93.56-8.71.94-14.15.73-5.63-.22-10.53-1.03-14.49-1.95,2.84,3.91,5.69,7.82,8.53,11.73l-15.84-12.8c-7.87.14-15.74.28-23.61.43,8.68,8.08,17.37,16.17,26.05,24.25l-28.64-20.87c-1.75.38-4.62,1.27-7.27,3.57-3.39,2.95-4.49,6.56-5.52,9.93-.8,2.62-1.76,6.98-1.27,12.54,1.11,2.1,2.45,5.16,3.23,9.05.81,4.01.73,7.46.48,9.86"/><path class="cls-1" d="m172.39,177.92c-.27,2.12-.4,5.01.14,8.36.72,4.51,2.33,7.96,3.57,10.12"/><path class="cls-1" d="m178.86,167.13c-.04,5.99-.09,11.98-.13,17.98"/><path class="cls-1" d="m191.96,211.09c2.69-9.4,6.03-19.53,10.19-30.19,3.76-9.64,7.72-18.5,11.67-26.56,11.47-8.15,22.94-16.31,34.41-24.46l15.21.49-11.66-4.72,11.66-17.53c1.57-2.07,3.66-4.47,6.4-6.82,4.25-3.66,8.47-5.88,11.64-7.22-1.3-.22-3.97-.49-6.96.67-1.65.64-2.87,1.51-3.68,2.2,2.12-1.25,4.84-3.15,7.56-5.95,2.48-2.55,4.19-5.08,5.35-7.09-4.75,1.89-11.38,5.3-17.53,11.51-2.21,2.23-4,4.46-5.46,6.54,1.24-5.3,2.38-11.06,3.31-17.24,1.01-6.71,1.64-13.02,2.01-18.86-.62-.22-1.67-.67-2.65-1.65-1.41-1.39-1.84-3-1.97-3.67-.82,1.41-1.64,2.83-2.46,4.24-.16,5.67-.64,11.96-1.61,18.73-1.15,8.04-2.78,15.26-4.55,21.54-2.01-3.3-4.01-6.6-6.02-9.9l1.07,19.4c-1.47,2.76-4.81,8.15-11.24,12.44-7.25,4.84-14.39,5.61-17.53,5.75-.27-14.31-.54-28.63-.8-42.94-3.07-3.72-7.44-10.1-9.63-19-.93-3.79-1.28-7.25-1.34-10.17.13-4.68.27-9.36.4-14.05-.47,1.07-.92,2.18-1.34,3.34-2.56,7.04-3.41,13.72-3.48,19.4.87,3.93,2.17,8.43,4.12,13.25,1.33,3.28,2.76,6.23,4.17,8.82.59,5.23.74,11.74-.44,19.03-.42,2.58-.96,4.98-1.57,7.19.67,3.03,1.34,6.06,2.01,9.1"/><path class="cls-1" d="m213.82,154.34l-.35-13.14c0-2.02,0-4.04,0-6.06"/><path class="cls-1" d="m224.04,136.57c-1.04.99-2.8,2.42-5.35,3.45-2.07.83-3.93,1.1-5.22,1.19"/><path class="cls-1" d="m185.77,93.23c1.36.45,3.53,1.36,5.71,3.2,2.23,1.88,3.5,3.92,4.17,5.19"/><path class="cls-1" d="m87.17,56.28c1.01,1.23,4.02,4.59,9.21,5.93,6.43,1.67,11.62-.94,12.83-1.59-1.29-1.36-4.1-3.94-8.49-5.26-6.51-1.95-11.98.23-13.54.92Z"/><path class="cls-1" d="m98.97,59.45l10.23,1.17c2.26.87,5,1.74,8.17,2.35,3.91.76,7.39.94,10.2.88"/><path class="cls-1" d="m75.59,37.51c.72,1.42,2.94,5.34,7.72,7.77,5.93,3.01,11.55,1.57,12.87,1.19-.97-1.61-3.16-4.73-7.17-6.96-5.94-3.3-11.75-2.34-13.43-2Z"/><path class="cls-1" d="m93.77,30.79c.02,1.6.29,6.11,3.39,9.9,3.84,4.7,9.28,4.94,10.57,4.96-.16-1.87-.73-5.57-3.25-8.94-3.72-4.98-9.13-5.76-10.71-5.92Z"/><path class="cls-1" d="m98.97,37.12c1.32.64,3.22,1.73,5.11,3.58,1.85,1.81,2.99,3.66,3.65,4.95,1.3,1.75,2.6,3.5,3.9,5.26-2.46-.25-5.43-.75-8.7-1.75-2.61-.8-4.87-1.75-6.75-2.68-3.43-1.45-6.86-2.89-10.3-4.34"/><path class="cls-1" d="m121.1,36.47c-.66,1.2-2.36,4.62-1.65,8.42.88,4.72,4.85,6.65,5.81,7.09.67-1.43,1.8-4.36,1.35-7.67-.68-4.89-4.39-7.21-5.51-7.84Z"/><polyline class="cls-1" points="124.16 46.16 125.26 51.98 125.72 56.77"/><path class="cls-1" d="m132.43,9.68c-.78,1.75-2.76,6.71-1.41,11.3,1.68,5.69,7.3,6.75,8.65,6.96.77-2.06,2.03-6.19,1.07-10.23-1.42-5.98-6.72-7.62-8.31-8.03Z"/><path class="cls-1" d="m129.07,6.61c.31.03,1.41.16,2.32,1.08.77.77.97,1.66,1.03,1.99"/><path class="cls-1" d="m137.05,18.34c-.07.98-.05,2.17.17,3.51.46,2.78,1.61,4.85,2.45,6.08.92,1.71,1.93,3.98,2.69,6.75.72,2.66,1.01,5.03,1.1,6.92"/><path class="cls-1" d="m159.16,27.84c-1.64.72-6.12,2.91-8.19,7.14-2.57,5.25.4,9.89,1.14,10.97,1.83-.95,5.31-3.04,7.28-6.6,2.93-5.28.54-10.12-.23-11.51Z"/><path class="cls-1" d="m157.99,25.33s.93.11,1.3.93c.37.81-.1,1.53-.13,1.58"/><path class="cls-1" d="m155.98,36.47c-.76.7-1.85,1.89-2.69,3.63-1.18,2.45-1.23,4.7-1.18,5.85-.55,1.96-1.23,4.06-2.08,6.27-1.2,3.13-2.53,5.9-3.83,8.29"/><path class="cls-1" d="m167.93.76c-.95,1.31-3.44,5.12-3.25,10.15.24,6.23,4.45,9.89,5.47,10.72,1-1.61,2.77-4.97,2.79-9.28.02-6.39-3.83-10.45-5-11.59Z"/><path class="cls-1" d="m193.71,7.6c-1.74.05-6.62.4-10.34,3.65-4.62,4.03-4.17,9.65-4.03,10.99,2.01-.19,5.98-.84,9.31-3.49,4.94-3.92,5.08-9.51,5.05-11.14Z"/><path class="cls-1" d="m187.36,13.54c-2.67,2.9-5.35,5.8-8.02,8.69-1.1,1.49-2.24,3.22-3.31,5.23-2.21,4.14-3.4,8.03-4.06,11.12.74-7.65-.14-11.72-.87-14.17-.29-.98-.62-1.91-.97-2.78-.71-1.56-1.59-4.02-1.69-7.13-.03-1.01-.03-2.46.35-4.22"/><path class="cls-1" d="m193.71,7.6c.08-.42.23-.91.48-1.45.54-1.15,1.31-1.9,1.82-2.31"/><path class="cls-1" d="m190.99,41.08c-1.57.3-5.95,1.33-9.2,5.05-4.02,4.61-3.43,10.06-3.25,11.34,1.81-.48,5.36-1.68,8.28-4.75,4.32-4.55,4.25-10.05,4.17-11.64Z"/><path class="cls-1" d="m184.16,48.15c-.85.83-1.79,1.88-2.69,3.18-1.58,2.29-2.44,4.5-2.92,6.14-.28.58-.89,1.62-2.06,2.51-.98.74-1.93,1.07-2.53,1.22"/><path class="cls-1" d="m186.52,61.82c.38,1.56,1.65,5.88,5.5,8.87,4.78,3.7,10.12,2.7,11.38,2.42-.57-1.78-1.96-5.26-5.15-7.97-4.73-4.01-10.16-3.53-11.73-3.33Z"/><path class="cls-1" d="m193.09,67.57c1.3.98,2.86,2.03,4.69,3.02,2.04,1.12,3.95,1.93,5.63,2.52"/><path class="cls-1" d="m204.22,20.08c-.89,1.41-3.23,5.47-2.71,10.55.65,6.3,5.22,9.67,6.33,10.43.93-1.71,2.54-5.26,2.28-9.64-.39-6.49-4.63-10.29-5.9-11.34Z"/><path class="cls-1" d="m230.66,7.6c-1.82.72-6.86,2.97-9.9,8.18-3.77,6.46-1.76,12.85-1.25,14.35,2.07-.99,6.07-3.25,8.86-7.6,4.14-6.45,2.76-13.03,2.29-14.93Z"/><path class="cls-1" d="m225.28,16.62l-5.77,13.51-11.75,16.45c.03-1.84.05-3.68.08-5.52.31-1.68.58-4.52-.33-7.8-.46-1.67-1.11-3.02-1.72-4.06"/><path class="cls-1" d="m227.26,36.86c-1.98,1.1-5.22,3.23-8.09,6.97-3.15,4.11-4.34,8.19-4.83,10.46.8-.02,6.57-.27,10.48-5.21,4.22-5.34,2.62-11.57,2.44-12.22Z"/><path class="cls-1" d="m223.42,45.1c-.92,1.26-2.01,2.6-3.28,3.97-2,2.16-4,3.87-5.8,5.22-.87,1.4-1.93,2.93-3.22,4.51-1.26,1.55-2.5,2.87-3.66,3.99"/><path class="cls-1" d="m223.14,77.28c.71-.1,6.17-.96,9.15-6.02,2.29-3.87,2.26-8.76-.03-12.76-1.69,1.45-4.37,4.11-6.41,8.23-2.16,4.34-2.62,8.29-2.71,10.55Z"/><path class="cls-1" d="m229.12,67.57c-.39,1.28-.98,2.83-1.91,4.49-1.33,2.36-2.86,4.08-4.07,5.23-.15,1.95-.62,4.76-2,7.83-.88,1.94-1.9,3.5-2.81,4.67"/><path class="cls-1" d="m240.68,77.28c-.5.87-2.45,4.55-1.36,9.13,1.43,6.04,6.9,8.47,7.51,8.73.43-1.34,1.43-5.06.07-9.47-1.54-5.01-5.12-7.64-6.22-8.39Z"/><path class="cls-1" d="m243.29,84.6c.06,1.28.26,2.9.78,4.69.74,2.57,1.86,4.53,2.76,5.85"/><path class="cls-1" d="m238.22,35.43c-.14,1.6-.34,6.15,2.45,10.67,3.45,5.61,9.02,7.17,10.34,7.5.03-1.89-.17-5.72-2.4-9.68-3.31-5.86-8.78-7.94-10.39-8.49Z"/><path class="cls-1" d="m243.9,45.58c.48,1.13,1.27,2.66,2.57,4.22,1.62,1.94,3.36,3.12,4.55,3.8,1.33,1.18,2.89,2.76,4.39,4.81,1.72,2.35,2.85,4.58,3.59,6.37"/><path class="cls-1" d="m256.94,20.2c-1.14,1.45-4.17,5.64-4.01,10.63.19,6.19,5.14,9.2,6.34,9.88,1.21-1.76,3.36-5.38,3.44-9.7.12-6.39-4.4-9.86-5.77-10.82Z"/><path class="cls-1" d="m258.47,29.01c.48,1.36.97,3.19,1.16,5.38.22,2.58-.05,4.76-.36,6.32-.11,3.53.03,7.7.69,12.31.47,3.26,1.13,6.21,1.85,8.81"/><path class="cls-1" d="m284.24,37.73c-.69.93-1.82,2.34-3.41,3.87-2.79,2.68-4.39,3.19-5.71,4.64-1.45,1.58-2.84,4.55-1.9,10.68.69-.03,6.73-.41,10.31-5.65,2.7-3.95,2.97-9.16.72-13.53Z"/><path class="cls-1" d="m279.33,47.32c-.38,1.14-.91,2.43-1.65,3.8-1.42,2.61-3.11,4.51-4.47,5.8l-7.12,8.93"/><path class="cls-1" d="m297.45,59.14c-1.58.82-6.77,3.77-9.49,10.16-1.99,4.67-1.67,8.88-1.4,10.8,1.18-.32,6.35-1.87,9.54-7.12,3.87-6.37,1.65-12.96,1.34-13.84Z"/><path class="cls-1" d="m293.09,69.62c-.34,1.41-.97,3.37-2.23,5.48-1.44,2.4-3.11,4.02-4.3,5-.94,1.27-1.87,2.54-2.81,3.81"/><path class="cls-1" d="m287.45,92.9c1.43.7,5.57,2.49,10.84,1.54,6.54-1.17,10.16-5.72,10.99-6.81-1.74-.7-5.37-1.87-9.91-1.23-6.73.95-10.79,5.22-11.92,6.5Z"/><path class="cls-1" d="m298.36,89.87c-1.31.08-2.82.27-4.47.65-2.64.61-4.81,1.53-6.44,2.38-1.99.39-3.98.78-5.97,1.18"/><path class="cls-1" d="m263.44,130.37c1.46.3,7.12,1.27,12.78-2.06,4-2.36,5.98-5.68,6.77-7.21-1.69-.25-8.4-1.03-14.35,3.32-2.71,1.98-4.31,4.33-5.2,5.94Z"/><path class="cls-1" d="m273.21,127.21c-1.2.61-2.61,1.23-4.21,1.78-2.06.71-3.95,1.13-5.57,1.38"/><path class="cls-1" d="m197.46,119.99c1.43,2.14,3.81,6.31,4.6,12.11.9,6.65-.78,11.89-1.74,14.34"/><path class="cls-1" d="m199.89,153.61c-.34,2.52-.96,5.57-2.09,8.91-1.33,3.9-2.98,7.08-4.46,9.49"/><path class="cls-1" d="m187.99,180.85l3,11.9c.05,3.16.27,6.6.74,10.28.26,1.99.57,3.89.91,5.7"/><path class="cls-1" d="m193.63,180.94c.3,1.14.76,3.5.09,6.36-.63,2.71-1.97,4.55-2.73,5.45"/><path class="cls-1" d="m184.81,198.21c1.02,1.82,2.07,3.97,3,6.45,1.38,3.68,2.11,7.05,2.51,9.81"/><path class="cls-1" d="m199.89,186.85c1.65-1.2,4.01-2.87,6.9-4.77,5.87-3.85,8.81-5.78,12.48-7.39,5.52-2.41,8.76-3.83,12.58-4.73.84-.2,3.04-.69,5-2.47,1.25-1.13,1.96-2.4,2.36-3.28.08,1.08.39,2.59,1.52,3.56,1.73,1.49,4.41.88,7.92,0,3.69-.93,8.08-2.1,13.03-3.56,4.02-1.19,9.93-3.46,16.08-7.92,5.53-4,9.27-8.34,11.64-11.55-1.81,3.63-5.08,9.09-10.73,14.01-7.75,6.75-16.17,9.14-26.79,12.17-9.83,2.8-15.37,3.05-26.3,7.7-2.91,1.24-5.26,2.39-6.83,3.19-2.81,2.12-5.86,4.72-8.94,7.87-5.72,5.88-9.65,11.8-12.34,16.66"/><path class="cls-1" d="m239.21,164.21c2-.85,6.69-3.16,10.27-8.38,3.02-4.4,3.77-8.72,3.99-10.88-1.97.68-5.07,2.05-7.94,4.88-5.56,5.48-6.21,12.4-6.32,14.37Z"/><path class="cls-1" d="m246.92,152.02c-1.14,1.17-2.37,2.59-3.57,4.3-2.02,2.88-3.31,5.65-4.14,7.89"/><path class="cls-1" d="m295.04,123.14c1.06-.81,3.57-2.98,4.8-6.74,1.72-5.26-.37-9.73-.85-10.69-1.02.69-3.75,2.76-5.05,6.57-1.86,5.44.67,10.11,1.1,10.86Z"/><path class="cls-1" d="m296.21,114.43c-.44.65-.94,1.55-1.28,2.68-.8,2.67-.22,5,.11,6.03-.21,2.98-.67,6.52-1.65,10.42-1.11,4.45-2.58,8.2-3.99,11.17,1.34-.54,3.56-1.64,5.65-3.79,1.71-1.76,2.69-3.56,3.24-4.78"/><path class="cls-1" d="m298.29,136.17c2.02-.29,6.8-1.24,10.85-4.97,3.42-3.15,4.66-6.74,5.14-8.57-1.97.14-5.11.64-8.2,2.45-5.99,3.51-7.44,9.4-7.79,11.09Z"/><path class="cls-1" d="m323.12,127.21c1.43-1.63,4.67-5.75,5.64-12,.82-5.27-.37-9.49-1.1-11.53-1.48,1.46-3.68,4.04-5.05,7.84-2.65,7.34-.24,13.87.51,15.69Z"/><path class="cls-1" d="m324.7,114.43c-.59,1.43-1.2,3.3-1.55,5.56-.45,2.93-.29,5.43-.03,7.22.19,2.07.25,4.59-.07,7.44-.48,4.2-1.61,7.63-2.65,10.09"/><path class="cls-1" d="m329.61,134.4c1.88-.79,6.29-2.92,9.3-7.59,2.54-3.93,2.85-7.75,2.86-9.65-1.87.64-4.79,1.91-7.35,4.46-4.94,4.94-4.89,11.04-4.81,12.77Z"/><path class="cls-1" d="m334.61,126.49c-.81.51-2.1,1.48-3.2,3.1-1.31,1.94-1.68,3.82-1.8,4.81-1.72,1.81-3.44,3.61-5.17,5.42"/><path class="cls-1" d="m330.84,154.01c2.01.19,6.9.39,12.3-2.29,4.55-2.25,7.25-5.45,8.48-7.11-1.9-.32-5.05-.57-8.73.47-7.11,2.01-10.99,7.37-12.04,8.93Z"/><path class="cls-1" d="m339.88,149.22c-.96.81-2.15,1.69-3.6,2.51-2.03,1.16-3.92,1.85-5.44,2.27-3.15,1.36-6.29,2.72-9.44,4.09h-4.65"/><line class="cls-1" x1="321.39" y1="158.1" x2="313.31" y2="164.62"/><path class="cls-1" d="m328.01,167.61c.4,1.64,1.59,5.53,5.14,8.94,3,2.87,6.22,4.01,7.85,4.46-.27-1.59-.94-4.14-2.75-6.7-3.51-4.96-8.74-6.35-10.24-6.69Z"/><path class="cls-1" d="m333.62,173.36l-5.61-5.75c-1.45-.59-3.2-1.17-5.22-1.55-4.2-.81-7.81-.47-10.27-.02"/><path class="cls-1" d="m309.67,182.9c.48.9,3.02,5.47,8.69,7.21,6.17,1.9,11.22-1.02,12-1.49-1.34-.87-3.25-2.09-5.58-3.48-5.24-3.14-6.45-3.53-7.58-3.7-1.4-.22-4.04-.33-7.53,1.47Z"/><path class="cls-1" d="m302.22,181.88c.98-.1,2.27-.15,3.75.05,1.52.2,2.77.6,3.7.97,1.56.19,3.43.54,5.48,1.19,2.19.69,4.03,1.54,5.47,2.32"/><path class="cls-1" d="m304.31,206.82c2.02.38,6.87,1,11.76-1.24,4.13-1.89,6.28-4.91,7.22-6.5-1.93-.49-5.08-1.03-8.54-.3-6.7,1.41-9.66,6.54-10.44,8.04Z"/><path class="cls-1" d="m313.81,202.81c-1.25.3-2.64.71-4.13,1.29-2.14.84-3.93,1.81-5.36,2.72-3.06,1.58-6.12,3.16-9.18,4.74"/><path class="cls-1" d="m336.93,210.39c1.21,1,3.86,2.9,7.7,3.45,6.48.92,11.26-2.76,12.17-3.48-.52-.63-3.75-4.41-9.23-4.7-6.31-.33-10.21,4.23-10.63,4.74Z"/><path class="cls-1" d="m346.56,209.13c-1.2.41-2.67.8-4.37,1.05-2.03.3-3.83.3-5.26.2-1.29-.08-2.89-.07-4.69.18-1.93.27-3.57.74-4.84,1.2"/><path class="cls-1" d="m266.28,166.78c.98,1.22,3.4,3.87,7.43,5.06,7.18,2.12,13.18-2.26,13.89-2.81-2.44-1.26-6.76-3.06-12.39-3.29-3.68-.14-6.75.43-8.94,1.03Z"/><path class="cls-1" d="m278.09,169.44c-1.32.28-3.89.64-6.91-.21-2.27-.64-3.92-1.7-4.9-2.46"/><path class="cls-1" d="m232.65,180.85c.71.99,3.58,4.74,8.92,5.94,3.78.85,6.89,0,8.24-.46-.88-1.09-4.49-5.31-10.6-6.07-2.78-.35-5.1.14-6.57.59Z"/><path class="cls-1" d="m225.58,178.62c.68.49,1.62,1.06,2.82,1.5,1.72.63,3.24.74,4.25.73"/><path class="cls-1" d="m257.14,196.09c1.46-.09,7.09-.59,11.42-5.11,3.06-3.19,3.93-6.77,4.22-8.38-1.67.19-8.22,1.14-12.52,6.67-1.96,2.51-2.76,5.1-3.12,6.82Z"/><path class="cls-1" d="m264.13,188.06c-.51,1.06-1.21,2.29-2.19,3.56-1.65,2.14-3.44,3.57-4.8,4.47l-5.91,4.41c-.17.42-.81,1.85-2.42,2.74-1.4.78-2.74.7-3.23.65"/><path class="cls-1" d="m298.83,163.1c.75-.75,3.59-3.78,4.21-9.14.44-3.79-.45-6.83-.91-8.15-.82.93-3.99,4.72-4.21,10.81-.1,2.77.45,5.05.9,6.48Z"/><line class="cls-1" x1="298.29" y1="171.25" x2="298.83" y2="163.1"/><path class="cls-1" d="m323.59,218.89c.39.69,3.27,5.53,9.33,6.64,6.45,1.17,11.05-2.88,11.56-3.36-1.68-1.22-4.96-3.25-9.59-4.07-5.14-.91-9.29.14-11.3.79Z"/><path class="cls-1" d="m313.99,215.12c1.17.79,2.73,1.69,4.67,2.44,1.87.73,3.57,1.11,4.93,1.32,1.57.47,3.46.9,5.63,1.15,1.68.19,3.21.23,4.55.19"/><path class="cls-1" d="m311.3,226.41c.13.76,1.3,6.74,6.98,9.78,4.53,2.42,8.92,1.38,9.95,1.11-.6-1.44-2.93-6.48-8.62-9.21-3.43-1.65-6.6-1.75-8.31-1.67Z"/><path class="cls-1" d="m301.05,215.51c1.94,1.49,4.14,3.42,6.33,5.87,1.57,1.75,2.86,3.46,3.92,5.03.82,1.11,1.99,2.48,3.59,3.81,1.35,1.12,2.66,1.93,3.76,2.5"/><path class="cls-1" d="m301.19,239.8c.26,1.78,1.31,7.38,6.18,11.77,2.93,2.64,6.03,3.76,7.83,4.25-.16-1.52-1.05-8.21-6.79-12.7-2.7-2.11-5.47-2.95-7.22-3.32Z"/><line class="cls-1" x1="307.51" y1="246.38" x2="301.19" y2="239.8"/><path class="cls-1" d="m290.86,231.59c-1.7,2.29-2.1,4.2-2.16,5.5-.14,2.74,1.16,4.17,1.6,8.02.23,1.98.12,3.61,0,4.64,3.92-2.84,5.87-7.43,4.97-11.67-.8-3.75-3.55-5.88-4.41-6.5Z"/><path class="cls-1" d="m293.15,240.19c.05-.98.02-2.23-.27-3.64-.45-2.22-1.34-3.9-2.02-4.96"/><path class="cls-1" d="m258.9,229.58c.78,1.26,3.96,6.06,10.27,7.88,4.46,1.29,8.24.45,9.89-.02-.98-1.4-5.02-6.82-12.27-8.16-3.3-.61-6.11-.16-7.89.29Z"/><path class="cls-1" d="m252.9,227.92c.08.21.7,1.74,2.39,2.3,1.91.63,3.48-.55,3.6-.65,2.38.55,5.25,1.47,8.29,3.05,1.32.68,2.5,1.4,3.54,2.11"/><path class="cls-1" d="m227.53,228.66c1.46,1.33,5.23,4.37,10.94,5.18,3.83.55,6.97-.13,8.77-.68-.63-.82-5.03-6.38-12.21-6.48-3.45-.05-6.11,1.18-7.5,1.97Z"/><path class="cls-1" d="m237.39,231.13c-1.38-.55-2.99-1.1-4.8-1.55-1.85-.47-3.56-.75-5.06-.92"/><path class="cls-1" d="m235.51,236.89c-.06,1.64-.12,8.59,5.06,14.33,3.07,3.4,6.62,4.87,8.5,5.49-.37-2.58-1.49-7.95-5.61-13.1-2.79-3.49-5.88-5.56-7.95-6.71Z"/><path class="cls-1" d="m241.45,245.28c-.79-1.37-1.71-2.84-2.79-4.37-1.07-1.5-2.13-2.84-3.16-4.02"/><path class="cls-1" d="m248.5,242.28c.73,1.36,3.23,5.59,8.54,7.9,4.24,1.84,8.06,1.49,9.69,1.24-.34-.8-3.55-8.13-10.99-9.63-3.08-.62-5.71-.01-7.24.5Z"/><path class="cls-1" d="m240.38,240.36c1.31.14,2.79.37,4.4.77,1.39.34,2.63.74,3.73,1.15,1.23.3,2.81.83,4.48,1.8.94.54,1.73,1.11,2.38,1.65"/><path class="cls-1" d="m220.13,225.69c-.54,2.06-1.68,7.51.69,13.61,1.43,3.68,3.58,6.18,5.02,7.59.56-1.52,2.45-7.18-.03-13.51-1.59-4.07-4.26-6.54-5.68-7.69Z"/><path class="cls-1" d="m224.18,236.29c.06-1.12.03-2.58-.27-4.23-.28-1.51-.7-2.77-1.11-3.75"/><path class="cls-1" d="m221.1,231.33c.19-.44.41-1.08.49-1.86.12-1.34-.25-2.4-.49-2.94"/><path class="cls-1" d="m166.84,189.61c.7-3.61,1.26-8.75.46-14.79-.49-3.74-1.38-6.93-2.3-9.49-.32-1.41-.81-3.83-1.07-6.85-.85-9.97,1.82-14.5-.72-20.31-.68-1.56-2.04-3.91-5.05-6.25.68,4.24,1.11,9.46.72,15.38-.21,3.12-.61,5.98-1.11,8.54"/><path class="cls-1" d="m149.03,180.94c1.83-4.89,3.96-13.02,1.44-21.75-2.03-7.05-6.1-11.1-12.98-18.39-5.51-5.84-13.75-14.75-23.92-26.44l.13-4.33c1.37,1.97,3.14,4.21,5.4,6.5,2.42,2.44,4.79,4.33,6.85,5.77l1.08-7.33,3,10.82c9.13,9.52,18.27,19.04,27.4,28.56.29.78.61,1.97.64,3.43.02,1.15-.15,2.11-.34,2.82"/><path class="cls-1" d="m167.93,146.05c.96.15,7.43,1.06,12.55-3.49,3.11-2.76,4.15-6.15,4.5-7.59-1.94.12-6.52.68-10.99,3.97-3.37,2.48-5.18,5.42-6.06,7.11Z"/><path class="cls-1" d="m176.12,140.58c-.63.84-1.54,1.87-2.8,2.84-2.04,1.58-4.08,2.29-5.39,2.63-1.25.35-2.5.7-3.74,1.05"/><path class="cls-1" d="m170.35,128.27c.76-1.25,3.55-6.17,2.3-12.31-.88-4.33-3.33-7.09-4.49-8.25-.79,1.48-3.74,7.41-1.64,14.1.96,3.04,2.62,5.18,3.83,6.45Z"/><path class="cls-1" d="m169.77,117.3c.47,1.2,1.02,2.98,1.17,5.18.17,2.46-.22,4.47-.58,5.79-.36,2.09-.96,4.58-1.96,7.29-1.23,3.3-2.72,5.98-4.05,8.03"/><path class="cls-1" d="m144.86,110.82c-.15.42-2.83,8.44,2.31,14.52,3.05,3.6,7.11,4.48,8.46,4.71-.41-2.93-1.53-7.96-5.04-13.04-1.91-2.77-4-4.79-5.73-6.19Z"/><path class="cls-1" d="m149.82,121.81c.92.74,2.03,1.77,3.1,3.18,1.44,1.89,2.24,3.73,2.7,5.06.85.62,1.7,1.25,2.55,1.87"/><path class="cls-1" d="m125.08,104.37c1.15-1.03,4.77-4.53,5.74-10.36.77-4.62-.53-8.29-1.18-9.82-.55,1.32-1.5,3.32-3.04,5.52-2.19,3.12-3.57,3.77-4.2,5.62-.59,1.71-.57,4.5,2.68,9.04Z"/><path class="cls-1" d="m126.94,94.28c-.47,1.01-.95,2.24-1.31,3.67-.64,2.55-.67,4.79-.56,6.42.55.9,1.14,2.07,1.58,3.52.89,2.98.65,5.57.39,7.08"/><path class="cls-1" d="m109.1,98.35c.65-.76,3.37-4.1,3.18-9.03-.23-5.81-4.31-9.21-4.94-9.71,0,1.12-.09,2.91-.51,5.06-.92,4.69-2.51,6.33-1.99,8.81.27,1.28,1.17,3.08,4.26,4.89Z"/><path class="cls-1" d="m108.99,88.97l.11,9.37c.06,1.95.44,5.18,2.33,8.52.73,1.29,1.53,2.33,2.28,3.17"/><path class="cls-1" d="m105.98,120.27c.36.81,2.22,4.72,6.76,6.48,5.49,2.12,10.3-.68,10.88-1.03-1.98-3.11-4-4.23-5.54-4.65-2.04-.56-3.39.05-7.27-.17-2.04-.11-3.71-.4-4.83-.62Z"/><path class="cls-1" d="m102.85,117.49c.19.42.59,1.2,1.42,1.87.65.53,1.29.78,1.7.91"/><path class="cls-1" d="m114.5,123.91c.97.23,2.23.44,3.69.46,1.64.02,3.04-.21,4.08-.46"/><line class="cls-1" x1="156.32" y1="206.34" x2="156.32" y2="213.39"/><path class="cls-1" d="m155.58,201.28c.29-2.15.52-5.98-.83-10.46-1.5-4.97-4.2-8.26-5.72-9.88-4.19-4.81-8.2-7.72-11.06-9.48-4.59-2.83-7.6-3.54-13.3-7.16-3.63-2.31-6.37-4.53-8.07-6,.68,1.58,1.67,3.45,3.12,5.36,3.12,4.13,6.82,6.42,9.17,7.61,1.75.57,4.47,1.71,7.16,4.04,1.86,1.61,3.12,3.29,3.94,4.59"/><path class="cls-1" d="m123.91,163.82c.49-.85,3.38-6.06,1.4-12.36-1.72-5.47-5.96-8.09-6.99-8.68.17,1.2.41,3.11.56,5.48.37,5.98-.26,8.3,1.13,11.18.56,1.17,1.64,2.81,3.9,4.38Z"/><path class="cls-1" d="m122.16,152.47c-.13,1.37-.18,3.07.05,5,.32,2.65,1.04,4.81,1.7,6.35"/><path class="cls-1" d="m111.32,152.47c.03-.68.24-8.54-5.7-12.63-2.35-1.62-4.78-2.03-6.27-2.14-.08.62-.85,7.19,4.05,11.59,3.1,2.79,6.72,3.12,7.93,3.18Z"/><path class="cls-1" d="m95.37,133.81c.27.65.86,1.8,2.06,2.78.7.57,1.38.91,1.91,1.11"/><path class="cls-1" d="m102.85,143.84c.75,1.42,1.98,3.38,3.95,5.29,1.63,1.58,3.25,2.64,4.51,3.33,1.76,1.95,3.52,3.9,5.28,5.84"/><path class="cls-1" d="m160.43,167.13c.26.81.5,1.81.62,2.97.19,1.85,0,3.43-.24,4.55"/><path class="cls-1" d="m161.45,177.3c.2,1,.43,2.86-.15,5.05-.44,1.65-1.17,2.87-1.72,3.63"/><path class="cls-1" d="m126.57,169.97c-3.28-.45-7.97-1.27-13.48-2.86-7.62-2.2-12.25-3.53-16.69-7.18-2.29-1.88-6.99-6.4-9.51-15.19v-9.76l-2.67,7.8-11.18-41.16c1.26,11.79,2.92,21.46,4.24,28.28,6.32,32.48,12.35,37.42,15.96,39.22,6.38,3.2,13.58,3.23,13.58,3.23,2.82.01,5.15-.37,6.77-.74"/><path class="cls-1" d="m87.61,130.02c.26-.17,6.43-4.24,5.97-10.67-.19-2.64-1.41-4.59-2.18-5.61-.68.48-4.81,3.53-5.35,9.01-.35,3.52.97,6.22,1.56,7.28Z"/><path class="cls-1" d="m86.89,134.98c.27-.66.57-1.58.7-2.69.11-.88.08-1.65.02-2.27-.2-1.47-.32-3.82.42-6.55.47-1.75,1.17-3.15,1.77-4.16"/><path class="cls-1" d="m81.5,105.97c1.49-.45,7.18-2.34,10.21-7.74,2.14-3.82,1.89-7.47,1.66-9.08-1.67.6-8.17,3.14-10.84,9.51-1.21,2.9-1.21,5.57-1.02,7.31Z"/><path class="cls-1" d="m93.24,83.49c.24.29,1.08,1.37,1.05,2.98-.02,1.4-.69,2.36-.93,2.68"/><path class="cls-1" d="m88.35,96.14c-1.07,1.23-2.18,2.61-3.29,4.16-1.42,1.99-2.59,3.9-3.56,5.66-.57.83-1.33,1.78-2.31,2.75-1.24,1.22-2.48,2.09-3.49,2.69"/><path class="cls-1" d="m72.16,90.68c1.12-.84,5.38-4.2,6.55-10.19.83-4.23-.3-7.65-.9-9.13-1.24,1.03-6.01,5.24-6.63,12.06-.28,3.1.39,5.65.98,7.26Z"/><path class="cls-1" d="m78.4,67.85c.11.3.33,1.01.17,1.89-.15.82-.56,1.37-.76,1.61"/><path class="cls-1" d="m76.23,79.36c-.81,1.23-1.69,2.81-2.45,4.73-1,2.54-1.43,4.83-1.63,6.59-.38,1.08-.84,2.82-.76,4.98.1,2.78,1.05,4.87,1.64,5.96"/><path class="cls-1" d="m65.95,81.2c-.05-1.66-.42-7.55-5-12.51-2.96-3.2-6.32-4.55-8.08-5.12-.1,1.15-.51,7.14,3.85,12.23,3.44,4.02,7.8,5.1,9.23,5.39Z"/><path class="cls-1" d="m57.16,71.36c.74,1.3,1.69,2.74,2.89,4.22,2.03,2.5,4.14,4.32,5.89,5.62,1.05,1.44,2.22,3.33,3.23,5.67,1.47,3.43,2.02,6.54,2.22,8.79"/><path class="cls-1" d="m46.84,83.41c-.05.36-1.15,8.61,5.08,13.55,4.31,3.42,9.26,2.98,10.36,2.86-.17-1.37-1.26-9.2-8.03-13.69-2.79-1.85-5.57-2.49-7.41-2.73Z"/><path class="cls-1" d="m53.99,91.66l8.29,8.16c1.52,1.14,3.11,2.43,4.73,3.89,2.91,2.63,5.29,5.26,7.23,7.68"/><path class="cls-1" d="m61.31,156.34c1.03-2.26,2.06-4.51,3.09-6.77.25,2.48,1.68,14.26,10.48,19.46,4.71,2.78,10.42,3.02,15.51,3.24,4.42.19,8.08-.21,10.59-.6"/><path class="cls-1" d="m64.31,160.45c-.61-1.01-1.58-2.5-3-4.11-2.72-3.07-4.94-4.16-6.86-5.8-1.99-1.69-4.43-4.61-5.99-9.94-.28,1.49-.57,2.99-.85,4.48l-10.74-11.28,7.16,11.68c6.49,7,11.39,12.76,14.68,16.75.91,1.11,9.68,11.76,17.01,15.37,2.33,1.14,4.74,1.74,4.74,1.74,3.71.92,6.7.67,7.54.58,4.07-.41,7.14-1.94,8.89-3"/><path class="cls-1" d="m64.17,146.04c.88-.96,4.19-4.8,4.35-10.83.11-4.26-1.4-7.47-2.15-8.85-.95,1.17-4.6,5.9-4.15,12.67.2,3.08,1.18,5.5,1.95,7.01Z"/><path class="cls-1" d="m65.07,136.98c.24.84.45,1.9.47,3.13.05,2.68-.78,4.77-1.36,5.92.08,1.18.15,2.36.23,3.54"/><path class="cls-1" d="m46.03,129.37c.65-1.28,3.03-6.34,1.32-12.44-1.1-3.91-3.37-6.43-4.57-7.58-.95,3.83-1.17,7.07-1.18,9.37-.02,5.06.98,6.91,1.51,7.73.93,1.45,2.08,2.37,2.92,2.92Z"/><path class="cls-1" d="m44.78,119.31c.51.89,1.1,2.15,1.44,3.75.59,2.75.15,5.06-.19,6.31-.09,1.49-.06,3.55.47,5.94.5,2.24,1.28,4.02,1.95,5.29"/><path class="cls-1" d="m17.39,111.28c-.08.82-.7,8.97,5.52,14.2,3.72,3.13,7.9,3.54,9.47,3.61-.06-5.26-1.69-7.89-3.2-9.33-1.81-1.72-3.59-1.87-7.07-4.33-2.17-1.54-3.73-3.08-4.71-4.15Z"/><path class="cls-1" d="m23.7,120.71c.6,1.2,1.54,2.77,3.01,4.33,2.05,2.18,4.22,3.4,5.65,4.05,1.5,1.57,3,3.14,4.49,4.71"/><path class="cls-1" d="m12.78,132.48c.59,1.09,5.12,9.18,14.28,10.57,4.35.66,7.93-.46,9.81-1.23-3.16-4.14-6.3-5.79-8.64-6.52-1.92-.6-3.13-.52-7.07-1.13-3.57-.55-6.46-1.21-8.39-1.7Z"/><path class="cls-1" d="m22.1,136.98c1.05,1.01,2.57,2.24,4.62,3.23,4.26,2.06,8.26,1.85,10.15,1.62,2.64,1.49,5.28,2.98,7.92,4.48"/><path class="cls-1" d="m80.45,179.34c-2.87.97-7.16,1.98-12.18,1.38-9.84-1.19-13.71-7.57-25.42-11.85-3.39-1.24-8.34-2.64-14.82-3.04,1.12,3.26,2.23,4.05,3.06,4.14.78.09,1.35-.45,2.73-.43,1.01.01,1.82.3,2.34.54-1.09-.26-3.85-.75-7,.43-2.51.94-4.07,2.49-4.81,3.33,2.12-.23,5.39-.43,9.32.02,13.75,1.59,17.12,9.09,29.06,13.09,7.49,2.51,15.74,1.82,32.24.42,9.11-.77,13.88-1.91,22.65-.83,11.15,1.37,15.9,4.74,17.79,6.25.94.76,4.96,4.1,8.25,11.42,4.3,9.59,2.18,14.49,4.4,39.17.49,5.45,1.12,11.08,4.86,16.82,2.44,3.74,5.34,6.2,7.38,7.67,1.12,1.9,3.53,5.4,7.91,8.03,2.77,1.66,5.39,2.41,7.23,2.78"/><path class="cls-1" d="m19.22,161.09c-.48-1.44-1.52-3.83-3.78-5.91-4.94-4.54-11.48-3.68-12.48-3.53.09.48,1.51,7.07,7.64,9.45,4,1.55,7.6.38,8.62,0Z"/><path class="cls-1" d="m10.27,156.67c.77.74,1.8,1.59,3.12,2.36,2.26,1.32,4.39,1.83,5.83,2.05.97,1.02,2.59,2.45,4.93,3.53,1.46.67,2.82,1.02,3.89,1.21"/><path class="cls-1" d="m.75,172.43c.29.44,3.88,5.62,10.1,5.58,4.05-.03,6.83-2.25,7.64-2.96-1.13-1.04-2.93-2.41-5.42-3.29-5.75-2.03-10.9.03-12.32.66Z"/><path class="cls-1" d="m11.09,175.22l7.39-.16c.57.15,1.5.32,2.63.16,1.61-.22,2.74-.97,3.25-1.37"/><path class="cls-1" d="m15.25,196.03c1.11-.75,5.56-3.97,6.84-9.97.76-3.57.06-6.54-.41-8.05-1.03.62-4.77,3.02-6.49,7.97-1.67,4.81-.36,8.9.06,10.06Z"/><path class="cls-1" d="m19.15,186.47c-.04-.87,0-1.94.23-3.12.47-2.45,1.53-4.26,2.3-5.34.58-1.19,1.16-2.37,1.74-3.56"/><path class="cls-1" d="m82.23,188.37c-11.26,10.69-22.52,21.38-33.77,32.06,1.69-.47,4.18-1.26,7.04-2.53,9.65-4.29,14.58-10.09,22.06-16.86,3.97-3.6,9.75-8.46,17.42-13.67"/><path class="cls-1" d="m38.43,195.15c.85.87,4.69,4.58,10.83,4.87,5.61.26,9.52-2.5,10.57-3.3-1.45-1.07-5.08-3.44-10.34-3.86-5.42-.43-9.48,1.45-11.06,2.3Z"/><path class="cls-1" d="m46.31,196.41c1.34.46,3.02.9,5,1.1,3.6.36,6.59-.23,8.53-.8.89.46,1.95.92,3.18,1.25,4.02,1.09,7.53.31,9.39-.27"/><path class="cls-1" d="m23.43,204.12c.15,1.39.89,6.74,5.5,10.87,3.26,2.92,6.81,3.76,8.4,4.04-.26-1.58-1.48-7.81-7.08-11.92-2.55-1.87-5.11-2.64-6.82-2.99Z"/><path class="cls-1" d="m2.87,223.21c.74,1.03,4.61,6.16,11.84,7.38,7.68,1.3,13.28-2.82,14.21-3.52-3.76-3.93-7.08-5.06-9.43-5.34-2.47-.3-4.03.3-11.25,1.02-2.27.23-4.14.37-5.36.46Z"/><path class="cls-1" d="m13.91,225.36c1.48.64,3.35,1.29,5.57,1.71,3.89.72,7.21.41,9.43,0,2.72-.31,6.07-.93,9.78-2.16,4.01-1.33,7.29-2.99,9.77-4.48-1.53.36-4.16.76-7.27.05-1.58-.37-2.88-.93-3.86-1.45-1.24-.45-4.65-1.9-6.6-5.48-.63-1.15-.96-2.26-1.14-3.18"/><path class="cls-1" d="m28.65,245.26c4.55,1.05,9.25-.67,11.86-4.32,3.52-4.92,1.28-10.57,1.14-10.91-2.71,1.7-4.4,3.51-5.46,4.89-1.74,2.26-2.23,3.95-4.61,7.02-1.14,1.47-2.2,2.59-2.93,3.32Z"/><path class="cls-1" d="m36.87,240.25c.94-1.02,2.18-2.6,3.19-4.77,1-2.15,1.41-4.09,1.59-5.46,1.17-.86,2.83-2.28,4.32-4.43,1.36-1.96,2.09-3.83,2.49-5.16"/><path class="cls-1" d="m145.75,210.36c-3.61-1.71-11.49-4.83-21.76-4.09-11.92.87-20.1,6.43-23.26,8.84,3.15-1.47,25.31-11.47,40.16-.81,1.62,1.16,3.28,2.66,4.86,4.62"/><path class="cls-1" d="m62.02,239.99c1.69-.83,4.26-1.82,7.45-2.02,3.3-.21,4.63.6,6.72.13,2.09-.47,4.8-2.18,7.31-7.82-1.89-.33-9.39-1.42-15.88,3.25-2.95,2.12-4.66,4.69-5.6,6.47Z"/><path class="cls-1" d="m73.41,252.46c.77-.18,6.8-1.72,9.66-7.77,2.61-5.51.64-10.63.3-11.46-1.63,1.03-5.08,3.51-7.51,8.1-2.53,4.78-2.56,9.21-2.46,11.14Z"/><path class="cls-1" d="m80.21,241.98c.67-.62,1.77-1.81,2.5-3.62.9-2.23.78-4.2.66-5.14.04-.98.09-1.97.13-2.95"/><path class="cls-1" d="m101.09,237.53c5.47-3.2,8.36-8.89,7.32-14.02-.77-3.8-3.46-6.13-4.56-6.98-1.37,2.74-3.18,7.29-3.42,13.13-.13,3.09.22,5.76.66,7.87Z"/><path class="cls-1" d="m103.65,225.91c.28-.94.53-2.07.66-3.36.24-2.48-.09-4.57-.46-6.03-.1-.24-.34-.72-.86-1.09-.98-.69-2.11-.38-2.27-.33-5.74,5.05-11.48,10.1-17.22,15.16-1.46.2-3.37.61-5.47,1.5-1.55.66-2.82,1.42-3.82,2.11"/><path class="cls-1" d="m82.45,209.98c1.41,1.38,5.22,4.72,11.06,5.53,3,.41,5.53.02,7.21-.39-.27-.76-1.85-4.93-6.29-6.85-3.88-1.68-8.48-1-11.98,1.71Z"/><path class="cls-1" d="m94.24,211.89c.8.1,1.89.32,3.09.86,1.63.72,2.74,1.7,3.4,2.37"/><path class="cls-1" d="m116.43,228.46c.75-.34,6.6-3.07,8.19-9.6,1.11-4.54-.48-8.25-1.02-9.41-.99.62-7.19,4.65-8.04,12.02-.34,2.96.3,5.43.87,6.98Z"/><path class="cls-1" d="m119.67,222.26c.83-.79,1.8-1.91,2.6-3.42,2.11-3.96,1.6-7.88,1.33-9.39"/><path class="cls-1" d="m103.2,199.92c.6,1.45,1.7,3.43,3.72,5.05,6.01,4.83,14.31,1.74,14.88,1.52-1.29-1.4-3.58-3.52-7.02-5.02-5.02-2.2-9.56-1.83-11.59-1.54Z"/><path class="cls-1" d="m112.02,202.79c.89,0,2.78.09,4.78,1.22,1.6.9,2.57,2.06,3.06,2.76"/><path class="cls-1" d="m100.99,185.11c2.29-1.45,8.86-5.17,17.9-4.7,8.09.42,13.76,3.97,16.03,5.57"/><path class="cls-1" d="m144.27,193.6c1.1,1.26,2.44,3.08,3.51,5.51,1.74,3.95,1.91,7.54,1.84,9.62"/><path class="cls-1" d="m165.01,200.28c-.19,2.56-.42,6.24-.53,10.69-.2,8.14-.3,12.21.5,15.86.76,3.51,2.87,9.67,9.85,16.21"/><path class="cls-1" d="m176.1,245.28c2.12,1.95,4.37,3.93,6.75,5.93,2.33,1.95,4.61,3.78,6.85,5.5"/><path class="cls-1" d="m191.96,257.89c2.35,1.36,9.74,6.05,13.27,15.53,5,13.42-1.91,25.19-2.84,26.72"/><path class="cls-1" d="m153.12,228.93c-.69,5.36-.69,13.38,3.67,20.62,2.87,4.75,7.12,8.34,10.69,11.36,3.11,2.62,5.92,4.55,7.97,5.84"/><path class="cls-1" d="m161.81,239.8c.38,1.71,1.63,6.3,5.84,9.91,2.41,2.06,4.88,3.03,6.48,3.51"/><path class="cls-1" d="m177.17,256.71c.75.26,2.13.84,3.44,2.12,1.26,1.24,1.86,2.56,2.14,3.31"/><path class="cls-1" d="m192.64,266.74c.7.51,1.6,1.26,2.46,2.34.88,1.09,1.43,2.14,1.78,2.94"/><path class="cls-1" d="m199.49,277.77c.48.96,1.2,2.72,1.27,5.03.08,2.7-.78,4.75-1.27,5.73"/><path class="cls-1" d="m158.86,225.46c-.37,1.02-1.11,3.53-.35,6.55.5,2.02,1.47,3.46,2.12,4.26"/><path class="cls-1" d="m197.15,236.27c-.17-1.72-1.15-13.47,6.83-20.54,5.39-4.77,12.5-5.33,17.27-5.7,4.47-.35,8.19.11,10.67.57"/><path class="cls-1" d="m191.36,240.58c.85.29,2.19.86,3.5,2.04.93.83,1.55,1.69,1.94,2.35"/><path class="cls-1" d="m191.96,345.16c1.64-4.62,3.86-13.22.83-22.41-2.13-6.47-6.03-10.69-11.48-16.6-9.53-10.32-13.84-10.46-17.77-17.34-2.28-3.99-4.59-10.52-3.22-20.94"/><path class="cls-1" d="m207.03,313.45c.22,1.8.36,4.22.03,7.04-.31,2.63-.8,3.68-.54,5.42.23,1.53,1.05,3.72,3.97,6.14"/><path class="cls-1" d="m199.49,326.08c.2,1.05.69,2.88,2.03,4.72.94,1.29,1.98,2.15,2.75,2.68"/><path class="cls-1" d="m169.29,307.42c.12,1.81.53,4.63,1.99,7.74,1.82,3.89,4.38,6.33,5.9,7.58"/><path class="cls-1" d="m173.23,307.84c2.71,1.74,6.12,4.52,8.79,8.79.58.93,1.07,1.84,1.49,2.72"/><path class="cls-1" d="m180.58,328.27c.46,1.06,1.08,2.27,1.94,3.55.58.86,1.17,1.61,1.73,2.25"/><path class="cls-1" d="m164.89,290.9c-.82,7.88-3.13,19.11-9.75,30.68-2.22,3.89-6.17,10.64-13.6,17.14-2.78,2.43-7.1,5-15.65,10.06-16.49,9.76-19.81,10.41-22.35,10.62-4.51.38-5.17-.73-14.9-1.86-7.7-.9-14.01-.99-18.07-.93-2.05-.91-4.72-2.36-7.45-4.66-3.61-3.04-5.81-6.31-7.08-8.57"/><path class="cls-1" d="m59.36,357.86c2.57.66,4.49.47,5.8.16.58-.14,5.96-1.46,6.97-1.44.02,0,.27,0,.62,0,.5,0,.87,0,.89,0,1.09,0,15.17,4.3,16.75,4.77,2.25.66,5.58,1.36,9.93,1.24"/><line class="cls-1" x1="96.19" y1="362.47" x2="92.54" y2="365.85"/><path class="cls-1" d="m161.12,323.08c-3.3,5.21-7.8,11.35-13.84,17.58-7.39,7.62-14.78,13.02-20.76,16.74-2.39-.13-5.9,0-9.66,1.51-4.36,1.74-5.72,3.99-10.01,5.65-2.2.85-5.52,1.68-10.11,1.28h-16.9c-.26.23-2.11,1.78-4.72,1.38-2.88-.44-4.18-2.89-4.3-3.14"/><path class="cls-1" d="m163.2,315.08c.18.59.47,1.81.14,3.29-.45,2.03-1.76,3.22-2.21,3.6"/><path class="cls-1" d="m109.08,376.08c1.62-.72,3.66-1.82,5.75-3.51,1.36-1.1,2.45-2.21,3.31-3.21-.8.57-2.45,1.57-4.77,1.85-3.04.37-5.37-.71-6.23-1.17"/><path class="cls-1" d="m157.1,336.42c1.54-1.21,3.68-3.19,5.49-6.16,1.14-1.87,1.85-3.64,2.3-5.08"/><path class="cls-1" d="m166.89,319.35c.79,1.55,1.81,3.76,2.71,6.51.85,2.57,1.64,4.98,1.81,8.14.1,1.93.02,5.02-1.21,8.74-2.08,2.62-4.89,5.66-8.59,8.59-6.4,5.07-12.76,7.68-17.18,9.06-3.15-.42-6.3-.84-9.45-1.27-5.62,3.41-11.23,6.82-16.85,10.23,2.79-3.99,5.59-7.97,8.38-11.96"/><path class="cls-1" d="m158.15,344.35c1.61-.73,4.28-2.19,6.78-4.93,2.57-2.81,3.78-5.69,4.36-7.39"/><path class="cls-1" d="m86.99,374.85c3.33.17,8.67.9,14.32,3.92,2.7,1.44,4.84,3.06,6.48,4.52h8.18"/><path class="cls-1" d="m83.22,382.39c4.3.94,7.28.38,9.21-.32,1.78-.64,2.84-1.46,5.11-1.94,2.52-.53,4.71-.25,6.15.05"/><path class="cls-1" d="m92.54,388.27c1.86.03,4.53-.13,7.57-1.06,3.52-1.07,6.1-2.72,7.69-3.92"/><path class="cls-1" d="m126.64,385.78c1.16-1.7,2.62-4.25,3.62-7.61.87-2.94,1.1-5.53,1.13-7.44"/><path class="cls-1" d="m170.21,342.74c.11,2.37-.02,6.32-1.81,10.7-1.05,2.59-2.38,4.59-3.51,6.03-2.16.3-5.35.81-9.16,1.66-12.45,2.79-18.67,4.19-23.22,8.44-5.17,4.84-5.54,10.05-12.17,12.65-1.78.7-3.36.96-4.38,1.06,1.8-1.08,4.29-2.83,6.6-5.58,2.88-3.43,3.64-6.21,4.82-8.29,1.93-3.4,6.28-7.25,17.04-9.03"/><path class="cls-1" d="m118.95,390.08c1.46.98,4.27,2.58,8.14,3.02,2.41.27,4.45,0,5.88-.3,1.99-4.3,2.88-7.9,3.32-10.4.54-3.1.47-4.92,1.96-6.03,1.61-1.2,3.39-.35,7.39-.45,2.85-.08,5.18-.6,6.78-1.06,4.16-5.13,8.31-10.25,12.47-15.38"/><path class="cls-1" d="m107.79,395.51c5.9-2.06,10.16-1.89,13.01-1.31,1.79.36,4.54,1.2,7.99.38,1.85-.44,3.27-1.2,4.18-1.78,1.66-.59,3.86-1.68,5.58-3.77,2.57-3.13,1.64-5.58,3.92-7.09,1.71-1.13,3.04-.29,8.89-.3,2.42,0,4.41-.15,5.74-.28,6.23-5.4,11.81-8.7,15.82-10.73,3.35-1.69,5.27-2.33,7.24-4.37,4.37-4.52,4.61-11.38,4.1-16.58l-7.09-2.47"/><path class="cls-1" d="m179.15,334.07c.35,1.16.98,2.81,2.17,4.52,1.62,2.34,2.89,2.81,3.62,4.49.56,1.29.81,3.34-.68,6.59"/><path class="cls-1" d="m135.74,401.9c1.03-.3,2.56-.84,4.26-1.79,2.58-1.44,3.3-2.57,4.94-3.41,1.51-.77,3.94-1.36,7.85-.28.73-.87,1.75-2.23,2.62-4.07,1.41-2.97,1.36-4.94,2.04-7.32.59-2.04,1.85-4.84,4.85-7.85"/><path class="cls-1" d="m182.72,369.36c-.13,1.29-.5,3.12-1.67,4.87-3.05,4.57-8.42,3.99-13.27,7.21-2.59,1.72-5.62,4.91-7.52,11.39-2.49,1.2-4.98,2.4-7.47,3.6-2.65,1.27-5.96,3.17-9.35,6.01-2.5,2.09-4.45,4.2-5.96,6.06"/><path class="cls-1" d="m153.36,403.9c1.51-1.61,2.75-2.86,3.55-3.66,1.83-1.83,2.54-2.44,3.03-3.66.59-1.46.47-2.87.31-3.76"/><path class="cls-1" d="m147.73,413.02h12.37c3.29-1.59,11.03-5.88,15.76-14.75.53-1,3.19-6.1,3.97-13.38.38-3.56.2-6.6-.07-8.81"/><polyline class="cls-1" points="161.12 420.08 167.68 415.5 169.39 406.67"/><path class="cls-1" d="m190.73,415.5c-1.16-.04-1.91-.42-2.34-.7-2.02-1.35-2.72-4.63-1.63-8.13-1.64-2.58-3.28-5.17-4.93-7.75"/><line class="cls-1" x1="195.44" y1="414.01" x2="186.76" y2="406.67"/><path class="cls-1" d="m188.38,367.3c.71-.56,1.45-1.28,2.11-2.18,3.03-4.14,2.24-9.16,1.95-10.64"/><path class="cls-1" d="m202.5,420.08l9.9-8.78c-4-2.57-8.43-5.77-12.99-9.74-5.64-4.91-10.13-9.81-13.64-14.16-.08,2.82-.66,6.75-3.11,10.37-2.14,3.15-4.32,4.02-7.56,7.19-2.19,2.14-5,5.46-7.43,10.53"/><polyline class="cls-1" points="201.88 397.5 212.41 406.67 212.41 411.31"/><path class="cls-1" d="m194.88,386.47c2.6.48,6.41,1.57,9.86,4.44,4.76,3.97,4.32,7.6,8.63,9.98,2.79,1.55,4.69.97,12.82.86,3.56-.05,8.39,0,14.17.37,2.31,3.94,4.81,4.8,5.92,5.05,1.54.35,2.88.07,9.61-2.34,2.46-.88,4.52-1.65,6.04-2.22"/><path class="cls-1" d="m244.09,406.25c-5.55-2.39-9.6-2.23-12.24-1.66-4.07.87-5.81,2.91-10.23,3.45-3.85.47-7.13-.52-9.21-1.37"/><path class="cls-1" d="m239.98,412.23c-.89-.13-2.98-.55-4.93-2.22-2.38-2.03-3.03-4.59-3.2-5.42"/><line class="cls-1" x1="199.16" y1="373.48" x2="199.16" y2="387.41"/><path class="cls-1" d="m197.05,355.46l4.1,6.79c-5.1,3.44-5.84,5.72-5.62,7.14.43,2.81,4.69,2.78,10.18,7.84,4.02,3.71,3.03,4.92,6.55,7.37,3.71,2.58,5.86,1.98,10.3,4.57,3.13,1.83,5.26,4,6.55,5.5.91,2.37,1.82,4.73,2.73,7.1"/><path class="cls-1" d="m229.12,394.67c.14-1.1.25-3.27-.7-5.74-.72-1.85-1.75-3.12-2.46-3.86-3.39-2.5-6.79-4.99-10.18-7.49"/><path class="cls-1" d="m260.49,396.66c-2.89-.23-5.77-.47-8.66-.7-2.42-3.81-5-5.43-6.91-6.2-3.04-1.23-5.11-.63-9.95-1.4-3.53-.57-6.33-1.52-8.12-2.22"/><path class="cls-1" d="m228.25,376.64c.41,1.71,1.27,4.11,3.33,5.85,3.63,3.07,7.72,1.39,12.17,3.39,2.53,1.14,5.69,3.69,8.08,10.07"/><path class="cls-1" d="m274.42,391.39l-6.55-.47c-2.77-4.76-5.87-7.41-8-8.88-7.01-4.85-15.31-5.1-31.61-5.4-3.31-.06-6.02-.03-7.79,0l-19.31-14.4"/><path class="cls-1" d="m203.02,354.48c.64-.3,3.19-1.6,4.45-4.64,1.53-3.69-.07-7-.32-7.49"/><path class="cls-1" d="m208.46,356.16c1.04-.43,3.12-1.49,4.5-3.75,1.98-3.23,1.74-7.59-.56-11.24"/><path class="cls-1" d="m212.07,353.62c5.38,10.95,11.22,14.58,15.77,15.76,6.87,1.78,13.02-1.46,22.01,2.34,3.18,1.35,5.53,3.07,7.02,4.33,7.68-.25,15.37-.51,23.05-.76-2.5.84-4.99,1.69-7.49,2.53"/><path class="cls-1" d="m290.69,381.56c-4.18,2.06-7.49,2.26-9.83,1.99-3.26-.38-4.72-1.66-8.66-2.69-3.86-1.01-7.3-1.05-9.83-.86.72.67,2.01,2.08,2.69,4.26.39,1.25.46,2.36.44,3.16"/><path class="cls-1" d="m271.14,377.7c.31.02.76.05,1.29.13,1.59.24,3.97.91,6.09,2.79,1.12,1,1.86,2.07,2.34,2.93"/><path class="cls-1" d="m219.85,352.73c.41,2.52,1.65,7.77,6.06,11.07,1.85,1.39,3.91,2.18,9.34,3.11,6.33,1.09,10.19,1.76,16.44,1.56,17.6-.56,22.47-6.99,28.73-2.99,3.63,2.32,4.48,6.06,9.16,6.97,2.86.56,5.47-.28,7.27-1.1"/><path class="cls-1" d="m310.51,343.91c-2.1,2.95-5.47,6.96-10.55,10.55-3.38,2.39-6.62,3.97-9.27,5.02-9.48.06-18.97.12-28.45.17-2.92,2.23-6.9,4.41-11.07,3.63-2.26-.42-2.93-1.41-7.79-4.33-3.32-1.99-3.4-1.77-10.9-5.71-2.68-1.41-6.5-3.45-11.13-6.04-1.86-4.14-4.48-10.46-6.9-18.41-3.34-10.99-3.18-14.86-5.63-20.32-2.65-5.91-8.29-13.51-21.64-19.93"/><path class="cls-1" d="m249.61,368.51c-4.19-1.25-10.82-3.8-17.48-9.2-5.25-4.26-8.67-8.79-10.78-12.1"/><path class="cls-1" d="m305.67,359.48l-11.25,7.82c-1.51.42-4.17.96-7.44.49-3-.43-5.25-1.53-6.56-2.3"/><path class="cls-1" d="m298.8,364.25c-2.85.15-6.15.15-9.79-.18-3.49-.31-6.61-.86-9.3-1.48,3.66-1.04,7.32-2.08,10.98-3.11"/></g></svg>